<svg version="1.2" xmlns="http://www.w3.org/2000/svg" viewBox="0 0 4000 4000" width="1000" height="1000">
	<title>AdobeStock_1281197207</title>
	<defs>
		<clipPath clipPathUnits="userSpaceOnUse" id="cp1">
			<path d="m0 4000v-4000h4000v4000z"/>
		</clipPath>
		<clipPath clipPathUnits="userSpaceOnUse" id="cp2">
			<path d="m0 4000v-4000h4000v4000z"/>
		</clipPath>
	</defs>
	<style>
		.s0 { fill: #2d4040 } 
		.s1 { fill: #4c6d71 } 
		.s2 { fill: #4d6e73 } 
		.s3 { fill: #558386 } 
		.s4 { fill: #67a39f } 
		.s5 { fill: #639696 } 
		.s6 { fill: #8abebf } 
		.s7 { fill: #5d8d8d } 
		.s8 { fill: #b2dfe6 } 
		.s9 { fill: #94cacc } 
		.s10 { fill: #476f6e } 
		.s11 { fill: #1f3033 } 
		.s12 { fill: #588f8f } 
		.s13 { fill: #67a3a4 } 
		.s14 { fill: #9bd4d8 } 
		.s15 { fill: #659999 } 
		.s16 { fill: #2a454a } 
		.s17 { fill: #9ed6d7 } 
		.s18 { fill: #5c8c8b } 
		.s19 { fill: #8fc6c8 } 
		.s20 { fill: #6aa5a6 } 
		.s21 { fill: #77afac } 
		.s22 { fill: #5f8f8f } 
		.s23 { fill: #416968 } 
		.s24 { fill: #6dafa8 } 
		.s25 { fill: #659a97 } 
		.s26 { fill: #9fd6db } 
		.s27 { fill: #81bbc5 } 
		.s28 { fill: #6fa4ab } 
		.s29 { fill: #5b9392 } 
		.s30 { fill: #304b4f } 
		.s31 { fill: #9dcecd } 
		.s32 { fill: #325256 } 
		.s33 { fill: #72a8ad } 
		.s34 { fill: #2b4a4f } 
		.s35 { fill: #92c9c8 } 
		.s36 { fill: #5b8e8f } 
		.s37 { fill: #85c3c4 } 
		.s38 { fill: #8bc9cb } 
		.s39 { fill: #7cb6b1 } 
		.s40 { fill: #548a8b } 
		.s41 { fill: #7cb6bc } 
		.s42 { fill: #5c8f8d } 
		.s43 { fill: #a8dae1 } 
		.s44 { fill: #425e5f } 
		.s45 { fill: #8ac3c4 } 
		.s46 { fill: #57827f } 
		.s47 { fill: #5f9291 } 
		.s48 { fill: #508384 } 
		.s49 { fill: #69a0a0 } 
		.s50 { fill: #659b99 } 
		.s51 { fill: #7bb3ba } 
		.s52 { fill: #3f6568 } 
		.s53 { fill: #547576 } 
		.s54 { fill: #31464a } 
		.s55 { fill: #233438 } 
		.s56 { fill: #6e9ea4 } 
		.s57 { fill: #5d9292 } 
		.s58 { fill: #477174 } 
		.s59 { fill: #1a2c32 } 
		.s60 { fill: #4c767b } 
		.s61 { fill: #4e7a7f } 
		.s62 { fill: #4f7d82 } 
		.s63 { fill: #6faaa0 } 
		.s64 { fill: #689b9b } 
		.s65 { fill: #7ebdb4 } 
		.s66 { fill: #3a6263 } 
		.s67 { fill: #2a4b4c } 
		.s68 { fill: #4f7678 } 
		.s69 { fill: #3f6362 } 
		.s70 { fill: #69a29f } 
		.s71 { fill: #22383b } 
		.s72 { fill: #5b8b89 } 
		.s73 { fill: #426665 } 
		.s74 { fill: #334346 } 
		.s75 { fill: #95cbce } 
		.s76 { fill: #97ced0 } 
		.s77 { fill: #89c3c7 } 
		.s78 { fill: #669e9a } 
		.s79 { fill: #4b7271 } 
		.s80 { fill: #385a5c } 
		.s81 { fill: #4d7b7b } 
		.s82 { fill: #6ba6a4 } 
		.s83 { fill: #2e4b4d } 
		.s84 { fill: #4a7c7b } 
		.s85 { fill: #6ca29e } 
		.s86 { fill: #95cdc8 } 
		.s87 { fill: #8cc4c2 } 
		.s88 { fill: #425e61 } 
		.s89 { fill: #629292 } 
		.s90 { fill: #699ea1 } 
		.s91 { fill: #c3ecf4 } 
		.s92 { fill: #4c7f7f } 
		.s93 { fill: #5e9493 } 
		.s94 { fill: #304e4d } 
		.s95 { fill: #223b3f } 
		.s96 { fill: #639d99 } 
		.s97 { fill: #518180 } 
		.s98 { fill: #598f8b } 
		.s99 { fill: #558c8a } 
		.s100 { fill: #517d7c } 
		.s101 { fill: #c2eaf3 } 
		.s102 { fill: #588988 } 
		.s103 { fill: #7cb3ba } 
		.s104 { fill: #405b5e } 
		.s105 { fill: #436a67 } 
		.s106 { fill: #6b9fa0 } 
		.s107 { fill: #2f4343 } 
		.s108 { fill: #36545a } 
		.s109 { fill: #365e5e } 
		.s110 { fill: #152830 } 
		.s111 { fill: #456e73 } 
		.s112 { fill: #324545 } 
		.s113 { fill: #8ac4c8 } 
		.s114 { fill: #6caba3 } 
		.s115 { fill: #7dbcb3 } 
		.s116 { fill: #79b5b0 } 
		.s117 { fill: #355c5c } 
		.s118 { fill: #abd9de } 
		.s119 { fill: #486a6c } 
		.s120 { fill: #82bdc4 } 
		.s121 { fill: #6fa7a3 } 
		.s122 { fill: #43716f } 
		.s123 { fill: #416c6c } 
		.s124 { fill: #bde9f6 } 
		.s125 { fill: #4d7978 } 
		.s126 { fill: #578888 } 
		.s127 { fill: #74b5ad } 
		.s128 { fill: #9dd4d4 } 
		.s129 { fill: #7ab7b7 } 
		.s130 { fill: #6da9aa } 
	</style>
	<g id="Layer 1">
		<g id="&lt;Clip Group&gt;" clip-path="url(#cp1)">
			<g id="&lt;Group&gt;">
				<path id="&lt;Path&gt;" class="s0" d="m445.9 2253.5c195.7 121.9 398.1 231.6 603.6 335.9 46.6 23.7 97.2 39.6 146 59.1q21.8 7.4 43.6 14.9c1 2.8 1.2 7 3.2 8.3 57.8 39 116 77.5 173.7 116.7 16.5 11.1 35.3 23 32.6 46.6-2 18.2-10 34.6-30.6 39.8q-5.9 0.1-11.8 0.2-148.7-17.4-297.4-34.8c0.3-0.6 0.7-1.2 0.8-1.8 0-0.5-0.3-1.4-0.8-1.6-108.5-48.2-212.8-104.6-315-164.8-137.5-118-267.8-243.2-384.4-382.2q18.3-18.1 36.5-36.3z"/>
				<path id="&lt;Path&gt;" class="s1" d="m3321.7 2828.4c-49.5 73.4-115.8 128.7-188.4 177.6-289.8 195.1-605.2 306.4-958.8 290.9-56.1-2.4-111.4-9.9-161.5-38.5q-2.6-2.3-5.2-4.5 1.9-13.6 3.9-27.1c58.3-0.3 101.5-36.1 148.2-63.5 8.4 14.3 22.6 9.9 33.4 7.7 163.6-33.1 327-67 490.4-100.8 9.6-1.2 19.7-0.8 28.6-3.9 195.2-67.8 391.1-133.8 572.9-234.3q18.2-1.8 36.5-3.6z"/>
				<path id="&lt;Path&gt;" class="s2" d="m2007.8 3253.9q2.6 2.2 5.2 4.5c-44.1 35.1-97.7 45.7-150.5 45.2-393.2-3.7-746.5-120.9-1048.3-378.2-34.2-29.2-61-67.2-91.2-101.1q11.4 0.1 22.8 0.2 9.9 3.7 19.8 7.4c14.4 8.7 28.9 17.1 43 26.1 144.8 92.1 304.5 151 464.8 208.4 84.5 35.2 173.1 56.8 261.8 78.1q236.3 54.7 472.6 109.4z"/>
				<path id="&lt;Path&gt;" class="s3" d="m1239.1 2663.4q-21.8-7.5-43.6-14.9 4.6-0.4 9.2-0.8c-1.9-2.7-3.3-6-5.8-8.1-19.5-17.5-39.1-34.8-58.8-52.1 7.4-22.8 14.5-45.6 35.7-60.2 98.9 40.3 185.2 45.5 194.8-57 3.7-40.1-10.7-73.2-26.8-107 25.2-18.1 56.8 8.1 81.8-11.7q7.7 6 15.5 12 8.3 15.2 16.5 30.3c-6.2-1.5-12.4-3.2-18.7-4.7-8-1.8-16-3.4-24.1-5.1 7.3 3.2 14.4 6.8 21.8 9.6 72 27.5 144.1 55 216.1 82.5 43.7 21.1 87.7 41.6 124.4 74.5-121.1 137.3-334.8 230.5-538 112.7z"/>
				<path id="&lt;Path&gt;" class="s4" d="m2870.7 2640.3c52.4-2.2 98.4-25.9 142.9-49 215.2-111.8 430.5-223.5 639.1-347.6 24.8-14.8 53.8-22.4 80.8-33.4q6.1 3.7 12.1 7.3c-5.4 7.6-9.5 16.8-16.5 22.5-35.8 29.6-77.1 54-107.9 88-103.1 113.8-217.6 215.2-332.6 316.1-84.8-30.5-151.9 24.3-225.3 47.4-102.8 32.4-203.8 77.8-313.6 26.9q23.5-13.7 47-27.3 27.7-18.9 55.4-37.8 7.6-6.3 15.2-12.5 1.7-0.4 3.4-0.6z"/>
				<path id="&lt;Path&gt;" class="s5" d="m402.2 1504c220.6 143.9 441.2 287.9 662.1 431.7 13.4 8.7 28.4 15 42.7 22.4 1-15.1 2-30.3 3.2-45.5 0.7-9 1.7-18 2.5-27q-3.6 70.8-7.2 141.7c-25.6-6.8-50.8-15.4-76.7-20.1-49.9-9.2-85.3-64.1-149.1-36.1-41 18-91.4 14.8-137.5 21.1-31.8-34.1-48.9-80.9-91.1-106.1-0.2-4.9 1.7-11.4-0.7-14.7-84.1-114.9-179.2-222-247.8-347.9-3.4-6.4-10.9-12.8-0.4-19.5z"/>
				<path id="&lt;Path&gt;" class="s6" d="m1465 1062.4c32.6 27.5 32.6 71.9 54.1 105.1q7.9 27.8 15.8 55.5c13.8 37.8 27.4 75.6 41.4 113.3 36.5 98.3 109.1 176.9 149.8 273-48.1 70.5-99.7 138.3-159.7 199.3-79.2-115.4-121.1-245.7-114.1-383 6.2-121.1 3.5-242.4 12.7-363.2z"/>
				<path id="&lt;Path&gt;" class="s7" d="m2942.1 1962q378.5-235 757.1-469.9-3.8 9.9-7.6 19.8c-68.4 107.8-153.7 202.4-234.7 300.4-42.3 10.4-91.9 10-125.5 33-124.7 85.8-251.3 165.9-397.8 209.4q4.3-46.4 8.5-92.7z"/>
				<path id="&lt;Path&gt;" class="s8" d="m2942.1 1962q-4.2 46.3-8.5 92.7c-10 55-21.7 109.5-47.3 160q-105.2 68.3-210.4 136.6c71.3-150 82.2-317.5 136.6-472.4 2.6-9.2 6.1-18.2 7.7-27.6 22.2-128.6 44.2-257.2 66.2-385.8q1.8 15.4 3.7 30.7c2.8 29.6 4.4 59.5 8.6 88.9 13.5 93.9 27.9 187.6 42 281.4-4.5 31.9-7 63.8 1.4 95.5z"/>
				<path id="&lt;Path&gt;" class="s9" d="m2558.7 1105.8c10.9-10.8 15.6-6.1 16 6.8 2.6 73.6 4.9 147.1 7.6 220.7 0.2 7.4 2.2 14.7 3.4 22-15.3 39.3-5.3 78.6-0.2 117.9q11.7 50.8 23.3 101.7 4.5 42.4 9 84.8c2.4 19.5-5.9 32.8-20.4 46.2-61.7 57.4-106.6 127.7-148.5 200.1q-13.4 17.9-26.8 35.8c-11.5 2.5-28.4 10.9-30.3-7.2-11.2-107.2-4.5-214.5 2.5-321.7 0.1 11.1 0.5 22.1 0.2 33.2-0.5 19.5 9.9 25.6 22.8 12.5 12.2-12.5 22-29.5 27.2-46.3 51.4-165.8 98.1-332.7 114.2-506.5z"/>
				<path id="&lt;Compound Path&gt;" fill-rule="evenodd" class="s10" d="m1726.1 1609.3c-40.7-96.1-113.3-174.7-149.8-273-14-37.7-27.6-75.5-41.4-113.3q19.6-99.7 39.2-199.5 37.3 122.8 74.7 245.7c1.8 5.4 3.5 10.9 5.5 16.3 7.4 19.6 14.9 39.3 22.3 58.9 8.2-19.8 16.7-39.6 24.5-59.6 6.4-16.7 11.8-33.8 17.7-50.7q9.9 21.9 19.8 43.7c22.9 89.1 45.9 178.3 68.9 267.4 0.6 1.9 2.6 3.5 3.9 5.2 1.9-4 3.9-7.9 5.7-11.9 43.4-96.3 69.8-197.9 92.6-300.5q-1.7 84.2-3.3 168.3-68.4 142.6-136.7 285.2-21.8-41.1-43.6-82.2zm9-310.6c-2.2 3.8-3.3 5.3-4 7-27.5 65.9-8.4 166.6 40.8 214.8 1.7 1.7 3.8 2.9 5.7 4.3 0.7-2.7 2.5-5.6 2-8.1-13.7-70.3-27.5-140.6-41.4-210.8-0.4-2-1.6-3.7-3.1-7.2z"/>
				<path id="&lt;Path&gt;" class="s11" d="m793.8 2672c102.2 60.2 206.5 116.6 315 164.8 0.5 0.2 0.8 1.1 0.8 1.6-0.1 0.6-0.5 1.2-0.8 1.8-112.1-7.9-225.1-8.6-334.4-40-177.3-159.6-317.1-350.5-452.9-544.6-0.2-0.2 1.3-1.7 2-2.7 68.9 71.6 138.3 142.7 206.6 214.9 77.5 81.7 165.1 149.9 263.7 204.2z"/>
				<path id="&lt;Path&gt;" class="s12" d="m808.1 2309.6c-131.9-119.4-212.1-273.6-289-430 37.3 33.1 40.6 0.7 47.1-24.7 3.1-12.4 5.3-25.1 7.9-37.7q37.1 38.5 74.2 77c28.2 79 87.3 134.7 144.6 191.7q-15.8 0.5-31.6 1c3.1 10.7 3.8 22.9 9.5 32 32.8 51.9 66.7 103.1 100.3 154.5q-31.5 18.1-63 36.2z"/>
				<path id="&lt;Path&gt;" class="s13" d="m1112.6 1852.7c-36.6-121.3-26.7-245.7-25.8-369.6 1.2-164.8 19.9-328.1 38.4-491.4 0.6-5.1 2.6-10 3.9-15q23.3 156.2 46.7 312.4 3.8 45 7.6 89.9-35.4 236.9-70.8 473.7z"/>
				<path id="&lt;Path&gt;" class="s14" d="m3504.6 1988.4c-103.1 188-240.5 344.7-421.9 461.1 3.7-5.3 7.1-10.8 11.2-15.7 89.4-108.1 176.1-217.9 235.1-346.7q17.5-41.7 35-83.3 22.9-29.7 45.9-59.4 11.8-11.4 23.6-22.8c24.1 2.7 41.2 13.4 38.7 40.2-2.6 27 4.6 38.4 32.4 26.6z"/>
				<path id="&lt;Path&gt;" class="s15" d="m2940.7 1866.5c-14.1-93.8-28.5-187.5-42-281.4-4.2-29.4-5.8-59.3-8.6-88.9 1.5-54.4-0.1-109.1 5.1-163.2 10.8-113.7 25.1-227 38-340.4 29 252.9 40 506.5 27.4 760.8-1.9 37.9-13 75.4-19.9 113.1z"/>
				<path id="&lt;Path&gt;" class="s16" d="m3492.1 2572.9c-65.2 84.5-134.4 165.2-219.2 231.2-82 28.9-168.6 21.8-252.9 32.5q-16-1.4-32-2.8c9.4-7.2 18-15.8 28.2-21.5 80.5-44 161.2-87.5 241.9-131.2q68.2-43.7 136.3-87.4c17 8.9 34.5 8.3 51.6 1.3 15.7-6.5 30.8-14.7 46.1-22.1z"/>
				<path id="&lt;Path&gt;" class="s17" d="m2558.7 1105.8c-16.1 173.8-62.8 340.7-114.2 506.5-5.2 16.8-15 33.8-27.2 46.3-12.9 13.1-23.3 7-22.8-12.5 0.3-11.1-0.1-22.1-0.2-33.2 1.5-59.6 3.2-119.3 4.3-178.9 0.2-11.7 4.2-25.6-11.5-31.9 1.6-6.3 1.7-13.5 4.9-18.9 25.3-43.3 51.1-86.2 76.8-129.3q17.7-31.3 35.5-62.6 27.2-42.7 54.4-85.5z"/>
				<path id="&lt;Path&gt;" class="s18" d="m1112.6 1852.7q35.4-236.8 70.8-473.7 2.1 19.5 4.2 38.9c-5.9 53.4-7.5 107.6-18.4 159.8-40.1 191.5-54 381 9 571.6 21.5 64.9 42 117.1 118.1 133 47.6 9.9 91.5 36.3 129.3 69.3-25 19.8-56.6-6.4-81.8 11.7q-89.9-37-179.8-74c10.4-1.8 5.4-7.6 3.6-12.9-10.9-31.8-24.1-63-31.9-95.5-12-50.8-20.3-102.4-30.2-153.6q3.6-70.9 7.2-141.7-0.1-16.5-0.1-32.9z"/>
				<path id="&lt;Path&gt;" class="s19" d="m2933.2 992.6c-12.9 113.4-27.2 226.7-38 340.4-5.2 54.1-3.6 108.8-5.1 163.2q-1.9-15.3-3.7-30.7c0.1-16.2 0.6-32.4 0.1-48.6-0.2-9.3-2.2-18.6-3.3-27.8-6.1 6.9-14.6 12.9-17.9 21-26.1 64.2-55.5 126.8-96.2 183-18.4 25.3-35.4 54.6-69.9 63.1q0.1-7.7 0.3-15.4 4-7.6 7.9-15.3c4.4-5.4 10-10.3 13.1-16.3 7.2-14.1 13.2-28.8 19.7-43.2q-16.7 17.6-33.5 35.2c-22.5 25.9-45 51.8-67.7 77.6-4.5 5.1-10.4 11.8-9.6-2.8 11.8-19.3 24.2-38.4 35.3-58.1 51.3-90.6 127.7-165.6 164.2-265.3 36.8-115.4 69.7-231.7 85.5-352.2q2.1-33.7 4.3-67.4 7.2 29.8 14.5 59.6z"/>
				<path id="&lt;Path&gt;" class="s20" d="m1738.6 1277.8q-9.9-21.8-19.8-43.7c-5.9 16.9-11.3 34-17.7 50.7-7.8 20-16.3 39.8-24.5 59.6-7.4-19.6-14.9-39.3-22.3-58.9-2-5.4-3.7-10.9-5.5-16.3 23.1-14.7 30.6-40.4 42-62.6 108.3-210.2 189.6-433.4 306.6-639.5 3.2-5.7 6.8-11.1 10.1-16.7-1.9 13.4-3.1 26.9-5.9 40.1-25 117.4-106.3 210.6-140 324.1-17.5 59-30.6 119.3-45.6 179q-38.7 92.1-77.4 184.2z"/>
				<path id="&lt;Path&gt;" class="s21" d="m2152.6 812.5q74 171.9 148 343.8-3.7 9.9-7.4 19.8c-10.6 31.1-8.8 66.4-31.5 93.5-52.3-116-121.1-225.1-148.4-351.6 24.7 0.8 16.4-21.5 23.9-32.9 14.9-22.7-22.8-55.8 15.4-72.6z"/>
				<path id="&lt;Path&gt;" class="s22" d="m2918.7 933q-2.2 33.7-4.3 67.4c-0.1-9.1 0.3-18.2-0.6-27.2-0.3-2.8 4.6-20.8-7.5-5.9-34.4 42.1-72.6 82.3-99.5 128.9-61.3 105.9-104.8 221.9-181.8 319.1-14.4 18.1-37.6 31-39.5 57.9-5.1-39.3-15.1-78.6 0.2-117.9 105.4-140.9 182.5-301.9 305.7-430.2 5.1-5.4 11.8-9.3 17.7-13.9q4.8 10.9 9.6 21.8z"/>
				<path id="&lt;Path&gt;" class="s23" d="m2261.7 1269.6c22.7-27.1 20.9-62.4 31.5-93.5 7.2 32 6.9 64.4-2 95.6-16.9 59.7-30.2 119.4-18 181.7 0.5 2.4 1.3 4.6 1.9 6.9 1-1.5 2.8-2.9 3-4.5 9.7-62.7 49.4-118.8 38.5-186.3-4.4-26.8-3.1-54.5-4.4-81.9q4.3 11.4 8.5 22.8 9.6 51 19.2 102.1c-0.6 7.7-1.3 15.4-2 23.2-8.8 97.7-57 180.8-99.6 265.9q-21.6 37-43.1 74-3.8-9.8-7.6-19.5-7.8-37.1-15.7-74.1-25.5-101.4-51-202.9c8.3 20.2 17.5 40.2 24.8 60.8 12.4 34.4 23.6 69.2 35.3 103.9 22.4-36.3 33.3-76.6 41.9-117.8 14.3-51.8 41.3-100.5 38.8-156.4z"/>
				<path id="&lt;Path&gt;" class="s24" d="m2468.8 1253.9c-25.7 43.1-51.5 86-76.8 129.3-3.2 5.4-3.3 12.6-4.9 18.9q-8 2.1-16 4.1c-18-28.6-23.2-61-27.4-93.6q4-21.8 8-43.6c30.3-72.5 60.5-145.1 91-217.6 5.2-12.4 11.5-24.5 17.3-36.7 17.8 79.2 15 159.2 8.8 239.2z"/>
				<path id="&lt;Path&gt;" class="s25" d="m1465 1062.4c-9.2 120.8-6.5 242.1-12.7 363.2-7 137.3 34.9 267.6 114.1 383q0 1.9 0 3.9-15.8 12-31.6 24-54.7-82.2-109.4-164.3c-11.1-73.7-9.9-146.8 7.6-219.5 0.6-2.7-7.3-7.5-11.2-11.4q7.5-49.1 15-98.2c6.9-88.1 13.7-176.3 21-264.4 0.5-5.6 4.7-10.9 7.2-16.3z"/>
				<path id="&lt;Path&gt;" class="s26" d="m3504.6 1988.4c-27.8 11.8-35 0.4-32.4-26.6 2.5-26.8-14.6-37.5-38.7-40.2q37.2-46.7 74.3-93.5 40.9-56.6 81.7-113.3c11.8-6.5 23.5-13.3 35.5-19.4 8.9-4.5 18.2-8.2 27.3-12.3-41.4 105.6-86.3 209.5-147.7 305.3z"/>
				<path id="&lt;Path&gt;" class="s27" d="m3394.4 2593.7q-68.1 43.7-136.3 87.4 15.2-18.5 30.4-36.9c115.1-100.9 229.6-202.3 332.7-316.1 30.8-34 72.1-58.4 107.9-88 7-5.7 11.1-14.9 16.5-22.5q-6-3.6-12.1-7.3 13.3-0.5 26.5-1-4.6 14.6-9.2 29.2c-14.1-4.6-17.5 8.4-23.1 15.5-99.2 125-201.1 247.1-333.3 339.7z"/>
				<path id="&lt;Path&gt;" class="s28" d="m793.8 2672c-98.6-54.3-186.2-122.5-263.7-204.2-68.3-72.2-137.7-143.3-206.6-214.9-14.3-18.4-32.7-35-27.1-62.1q7.9 8.3 15.8 16.6 48.6 41.2 97.2 82.4c116.6 139 246.9 264.2 384.4 382.2z"/>
				<path id="&lt;Path&gt;" class="s29" d="m574.1 1817.2c-2.6 12.6-4.8 25.3-7.9 37.7-6.5 25.4-9.8 57.8-47.1 24.7-56.2-102.4-96.2-211.6-136.4-320.8 8.1-8 21.3 14.2 27.7-4.6 39.9 96.8 94.8 184.2 163.7 263z"/>
				<path id="&lt;Path&gt;" class="s30" d="m2867.3 2640.9q-7.6 6.2-15.2 12.5c-7.5-33.3-3.7-70.8-35.7-94.8q66.4-37.1 132.8-74.2c18.8 9 36.5 21 59.1 8.7 13.2-7.2 28.2-11.2 42.5-16.6q-79.2 72.5-158.3 145.1c-14.6-1.7-27.7-1.3-25.2 19.3z"/>
				<path id="&lt;Path&gt;" class="s31" d="m1816 1093.6c15-59.7 28.1-120 45.6-179 33.7-113.5 115-206.7 140-324.1 2.8-13.2 4-26.7 5.9-40.1q5.6-7.2 11.1-14.5 10.1 15.4 20.2 30.8-11.7 23.1-23.4 46.2-15.5 45.1-31 90.2-84.2 195.2-168.4 390.5z"/>
				<path id="&lt;Path&gt;" class="s32" d="m3050.8 2476.5c-14.3 5.4-29.3 9.4-42.5 16.6-22.6 12.3-40.3 0.3-59.1-8.7q56.7-41 113.3-82c74.1-57.7 137.7-125.2 189.6-203.7 24.9-37.7 51.2-74.4 76.9-111.6-59 128.8-145.7 238.6-235.1 346.7-4.1 4.9-7.5 10.4-11.2 15.7q-16 13.5-31.9 27z"/>
				<path id="&lt;Path&gt;" class="s33" d="m774.4 2800.2c109.3 31.4 222.3 32.1 334.4 40q148.7 17.4 297.4 34.8-9.8 5.9-19.6 11.8-3.8-0.1-7.7-0.1-21.6-1.9-43.2-3.8c-105.3 1.2-207.7-28-314.1-25.3-85.1 2.1-170.6-16.4-256-25.7q-9.9-3.7-19.8-7.4 8.3-10.1 16.7-20.2 5.9-2 11.9-4.1z"/>
				<path id="&lt;Path&gt;" class="s34" d="m3394.4 2593.7c132.2-92.6 234.1-214.7 333.3-339.7 5.6-7.1 9-20.1 23.1-15.5-78.6 117.3-164 229.5-258.7 334.4-15.3 7.4-30.4 15.6-46.1 22.1-17.1 7-34.6 7.6-51.6-1.3z"/>
				<path id="&lt;Path&gt;" class="s35" d="m1175.8 1289.1q-23.4-156.2-46.7-312.4c3.3-17 5.7-34.2 10.1-50.9 2.2-8.8 7.8-16.7 11.9-25q10.7 10.3 21.5 20.7-2.2 8.4-4.3 16.8c-10.3 112.3 18.2 219.4 42.7 327.1q-17.6 11.8-35.2 23.7z"/>
				<path id="&lt;Path&gt;" class="s36" d="m1175.8 2527.3c-21.2 14.6-28.3 37.4-35.7 60.2q-41.1-37.7-82.1-75.4c-1.5-6-1.2-13.5-4.7-17.7-26.5-31.1-53.7-61.5-80.7-92q-27.3-39.1-54.6-78.2c82.3 72.3 164.1 145.2 257.8 203.1z"/>
				<path id="&lt;Path&gt;" class="s37" d="m1436.8 1343.1q-7.5 49.1-15 98.2-1.7 1.8-3.4 3.5c-44.7-64.5-78.7-134.8-110.5-206.3q13.7-21.4 27.5-42.9c24.7 52.9 54.8 102.5 90.5 148.7 5.5 7.1 7.8 3.6 10.9-1.2z"/>
				<path id="&lt;Path&gt;" class="s38" d="m1335.4 1195.6q-13.8 21.5-27.5 42.9c-22.1-46.7-44.4-93.3-66.2-140.2-24.7-53.2-48.9-106.7-73.4-160q2.1-8.4 4.3-16.8c61.2 87.3 121.9 174.8 162.8 274.1z"/>
				<path id="&lt;Path&gt;" class="s39" d="m2152.6 812.5c-38.2 16.8-0.5 49.9-15.4 72.6-7.5 11.4 0.8 33.7-23.9 32.9q-2-7.6-4.1-15.2c11-48.2-11.2-88.4-30.5-129.4q-2.4-11.5-4.8-23.1-11.7-79.8-23.4-159.6 51 110.9 102.1 221.8z"/>
				<path id="&lt;Path&gt;" class="s40" d="m918 2324.2q27.3 39.1 54.6 78.2-15.9 8.4-31.8 16.7-66.3-54.8-132.7-109.5 31.5-18.1 63-36.2 23.4 25.4 46.9 50.8z"/>
				<path id="&lt;Path&gt;" class="s41" d="m3020 2836.6c84.3-10.7 170.9-3.6 252.9-32.5 13.8-1.3 27.7-2.4 41.6-4 9.1-1 21.4-8.5 25.5 3.9 4.1 12.6-6.6 20.4-18.3 24.4q-18.3 1.8-36.5 3.6-134.7 13.7-269.4 27.3c-7.7-36.2-40.1-2.8-54.7-19.4q29.4-1.6 58.9-3.3z"/>
				<path id="&lt;Path&gt;" class="s42" d="m2312.2 1187.6c1.3 27.4 0 55.1 4.4 81.9 10.9 67.5-28.8 123.6-38.5 186.3-0.2 1.6-2 3-3 4.5-0.6-2.3-1.4-4.5-1.9-6.9-12.2-62.3 1.1-122 18-181.7 8.9-31.2 9.2-63.6 2-95.6q3.7-9.9 7.4-19.8 5.8 15.6 11.6 31.3z"/>
				<path id="&lt;Path&gt;" class="s43" d="m3652.3 1683.1c-9.1 4.1-18.4 7.8-27.3 12.3-12 6.1-23.7 12.9-35.5 19.4 26.6-50.8 68.8-92.7 85.8-149q15.8-29.3 31.5-58.5 8-9.2 16.1-18.4c-11.3 69.2-44.9 130.3-70.6 194.2z"/>
				<path id="&lt;Path&gt;" class="s44" d="m409.4 2289.8q-48.6-41.2-97.2-82.4 8.4-6.3 16.8-12.6 58.5 29.4 116.9 58.7-18.2 18.2-36.5 36.3z"/>
				<path id="&lt;Path&gt;" class="s45" d="m2468.8 1253.9c6.2-80 9-160-8.8-239.2 10.5-7.8 12.2-7.5 15.8 6.4 14.7 55.8 26.7 112.2 28.5 170.2q-17.8 31.3-35.5 62.6z"/>
				<path id="&lt;Path&gt;" class="s46" d="m1574.1 1023.5q-19.6 99.8-39.2 199.5-7.9-27.7-15.8-55.5c13.9-47.7 27.7-95.4 41.9-143 1.3-4.4 5-8.1 7.6-12.1q2.7 5.6 5.5 11.1z"/>
				<path id="&lt;Path&gt;" class="s47" d="m2050.5 590.7q11.7 79.8 23.4 159.6-29.2-68.7-58.5-137.4 11.7-23.1 23.4-46.2 5.8 12 11.7 24z"/>
				<path id="&lt;Path&gt;" class="s48" d="m940.8 2419.1q15.9-8.3 31.8-16.7c27 30.5 54.2 60.9 80.7 92 3.5 4.2 3.2 11.7 4.7 17.7q-58.6-46.5-117.2-93z"/>
				<path id="&lt;Path&gt;" class="s49" d="m410.4 1554.2c-6.4 18.8-19.6-3.4-27.7 4.6-5-9.7-10.8-19.1-14.8-29.2-6.8-16.6-12.4-33.8-18.4-50.7q26.3 12.5 52.7 25.1c-10.5 6.7-3 13.1 0.4 19.5q3.9 15.4 7.8 30.7z"/>
				<path id="&lt;Path&gt;" class="s50" d="m2351.7 1269q-4 21.8-8 43.6-1.9-0.1-3.8-0.1-9.6-51.1-19.2-102.1 15.5 29.3 31 58.6z"/>
				<path id="&lt;Path&gt;" class="s51" d="m762.5 2804.3q-8.4 10.1-16.7 20.2-11.4-0.1-22.8-0.2c-8.4-6-17.8-17.1-9.8-23.4 15.1-11.9 32.8 0.5 49.3 3.4z"/>
				<path id="&lt;Path&gt;" class="s52" d="m3722.9 1488.9q-8.1 9.2-16.1 18.4-7.6 2.3-15.2 4.6 3.8-9.9 7.6-19.8c7.6-3.3 13.5-19 23.7-3.2z"/>
				<path id="&lt;Path&gt;" class="s53" d="m329 2194.8q-8.4 6.3-16.8 12.6-7.9-8.3-15.8-16.6c12.1-8.6 22.2-0.8 32.6 4z"/>
				<path id="&lt;Path&gt;" class="s54" d="m2867.3 2640.9c-2.5-20.6 10.6-21 25.2-19.3q-10.9 9.4-21.8 18.7-1.7 0.2-3.4 0.6z"/>
				<path id="&lt;Path&gt;" class="s55" d="m1239.1 2663.4c203.2 117.8 416.9 24.6 538-112.7q4-2 8.1-3.9c32.6 28.9 62.4 60 78.3 101.7-49.3 31.4-103.5 50.3-160.4 62.4q-3.9 0-7.9 0c-23.2 1.4-46.5 3.2-69.8 4-50.1 1.7-91.5 9.7-56.3 75 5.8 10.8 13.7 20.4 20.7 30.5 0.1 6.7 1.6 13.7 0 19.9-3.8 14.9 38.7 56.2-22.5 40.1-6.2-1.6-22.8 7.5-8.7 21.9q-70.3-13.8-140.6-27.5c20.6-5.2 28.6-21.6 30.6-39.8 2.7-23.6-16.1-35.5-32.6-46.6-57.7-39.2-115.9-77.7-173.7-116.7-2-1.3-2.2-5.5-3.2-8.3z"/>
				<path id="&lt;Path&gt;" class="s56" d="m1418 2874.8q70.3 13.7 140.6 27.5 3.8 2.2 7.6 4.4-60.4-8.1-120.7-16.2-29.4-1.8-58.9-3.7 9.8-5.9 19.6-11.8 5.9-0.1 11.8-0.2z"/>
				<path id="&lt;Path&gt;" class="s57" d="m3015.8 2859.3q134.7-13.6 269.4-27.3c-181.8 100.5-377.7 166.5-572.9 234.3-8.9 3.1-19 2.7-28.6 3.9-85.5-30.1-162.4-75.7-238.1-125.1-30.6-20-42.6-30.1-4.2-50.7q19.6-5.6 39.3-11.2c5.5 1.1 11.3 4.1 16.5 3.3 130.5-19.8 261.5-35.1 393.7-36.4 41.6-0.4 85-16.2 124.9 9.2z"/>
				<path id="&lt;Path&gt;" class="s58" d="m2441.4 2894.4c-38.4 20.6-26.4 30.7 4.2 50.7 75.7 49.4 152.6 95 238.1 125.1-163.4 33.8-326.8 67.7-490.4 100.8-10.8 2.2-25 6.6-33.4-7.7 74.9-58.7 144.3-123.7 186.2-210.2 21.2-43.9 53.7-55.1 95.3-58.7z"/>
				<path id="&lt;Path&gt;" class="s59" d="m2441.4 2894.4c-41.6 3.6-74.1 14.8-95.3 58.7-41.9 86.5-111.3 151.5-186.2 210.2-46.7 27.4-89.9 63.2-148.2 63.5q-1.7-2.2-3.4-4.3c-17.4-46.1-58.1-65.6-98.1-85.9 38.7-1.9 69.7 31.1 109.5 24.3 101.6-28.6 200.9-61.6 270.2-148.8 32.6-34.2 54.2-75.1 72.8-117.9 15.9-36.2 30.3-73.2 48-108.5 12.7-25.4 3.4-31.9-20.2-31.5-84.5-16.5-160.8-51.7-230.2-102.2 14.3-52.5 52.7-85.6 93.6-116.7q7.6-4.1 15.3-8.2c10.1 12.6-5.3 9.2-8.5 12-7 6.1-9.6 11-8.7 21.2 9.8 113.3 85.3 164.3 182.2 197.5 58.9 20.2 114.2 68.9 179.1 15.8 9.3-4.6 19.1-8.2 27.7-13.8 48.2-31.2 100-54.2 155.7-68.6q-23.5 13.6-47 27.3c-91.1 43.1-172.4 101.9-254.2 159.9q-7.4 2.4-14.8 4.8-19.7 5.6-39.3 11.2z"/>
				<path id="&lt;Path&gt;" class="s60" d="m2008.3 3222.5q1.7 2.1 3.4 4.3-2 13.5-3.9 27.1-236.3-54.7-472.6-109.4c11.6-1.5 24-1 34.8-5 27.9-10.2 67.4 17.2 82.9-10.2 17.5-31.1 42.5-43.8 69.7-58.4q17.6 9.5 35.2 19c7.5 7 13.9 16.2 22.7 20.6 75.7 37.8 151.8 74.8 227.8 112z"/>
				<path id="&lt;Path&gt;" class="s61" d="m1722.6 3070.9c-27.2 14.6-52.2 27.3-69.7 58.4-15.5 27.4-55 0-82.9 10.2-10.8 4-23.2 3.5-34.8 5-88.7-21.3-177.3-42.9-261.8-78.1 20.2-6 29.3-22.8 30.7-40.6 5.9-73.6 66.9-133 141.4-135.3q60.3 8.1 120.7 16.2c28.1 7 52.4 17 66.4 46.6 21.3 45.3 51.9 84.6 90 117.6z"/>
				<path id="&lt;Path&gt;" class="s62" d="m1445.5 2890.5c-74.5 2.3-135.5 61.7-141.4 135.3-1.4 17.8-10.5 34.6-30.7 40.6-160.3-57.4-320-116.3-464.8-208.4-14.1-9-28.6-17.4-43-26.1 85.4 9.3 170.9 27.8 256 25.7 106.4-2.7 208.8 26.5 314.1 25.3q21.6 1.9 43.2 3.8 3.9 0 7.7 0.1 29.5 1.9 58.9 3.7z"/>
				<path id="&lt;Path&gt;" class="s63" d="m1425.6 2351.6c-37.8-33-81.7-59.4-129.3-69.3-76.1-15.9-96.6-68.1-118.1-133-63-190.6-49.1-380.1-9-571.6 10.9-52.2 12.5-106.4 18.4-159.8q5.8 13.8 11.6 27.5c9.1 49.7 21.6 99 26.8 149 27.4 260.3 120.4 501.9 207.7 745.3q3.7 12 7.4 23.9-7.8-6-15.5-12z"/>
				<path id="&lt;Path&gt;" class="s64" d="m918 2324.2q-23.5-25.4-46.9-50.8c-33.6-51.4-67.5-102.6-100.3-154.5-5.7-9.1-6.4-21.3-9.5-32q15.8-0.5 31.6-1 9.7 7.8 19.5 15.7c30.2 24.3 59.1 50.5 90.9 72.4 60.5 41.8 124.2 78 197.9 92q31.4 11.6 62.8 23.3 89.9 37 179.8 74c16.1 33.8 30.5 66.9 26.8 107-9.6 102.5-95.9 97.3-194.8 57-93.7-57.9-175.5-130.8-257.8-203.1z"/>
				<path id="&lt;Path&gt;" class="s65" d="m1441.1 2363.6q-3.7-11.9-7.4-23.9c98.1-54.2 183.6-14.9 268.3 35.1 8.8 5.1 18 23.7 32.9 7.3 7.6 47.2 28.2 92.3 23 141.7q-50.4-26-100.8-51.9-99.7-39-199.5-78-8.2-15.1-16.5-30.3z"/>
				<path id="&lt;Path&gt;" class="s66" d="m1457.6 2393.9q99.8 39 199.5 78-2.2 2.2-4.4 4.3c-72-27.5-144.1-55-216.1-82.5-7.4-2.8-14.5-6.4-21.8-9.6 8.1 1.7 16.1 3.3 24.1 5.1 6.3 1.5 12.5 3.2 18.7 4.7z"/>
				<path id="&lt;Path&gt;" class="s67" d="m1652.7 2476.2q2.2-2.1 4.4-4.3 50.4 25.9 100.7 51.9 13.7 11.5 27.4 23-4.1 1.9-8.1 3.9c-36.7-32.9-80.7-53.4-124.4-74.5z"/>
				<path id="&lt;Path&gt;" class="s68" d="m2495.5 2878.4c81.8-58 163.1-116.8 254.2-159.9 109.8 50.9 210.8 5.5 313.6-26.9 73.4-23.1 140.5-77.9 225.3-47.4q-15.3 18.4-30.5 36.9c-80.7 43.7-161.4 87.2-241.9 131.2-10.2 5.7-18.8 14.3-28.2 21.5q16 1.4 32 2.8-29.5 1.7-58.9 3.3c-156.3-0.1-310.9 19.1-465.6 38.5z"/>
				<path id="&lt;Path&gt;" class="s54" d="m2796.7 2691.2c-55.7 14.4-107.5 37.4-155.7 68.6-8.6 5.6-18.4 9.2-27.7 13.8-2.2-67.1-5.1-134.1-6.2-201.2-0.7-39.6 9.4-83-48.1-92.6-6.7-1.1-14.2-3.7-7.3-14.6 3.9-6.1 4.6-15.2 4.1-22.7-0.2-2.7-11.1-7.7-12.1-6.7-6.5 6.6-14 13.9-16.5 22.3-3.3 11.1-3.3 25.6-19 20.9-13.5-4.1-25.1-14.4-37.5-21.9 10.4-5.1 20.9-10.4 31.4-15.4 9.1-4.4 18.4-8.6 27.6-12.8q42-11.3 84-22.5c2.5 13.8 4.8 27.7 7.4 41.5 25.5 131.8 33.2 164.6 166 121.2 9.9-3.2 19.6-7 29.3-10.5 32 24 28.2 61.5 35.7 94.8q-27.7 18.9-55.4 37.8z"/>
				<path id="&lt;Path&gt;" class="s69" d="m1164 2289.3q-31.4-11.7-62.8-23.3-72.5-37.1-145-74.2-107-99.8-214-199.6c46.1-6.3 96.5-3.1 137.5-21.1 63.8-28 99.2 26.9 149.1 36.1 25.9 4.7 51.1 13.3 76.7 20.1 9.9 51.2 18.2 102.8 30.2 153.6 7.8 32.5 21 63.7 31.9 95.5 1.8 5.3 6.8 11.1-3.6 12.9z"/>
				<path id="&lt;Path&gt;" class="s70" d="m742.2 1992.2q107 99.8 214 199.6c-15.1-8.3-30.6-16-45.2-25.1-33.5-20.7-54.7-60.1-98.6-65.1q-9.8-7.9-19.5-15.7c-57.3-57-116.4-112.7-144.6-191.7q1.4-4 2.8-8.1c42.2 25.2 59.3 72 91.1 106.1z"/>
				<path id="&lt;Path&gt;" class="s71" d="m651.1 1886.1q-1.4 4.1-2.8 8.1-37.1-38.5-74.2-77c-68.9-78.8-123.8-166.2-163.7-263q-3.9-15.3-7.8-30.7c68.6 125.9 163.7 233 247.8 347.9 2.4 3.3 0.5 9.8 0.7 14.7z"/>
				<path id="&lt;Path&gt;" class="s72" d="m1566.4 1812.5q0-2 0-3.9c60-61 111.6-128.8 159.7-199.3q21.8 41.1 43.6 82.2 2 11.6 3.9 23.2c-1.4 49.2-23.3 91.1-46.8 132.5q-21.5 43.3-43.1 86.5-2.2 9.7-4.4 19.3c-5.3-3-12.3-4.6-15.6-9-32.8-43.6-65-87.6-97.3-131.5z"/>
				<path id="&lt;Path&gt;" class="s73" d="m2886.3 2214.7c25.6-50.5 37.3-105 47.3-160 146.5-43.5 273.1-123.6 397.8-209.4 33.6-23 83.2-22.6 125.5-33-22.9 39-61.2 68.1-73.5 114q-0.3 1.6-0.6 3.3c-15 13.3-30.9 25.7-44.7 40.1-89.3 93.1-177.3 187.9-289.2 254.9-53.7 32.2-110.6 59-166.1 88.3q-23.7 9.5-47.4 18.9 25.4-58.6 50.9-117.1z"/>
				<path id="&lt;Path&gt;" class="s74" d="m3383.4 1926.3c12.3-45.9 50.6-75 73.5-114 81-98 166.3-192.6 234.7-300.4q7.6-2.3 15.2-4.6-15.7 29.2-31.5 58.5c-52.4 92.2-120.8 173-184 257.5q-53.9 51.5-107.9 103z"/>
				<path id="&lt;Path&gt;" class="s75" d="m2812.5 1878.9c-54.4 154.9-65.3 322.4-136.6 472.4-17 10.6-28.1 30.7-51 31.7-99.2-73.6-197.3-61.3-295.7 2.6-11.8 7.7-22.2 24.1-40.9 15.8q14.2-71.5 28.4-143 6.5-18 12.9-36.1c5.1 7.8 7.3 3.2 9.6-2.1 13.4-30.8 30.3-60.6 39.9-92.6 37.9-125.5 112.3-227.8 199.1-322.9 15.8-2 32.9 14.4 47.6-3.2 16.1 21.7-5.7 32.8-13.7 47.4-2.6 4.6-10.1 6.2-13.5 10.6-9 11.5-30.3 21.9-18.9 37.6 10 13.9 25.2 5.2 33-10.3 0.2-0.4 7.2 1.2 7.5 2.5 8.8 54 84.3 38.1 94.7 90.4 0.1 0.6 3.7 0.2 5.5 0.7 77.8 25.2 53.2-43.7 68.1-75.3 5.7-12 0.5-31.3 24-26.2z"/>
				<path id="&lt;Compound Path&gt;" fill-rule="evenodd" class="s76" d="m2812.5 1878.9c-23.5-5.1-18.3 14.2-24 26.2-14.9 31.6 9.7 100.5-68.1 75.3-1.8-0.5-5.4-0.1-5.5-0.7-10.4-52.3-85.9-36.4-94.7-90.4-0.3-1.3-7.3-2.9-7.5-2.5-7.8 15.5-23 24.2-33 10.3-11.4-15.7 9.9-26.1 18.9-37.6 3.4-4.4 10.9-6 13.5-10.6 8-14.6 29.8-25.7 13.7-47.4-14.7 17.6-31.8 1.2-47.6 3.2q60.5-74.3 121-148.5c34.5-8.5 51.5-37.8 69.9-63.1 40.7-56.2 70.1-118.8 96.2-183 3.3-8.1 11.8-14.1 17.9-21 1.1 9.2 3.1 18.5 3.3 27.8 0.5 16.2 0 32.4-0.1 48.6-22 128.6-44 257.2-66.2 385.8-1.6 9.4-5.1 18.4-7.7 27.6zm-145.7-170c-8.9 16.9-13.5 24.8-17.2 33.2-0.5 1.1 2.9 4 4.4 6.1 6.5-7.6 13.3-14.9 18.9-23 1.2-1.7-2.3-6.6-6.1-16.3z"/>
				<path id="&lt;Path&gt;" class="s77" d="m2624.9 2383c22.9-1 34-21.1 51-31.7q105.2-68.3 210.4-136.6-25.5 58.5-50.9 117.1-31.1 11.7-62.1 23.4-66 19.8-132.1 39.7-8.1-6-16.3-11.9z"/>
				<path id="&lt;Path&gt;" class="s78" d="m2371.1 1406.3q8-2.1 16-4.2c15.7 6.3 11.7 20.2 11.5 31.9-1.1 59.6-2.8 119.3-4.3 178.9-7 107.2-13.7 214.5-2.5 321.7 1.9 18.1 18.8 9.7 30.3 7.2-10.7 18.5-20.9 37.2-32.1 55.5-12.7 20.9-26.2 41.3-39.4 62q-17.2-35.5-34.4-71c-38.3-76.7-74.9-154.4-115.8-229.7-15.8-29.1-28-53.7-5.2-83.1q21.5-36.9 43.1-73.9c45.6-61.4 91.3-122.8 136.6-184.5 1.2-1.8-2.4-7.2-3.8-10.8z"/>
				<path id="&lt;Path&gt;" class="s79" d="m2585.5 1473.2c1.9-26.9 25.1-39.8 39.5-57.9 77-97.2 120.5-213.2 181.8-319.1 26.9-46.6 65.1-86.8 99.5-128.9 12.1-14.9 7.2 3.1 7.5 5.9 0.9 9 0.5 18.1 0.6 27.2-15.8 120.5-48.7 236.8-85.5 352.2-37.4 4.1-74.7 12.3-102.8 37.5-56 50.2-74.5 125.4-117.3 184.8q-11.6-50.9-23.3-101.7z"/>
				<path id="&lt;Path&gt;" class="s80" d="m2608.8 1574.9c42.8-59.4 61.3-134.6 117.3-184.8 28.1-25.2 65.4-33.4 102.8-37.5-36.5 99.7-112.9 174.7-164.2 265.3-11.1 19.7-23.5 38.8-35.3 58.1q-3.9 5.4-7.8 10.8-1.9-13.6-3.8-27.1-4.5-42.4-9-84.8z"/>
				<path id="&lt;Path&gt;" class="s81" d="m2316.2 1988.3q17.2 35.5 34.4 71c13.2-20.7 26.7-41.1 39.4-62 11.2-18.3 21.4-37 32.1-55.5q13.4-17.9 26.8-35.8c32.7-5.1 40.6-41.2 67.2-53.9-87.4 104.6-139.7 227-180 355.4-5.5-8.9-23.1-10.7-15.9-27.1-1.7 10.5-3.4 21-5.3 31.4-0.2 1.1-1.4 2.1-2.2 3.1q-2-33.3-4-66.7-17.8-89.3-35.6-178.7 1.4-2.2 2.8-4.4c0.4 0.4 1.1 0.7 1.1 1.2 2.9 25.3 21.5 22.8 39.2 22z"/>
				<path id="&lt;Path&gt;" class="s82" d="m2516.1 1852.1c-26.6 12.7-34.5 48.8-67.2 53.9 41.9-72.4 86.8-142.7 148.5-200.1 14.5-13.4 22.8-26.7 20.4-46.2q1.9 13.5 3.8 27.1c1.6 14.3-5.7 24-15.5 33.7-26.4 26.1-49.3 54.9-59.8 91.6q-15.1 20-30.2 40z"/>
				<path id="&lt;Path&gt;" class="s83" d="m1816 1093.6q84.2-195.3 168.4-390.5c14.3 28.2 25.6 56.7 35.2 87.5 22.7 73 14.1 148.6 31.2 221.2-2.6 6.7-6 13.2-7.7 20.1-7.6 31.9 2.8 66.8-15.8 97.1-30.1 39.1-40.4 85.9-50.8 132.6q-3.9 27.4-7.7 54.8-2 2-3.9 3.9c-9.3-28-18.3-56-27.8-83.9-4.4-13.2-9.7-26.1-14.6-39.1q-6.4 20.4-12.8 40.7c-22.8 102.6-49.2 204.2-92.6 300.5-1.8 4-3.8 7.9-5.7 11.9-1.3-1.7-3.3-3.3-3.9-5.2-23-89.1-46-178.3-68.9-267.4q38.7-92.1 77.4-184.2z"/>
				<path id="&lt;Path&gt;" class="s84" d="m1735.1 1298.7c1.5 3.5 2.7 5.2 3.1 7.2 13.9 70.2 27.7 140.5 41.4 210.8 0.5 2.5-1.3 5.4-2 8.1-1.9-1.4-4-2.6-5.7-4.3-49.2-48.2-68.3-148.9-40.8-214.8 0.7-1.7 1.8-3.2 4-7z"/>
				<path id="&lt;Path&gt;" class="s85" d="m1909.7 1238q6.4-20.3 12.8-40.7c4.9 13 10.2 25.9 14.6 39.1 9.5 27.9 18.5 55.9 27.8 83.9q0.2 1.9-0.2 3.8-29.2 41.1-58.3 82.2 1.6-84.1 3.3-168.3z"/>
				<path id="&lt;Path&gt;" class="s86" d="m1906.4 1406.3q29.1-41.1 58.3-82.2 0.2 11.5 0.5 22.9-0.2 2.3-0.4 4.6-7.8 3.8-15.6 7.7c-41.8 82.9-82.8 166.3-125.6 248.7-18.2 34.9-20.7 77.1-50 106.7q-1.9-11.6-3.9-23.2 68.3-142.6 136.7-285.2z"/>
				<path id="&lt;Path&gt;" class="s87" d="m1199.2 1445.4q-5.8-13.7-11.6-27.5-2.1-19.4-4.2-38.9-3.8-44.9-7.6-89.9 17.6-11.9 35.2-23.7 17.3 58.8 34.6 117.5c-47.4-2.9-24.8 46.2-46.4 62.5z"/>
				<path id="&lt;Path&gt;" class="s88" d="m2773.3 2355.2q31-11.7 62.1-23.4 23.7-9.4 47.4-18.9 15.3-4.6 30.6-9.1 7.4 0.2 14.7 0.3-1.2-3.6-2.4-7.3c98.3-44.2 196.8-89.1 277.8-161.6 40.3-36.1 110.9-19.9 133.4-83.1 6.1-17.2 17.9-32.3 27.1-48.3q-17.5 41.6-35 83.3c-25.7 37.2-52 73.9-76.9 111.6-51.9 78.5-115.5 146-189.6 203.7-8.5-1.1-5.9-5.3-7-12.2-3.8-22.2-4.6-54.7-35.8-53.1-58.8 2.9-119.8-4.5-173.9 31.7-24.5 16.4-57.7 39.2-72.5-13.6z"/>
				<path id="&lt;Path&gt;" class="s89" d="m2913.4 2303.8q-15.3 4.5-30.6 9.1c55.5-29.3 112.4-56.1 166.1-88.3 111.9-67 199.9-161.8 289.2-254.9 13.8-14.4 29.7-26.8 44.7-40.1q13.5 7.4 27.1 14.8-23 29.7-45.9 59.4c-9.2 16-21 31.1-27.1 48.3-22.5 63.2-93.1 47-133.4 83.1-81 72.5-179.5 117.4-277.8 161.6q-6.1 3.5-12.3 7z"/>
				<path id="&lt;Path&gt;" class="s90" d="m3409.9 1944.4q-13.6-7.4-27.1-14.8 0.3-1.7 0.6-3.3 53.9-51.5 107.9-103 8.3 2.4 16.5 4.8-37.1 46.8-74.3 93.5-11.8 11.4-23.6 22.8z"/>
				<path id="&lt;Path&gt;" class="s91" d="m2516.1 1852.1q15.1-20 30.2-40 76.6-85.7 153.2-171.3-0.2 7.7-0.3 15.4-60.5 74.2-121 148.5c-86.8 95.1-161.2 197.4-199.1 322.9-9.6 32-26.5 61.8-39.9 92.6-2.3 5.3-4.5 9.9-9.6 2.1q3.3-7.4 6.5-14.8c40.3-128.4 92.6-250.8 180-355.4z"/>
				<path id="&lt;Path&gt;" class="s92" d="m2699.5 1640.8q-76.6 85.6-153.2 171.3c10.5-36.7 33.4-65.5 59.8-91.6 9.8-9.7 17.1-19.4 15.5-33.7q3.9-5.4 7.8-10.8c-0.8 14.6 5.1 7.9 9.6 2.8 22.7-25.8 45.2-51.7 67.7-77.6q0.4 12.1 0.7 24.3-3.9 7.7-7.9 15.3z"/>
				<path id="&lt;Path&gt;" class="s93" d="m2707.4 1625.5q-0.3-12.2-0.7-24.3 16.8-17.6 33.5-35.2c-6.5 14.4-12.5 29.1-19.7 43.2-3.1 6-8.7 10.9-13.1 16.3z"/>
				<path id="&lt;Path&gt;" class="s94" d="m2050.8 1011.8c-17.1-72.6-8.5-148.2-31.2-221.2-9.6-30.8-20.9-59.3-35.2-87.5q15.5-45.1 31-90.2 29.3 68.7 58.5 137.4 2.4 11.6 4.8 23.1 15.2 64.7 30.5 129.4 2.1 7.6 4.1 15.2c27.3 126.5 96.1 235.6 148.4 351.6 2.5 55.9-24.5 104.6-38.8 156.4-97.9-121.2-150.9-261.2-172.1-414.2z"/>
				<path id="&lt;Path&gt;" class="s95" d="m2050.8 1011.8c21.2 153 74.2 293 172.1 414.2-8.6 41.2-19.5 81.5-41.9 117.8-11.7-34.7-22.9-69.5-35.3-103.9-7.3-20.6-16.5-40.6-24.8-60.8q-13.9-34.7-27.7-69.5-1.9-4.3-3.8-8.6-10.7-33.1-21.4-66.1-5 3.4-10.1 6.7c-18.6-35.2-25.6-73.7-30.6-112.6 18.6-30.3 8.2-65.2 15.8-97.1 1.7-6.9 5.1-13.4 7.7-20.1z"/>
				<path id="&lt;Path&gt;" class="s96" d="m2093.2 1309.6q13.8 34.8 27.7 69.5 25.5 101.5 51 202.9-17.7 29.5-35.5 59.1c-5.2-13.1-13.7-25.9-15.1-39.4-10.1-97.3-18.9-194.7-28.1-292.1z"/>
				<path id="&lt;Path&gt;" class="s97" d="m2316.2 1988.3c-17.7 0.8-36.3 3.3-39.2-22 0-0.5-0.7-0.8-1.1-1.2q-1.4 2.2-2.8 4.4-66.4-152.4-132.7-304.9 1.1-6.3 2.2-12.7c4.6 4.1 8.9 8.4 13.7 12.1 8 6.3 16.4 12.2 24.5 18.3q3.4-13.1 6.8-26.2 3.8 9.7 7.6 19.5c-22.8 29.3-10.6 53.9 5.2 83 40.9 75.3 77.5 153 115.8 229.7z"/>
				<path id="&lt;Path&gt;" class="s98" d="m2371.1 1406.3c1.4 3.6 5 9 3.8 10.8-45.3 61.7-91 123.1-136.6 184.5 42.6-85.1 90.8-168.2 99.6-265.9 0.7-7.8 1.4-15.5 2-23.2q1.9 0 3.8 0.1c4.2 32.6 9.4 65 27.4 93.7z"/>
				<path id="&lt;Path&gt;" class="s99" d="m2187.6 1656.1q-3.4 13.1-6.8 26.2c-8.1-6.1-16.5-12-24.5-18.3-4.8-3.7-9.1-8-13.7-12.1q-1.1 6.4-2.2 12.7-2-2.2-3.9-4.4-0.1-9.6-0.1-19.1 17.8-29.6 35.5-59.1 7.9 37 15.7 74.1z"/>
				<path id="&lt;Path&gt;" class="s100" d="m1566.4 1812.5c32.3 43.9 64.5 87.9 97.3 131.5 3.3 4.4 10.3 6 15.7 9q-15.6 64.7-31.2 129.4-1.6-0.7-3.2-1c-22.5-88-65.4-166.9-110.2-244.9q15.8-12 31.6-24z"/>
				<path id="&lt;Path&gt;" class="s101" d="m1534.8 1836.5c44.8 78 87.7 156.9 110.2 244.9 2.6 15.9 5.4 31.7 7.9 47.6 0.6 3.9 0.3 8 0.4 12-1.9-3.1-4.8-6-5.6-9.4-47-200-172.2-356.3-288.4-517.9-34.4-47.8-77.4-92.6-82.1-156.6 25.3 59.9 66.6 109.3 106.1 159.8q21 27.6 42.1 55.3 54.7 82.1 109.4 164.3z"/>
				<path id="&lt;Path&gt;" class="s102" d="m1425.4 1672.2q-21.1-27.7-42.1-55.3 17.5-86.1 35.1-172.1 1.7-1.7 3.4-3.5c3.9 3.9 11.8 8.7 11.2 11.4-17.5 72.7-18.7 145.8-7.6 219.5z"/>
				<path id="&lt;Path&gt;" class="s103" d="m3507.8 1828.1q-8.2-2.4-16.5-4.8c63.2-84.5 131.6-165.3 184-257.5-17 56.3-59.2 98.2-85.8 149q-40.8 56.7-81.7 113.3z"/>
				<path id="&lt;Path&gt;" class="s104" d="m2773.3 2355.2c14.8 52.8 48 30 72.5 13.6 54.1-36.2 115.1-28.8 173.9-31.7 31.2-1.6 32 30.9 35.8 53.1 1.1 6.9-1.5 11.1 7 12.2q-56.6 41-113.3 82-66.4 37.1-132.8 74.2c-9.7 3.5-19.4 7.3-29.3 10.5-132.8 43.4-140.5 10.6-166-121.2-2.6-13.8-4.9-27.7-7.4-41.5q13.8-5.8 27.5-11.5 66.1-19.9 132.1-39.7z"/>
				<path id="&lt;Path&gt;" class="s56" d="m1378.9 2886.7q-21.6-1.9-43.2-3.8 21.6 1.9 43.2 3.8z"/>
				<path id="&lt;Path&gt;" class="s105" d="m1418.4 1444.8q-17.6 86-35.1 172.1c-39.5-50.5-80.8-99.9-106.1-159.8q-15.8-37.1-31.6-74.2-17.3-58.7-34.6-117.5c-24.5-107.7-53-214.8-42.7-327.1 24.5 53.3 48.7 106.8 73.4 160 21.8 46.9 44.1 93.5 66.2 140.2 31.8 71.5 65.8 141.8 110.5 206.3z"/>
				<path id="&lt;Path&gt;" class="s21" d="m2109.2 902.8q-15.3-64.7-30.5-129.4c19.3 41 41.5 81.2 30.5 129.4z"/>
				<path id="&lt;Path&gt;" class="s106" d="m2495.5 2878.4c154.7-19.4 309.3-38.6 465.6-38.5 14.6 16.6 47-16.8 54.7 19.4-39.9-25.4-83.3-9.6-124.9-9.2-132.2 1.3-263.2 16.6-393.7 36.4-5.2 0.8-11-2.2-16.5-3.3q7.4-2.4 14.8-4.8z"/>
				<path id="&lt;Path&gt;" class="s107" d="m2019.7 3160.9c-39.8 6.8-70.8-26.2-109.5-24.3q-31.4-13.4-62.9-26.7c-104.7-79.7-193.1-174-257.5-289.5-7-10.1-14.9-19.7-20.7-30.5-35.2-65.3 6.2-73.3 56.3-75 23.3-0.8 46.6-2.6 69.9-4-14.4 13.6-68.8-14.2-36.8 48.3 48 93.8 116.6 136 198.7 104 53.8-21 94.3-61.6 143-89.8 0 104.3-1.3 208.7 1.1 313.1 0.5 24.8-6.3 54.4 18.4 74.4z"/>
				<path id="&lt;Path&gt;" class="s108" d="m2000.2 2773.4c-48.7 28.2-89.2 68.8-143 89.8-82.1 32-150.7-10.2-198.7-104-32-62.5 22.4-34.7 36.8-48.3q3.9 0 7.8 0c40.3 15 79.2 2.7 113.1-14.9 64.2-33.3 125.1-72.9 187.4-109.9q0.4 29.1 0.8 58.3-0.5 23.3-1 46.5-1.6 41.2-3.2 82.5z"/>
				<path id="&lt;Path&gt;" class="s109" d="m1648.2 2082.4q15.6-64.7 31.2-129.4 2.1-9.6 4.3-19.3 2.2 4.2 4.3 8.3c-5.8 61.4-9.5 122.7 3 183.7 7.3 38.9 13.1 78.2 22.2 116.6 32.7 138 109.1 256.7 169.8 382.4 1.5 14.5-11.5 17-19.5 23.8-15.9-41.7-45.7-72.8-78.3-101.7q-13.7-11.5-27.4-23c5.3-49.4-15.3-94.5-22.9-141.7-19.5-102.6-52.9-201.2-86.7-299.7z"/>
				<path id="&lt;Path&gt;" class="s110" d="m1589.8 2820.4c64.4 115.5 152.8 209.8 257.5 289.5q-44.7-10-89.5-20-17.6-9.5-35.2-19c-38.1-33-68.7-72.3-90-117.6-14-29.6-38.3-39.6-66.4-46.6q-3.8-2.2-7.6-4.4c-14.1-14.4 2.5-23.5 8.7-21.9 61.2 16.1 18.7-25.2 22.5-40.1 1.6-6.2 0.1-13.2 0-19.9z"/>
				<path id="&lt;Path&gt;" class="s111" d="m1863.5 2648.5c8-6.8 21-9.3 19.5-23.8 39.4-2.7 61.3-36.2 93-52.5 8.6-4.4 16.9-9.3 25.2-13.9q1.2 13.9 2.4 27.8c-62.3 37-123.2 76.6-187.4 109.9-33.9 17.6-72.8 29.9-113.1 14.9 56.9-12.1 111.1-31 160.4-62.4z"/>
				<path id="&lt;Path&gt;" class="s112" d="m2529.7 2428.9c-9.2 4.2-18.5 8.4-27.6 12.8-10.5 5-21 10.3-31.4 15.4 12.4 7.5 24 17.8 37.5 21.9 15.7 4.7 15.7-9.8 19-20.9 2.5-8.4 10-15.7 16.5-22.3 1-1 11.9 4 12.1 6.7 0.5 7.5-0.2 16.6-4.1 22.7-6.9 10.9 0.6 13.5 7.3 14.6 57.5 9.6 47.4 53 48.1 92.6 1.1 67.1 4 134.1 6.2 201.2-64.9 53.1-120.2 4.4-179.1-15.8-96.9-33.2-172.4-84.2-182.2-197.5-0.9-10.2 1.7-15.1 8.7-21.2 3.2-2.8 18.6 0.6 8.5-12 82.8-43.5 170-75.1 260.5-98.2z"/>
				<path id="&lt;Path&gt;" class="s113" d="m2003.4 2690.9q0.5-23.2 1-46.5 1.7-31.2 3.4-62.4c53 32.8 105.2 67 159.3 97.9 69.2 39.7 141.5 72 223.4 74.3 23.6-0.4 32.9 6.1 20.2 31.5-17.7 35.3-32.1 72.3-48 108.5-44.4-3.8-88.9-10.4-133.4-10.8-71.5-0.6-132.6-15.6-168.9-86.1-14.6-28.3-37-52.7-55.9-78.9q-0.5-13.7-1.1-27.5z"/>
				<path id="&lt;Path&gt;" class="s114" d="m2003.4 2690.9q0.6 13.8 1.1 27.5c-12.2 62.1 37.6 97.8 62 144 47.3 89.6 110.1 157.8 223.4 149.7-69.3 87.2-168.6 120.2-270.2 148.8-24.7-20-17.9-49.6-18.4-74.4-2.4-104.4-1.1-208.8-1.1-313.1q1.6-41.3 3.2-82.5z"/>
				<path id="&lt;Path&gt;" class="s115" d="m2529.7 2428.9c-90.5 23.1-177.7 54.7-260.5 98.2q-7.7 4.1-15.3 8.2 17.2-66.9 34.4-133.9c18.7 8.3 29.1-8.1 40.9-15.8 98.4-63.9 196.5-76.2 295.7-2.6q8.2 5.9 16.3 11.9-13.7 5.7-27.5 11.5-42 11.2-84 22.5z"/>
				<path id="&lt;Path&gt;" class="s116" d="m2289.9 3012.1c-113.3 8.1-176.1-60.1-223.4-149.7-24.4-46.2-74.2-81.9-62-144 18.9 26.2 41.3 50.6 55.9 78.9 36.3 70.5 97.4 85.5 168.9 86.1 44.5 0.4 89 7 133.4 10.8-18.6 42.8-40.2 83.7-72.8 117.9z"/>
				<path id="&lt;Path&gt;" class="s117" d="m2288.3 2401.4q-17.2 67-34.4 133.9c-40.9 31.1-79.3 64.2-93.6 116.7q-17.4-11.7-34.9-23.4c2.3-41.1 27.5-73 42.8-108.9q69.6-141 139.1-282 4.7 10.4 9.4 20.7-14.2 71.5-28.4 143z"/>
				<path id="&lt;Path&gt;" class="s118" d="m2125.4 2628.6q17.5 11.7 34.9 23.4c69.4 50.5 145.7 85.7 230.2 102.2-81.9-2.3-154.2-34.6-223.4-74.3-54.1-30.9-106.3-65.1-159.3-97.9q0.3-13.5 0.5-27.1 23.3 13.5 46.5 27.1 35.3 23.3 70.6 46.6z"/>
				<path id="&lt;Path&gt;" class="s119" d="m1757.8 3089.9q44.8 10 89.5 20 31.5 13.3 62.9 26.7c40 20.3 80.7 39.8 98.1 85.9-76-37.2-152.1-74.2-227.8-112-8.8-4.4-15.2-13.6-22.7-20.6z"/>
				<path id="&lt;Path&gt;" class="s75" d="m1648.2 2082.4c33.8 98.5 67.2 197.1 86.7 299.7-14.9 16.4-24.1-2.2-32.9-7.3-84.7-50-170.2-89.3-268.3-35.1-87.3-243.4-180.3-485-207.7-745.3-5.2-50-17.7-99.3-26.8-149 21.6-16.3-1-65.4 46.4-62.5q15.8 37.1 31.6 74.2c4.7 64 47.7 108.8 82.1 156.6 116.2 161.6 241.4 317.9 288.4 517.9 0.8 3.4 3.7 6.3 5.6 9.4-0.1-4 0.2-8.1-0.4-12-2.5-15.9-5.3-31.7-7.9-47.6q1.6 0.3 3.2 1z"/>
				<path id="&lt;Path&gt;" class="s120" d="m812.4 2101.6c43.9 5 65.1 44.4 98.6 65.1 14.6 9.1 30.1 16.8 45.2 25.1q72.5 37.1 145 74.2c-73.7-14-137.4-50.2-197.9-92-31.8-21.9-60.7-48.1-90.9-72.4z"/>
				<path id="&lt;Path&gt;" class="s121" d="m1691 2125.7c-12.5-61-8.8-122.3-3-183.7q19.4-47.4 38.8-94.8c23.5-41.4 45.4-83.3 46.8-132.5 29.3-29.6 31.8-71.8 50-106.7 42.8-82.4 83.8-165.8 125.6-248.7 25.3 8 18.8 29 12.7 43-43 97.1-90.2 192.4-131.7 290.1-59.4 140.1-118.3 280.7-139.2 433.3z"/>
				<path id="&lt;Path&gt;" class="s122" d="m1726.8 1847.2q-19.4 47.4-38.8 94.8-2.1-4.1-4.3-8.3 21.6-43.2 43.1-86.5z"/>
				<path id="&lt;Path&gt;" class="s123" d="m2316.7 2258.4q-4.7-10.3-9.4-20.7 2.7-11.4 5.4-22.8c0.8-1 2-2 2.2-3.1 1.9-10.4 3.6-20.9 5.3-31.4-7.2 16.4 10.4 18.2 15.9 27.1q-3.2 7.4-6.5 14.8-6.4 18.1-12.9 36.1z"/>
				<path id="&lt;Path&gt;" class="s75" d="m2666.8 1708.9c3.8 9.7 7.3 14.6 6.1 16.3-5.6 8.1-12.4 15.4-18.9 23-1.5-2.1-4.9-5-4.4-6.1 3.7-8.4 8.3-16.3 17.2-33.2z"/>
				<path id="&lt;Path&gt;" class="s75" d="m2312.7 2214.9q-2.7 11.4-5.4 22.8-69.5 141-139.1 282-56.7 31.1-113.4 62.3-23.2-13.6-46.5-27.1c-26.3-209.1-25.5-419.3-27.8-629.5-1.5-133.2-1.7-266.4-4.5-399.6-1.2-58.1-7.3-116.2-11.2-174.2q0.2-2.3 0.4-4.6c22.8-9 32.9 2.2 39.1 23 27.6 93.1 54.4 186.4 84 278.9 56 174.8 193.3 316 210.7 507.1 0.3 3 4.5 5.6 6.9 8.4q1.4-8.1 2.8-16.2 2 33.4 4 66.7z"/>
				<path id="&lt;Path&gt;" class="s124" d="m2308.7 2148.2q-1.4 8.1-2.8 16.2c-2.4-2.8-6.6-5.4-6.9-8.4-17.4-191.1-154.7-332.3-210.7-507.1-29.6-92.5-56.4-185.8-84-278.9-6.2-20.8-16.3-32-39.1-23q-0.3-11.4-0.5-22.9 0.4-1.9 0.2-3.8 1.9-1.9 3.9-3.9 9.6 4.2 19.2 8.3 9.9 17.3 19.9 34.6 13.5 31.4 27.1 62.9c29.4 81.2 55.1 164 101.5 238q1.9 2.2 3.9 4.4 66.3 152.5 132.7 304.9 17.8 89.4 35.6 178.7z"/>
				<path id="&lt;Path&gt;" class="s125" d="m2007.9 1359.3q-10-17.3-19.9-34.6-5.7-31.5-11.5-63.1c10.4-46.7 20.7-93.5 50.8-132.6 5 38.9 12 77.4 30.6 112.6-16.4 39.4-20.5 83.9-50 117.7z"/>
				<path id="&lt;Path&gt;" class="s126" d="m1976.5 1261.6q5.8 31.6 11.5 63.1-9.6-4.1-19.2-8.3 3.8-27.4 7.7-54.8z"/>
				<path id="&lt;Path&gt;" class="s127" d="m1964.8 1351.6c3.9 58 10 116.1 11.2 174.2 2.8 133.2 3 266.4 4.5 399.6 2.3 210.2 1.5 420.4 27.8 629.5q-0.2 13.6-0.5 27.1-1.7 31.2-3.4 62.4-0.4-29.2-0.8-58.3-1.2-13.9-2.4-27.8c-8.3 4.6-16.6 9.5-25.2 13.9-31.7 16.3-53.6 49.8-93 52.5-60.7-125.7-137.1-244.4-169.8-382.4-9.1-38.4-14.9-77.7-22.2-116.6 20.9-152.6 79.8-293.2 139.2-433.3 41.5-97.7 88.7-193 131.7-290.1 6.1-14 12.6-35-12.7-43q7.8-3.9 15.6-7.7z"/>
				<path id="&lt;Path&gt;" class="s104" d="m2913.4 2303.8q6.2-3.5 12.3-7 1.2 3.7 2.4 7.3-7.3-0.1-14.7-0.3z"/>
				<path id="&lt;Path&gt;" class="s128" d="m2136.5 1660.2c-46.4-74-72.1-156.8-101.5-238q27.2-60.6 54.4-121.2 1.9 4.3 3.8 8.6c9.2 97.4 18 194.8 28.1 292.1 1.4 13.5 9.9 26.3 15.1 39.4q0 9.5 0.1 19.1z"/>
				<path id="&lt;Path&gt;" class="s129" d="m2089.4 1301q-27.2 60.6-54.4 121.2-13.6-31.5-27.1-62.9c29.5-33.8 33.6-78.3 50-117.7q5.1-3.3 10.1-6.7 10.7 33 21.4 66.1z"/>
				<path id="&lt;Path&gt;" class="s130" d="m2054.8 2582q56.7-31.2 113.4-62.3c-15.3 35.9-40.5 67.8-42.8 108.9q-35.3-23.3-70.6-46.6z"/>
			</g>
		</g>
	</g>
	<g id="Layer 1 copy 2">
		<g id="&lt;Clip Group&gt;" clip-path="url(#cp2)">
			<g id="&lt;Group&gt;">
				<path id="&lt;Path&gt;" class="s0" d="m445.9 2253.5c195.7 121.9 398.1 231.6 603.6 335.9 46.6 23.7 97.2 39.6 146 59.1q21.8 7.4 43.6 14.9c1 2.8 1.2 7 3.2 8.3 57.8 39 116 77.5 173.7 116.7 16.5 11.1 35.3 23 32.6 46.6-2 18.2-10 34.6-30.6 39.8q-5.9 0.1-11.8 0.2-148.7-17.4-297.4-34.8c0.3-0.6 0.7-1.2 0.8-1.8 0-0.5-0.3-1.4-0.8-1.6-108.5-48.2-212.8-104.6-315-164.8-137.5-118-267.8-243.2-384.4-382.2q18.3-18.1 36.5-36.3z"/>
				<path id="&lt;Path&gt;" class="s1" d="m3321.7 2828.4c-49.5 73.4-115.8 128.7-188.4 177.6-289.8 195.1-605.2 306.4-958.8 290.9-56.1-2.4-111.4-9.9-161.5-38.5q-2.6-2.3-5.2-4.5 1.9-13.6 3.9-27.1c58.3-0.3 101.5-36.1 148.2-63.5 8.4 14.3 22.6 9.9 33.4 7.7 163.6-33.1 327-67 490.4-100.8 9.6-1.2 19.7-0.8 28.6-3.9 195.2-67.8 391.1-133.8 572.9-234.3q18.2-1.8 36.5-3.6z"/>
				<path id="&lt;Path&gt;" class="s2" d="m2007.8 3253.9q2.6 2.2 5.2 4.5c-44.1 35.1-97.7 45.7-150.5 45.2-393.2-3.7-746.5-120.9-1048.3-378.2-34.2-29.2-61-67.2-91.2-101.1q11.4 0.1 22.8 0.2 9.9 3.7 19.8 7.4c14.4 8.7 28.9 17.1 43 26.1 144.8 92.1 304.5 151 464.8 208.4 84.5 35.2 173.1 56.8 261.8 78.1q236.3 54.7 472.6 109.4z"/>
				<path id="&lt;Path&gt;" class="s3" d="m1239.1 2663.4q-21.8-7.5-43.6-14.9 4.6-0.4 9.2-0.8c-1.9-2.7-3.3-6-5.8-8.1-19.5-17.5-39.1-34.8-58.8-52.1 7.4-22.8 14.5-45.6 35.7-60.2 98.9 40.3 185.2 45.5 194.8-57 3.7-40.1-10.7-73.2-26.8-107 25.2-18.1 56.8 8.1 81.8-11.7q7.7 6 15.5 12 8.3 15.2 16.5 30.3c-6.2-1.5-12.4-3.2-18.7-4.7-8-1.8-16-3.4-24.1-5.1 7.3 3.2 14.4 6.8 21.8 9.6 72 27.5 144.1 55 216.1 82.5 43.7 21.1 87.7 41.6 124.4 74.5-121.1 137.3-334.8 230.5-538 112.7z"/>
				<path id="&lt;Path&gt;" class="s4" d="m2870.7 2640.3c52.4-2.2 98.4-25.9 142.9-49 215.2-111.8 430.5-223.5 639.1-347.6 24.8-14.8 53.8-22.4 80.8-33.4q6.1 3.7 12.1 7.3c-5.4 7.6-9.5 16.8-16.5 22.5-35.8 29.6-77.1 54-107.9 88-103.1 113.8-217.6 215.2-332.6 316.1-84.8-30.5-151.9 24.3-225.3 47.4-102.8 32.4-203.8 77.8-313.6 26.9q23.5-13.7 47-27.3 27.7-18.9 55.4-37.8 7.6-6.3 15.2-12.5 1.7-0.4 3.4-0.6z"/>
				<path id="&lt;Path&gt;" class="s5" d="m402.2 1504c220.6 143.9 441.2 287.9 662.1 431.7 13.4 8.7 28.4 15 42.7 22.4 1-15.1 2-30.3 3.2-45.5 0.7-9 1.7-18 2.5-27q-3.6 70.8-7.2 141.7c-25.6-6.8-50.8-15.4-76.7-20.1-49.9-9.2-85.3-64.1-149.1-36.1-41 18-91.4 14.8-137.5 21.1-31.8-34.1-48.9-80.9-91.1-106.1-0.2-4.9 1.7-11.4-0.7-14.7-84.1-114.9-179.2-222-247.8-347.9-3.4-6.4-10.9-12.8-0.4-19.5z"/>
				<path id="&lt;Path&gt;" class="s6" d="m1465 1062.4c32.6 27.5 32.6 71.9 54.1 105.1q7.9 27.8 15.8 55.5c13.8 37.8 27.4 75.6 41.4 113.3 36.5 98.3 109.1 176.9 149.8 273-48.1 70.5-99.7 138.3-159.7 199.3-79.2-115.4-121.1-245.7-114.1-383 6.2-121.1 3.5-242.4 12.7-363.2z"/>
				<path id="&lt;Path&gt;" class="s7" d="m2942.1 1962q378.5-235 757.1-469.9-3.8 9.9-7.6 19.8c-68.4 107.8-153.7 202.4-234.7 300.4-42.3 10.4-91.9 10-125.5 33-124.7 85.8-251.3 165.9-397.8 209.4q4.3-46.4 8.5-92.7z"/>
				<path id="&lt;Path&gt;" class="s8" d="m2942.1 1962q-4.2 46.3-8.5 92.7c-10 55-21.7 109.5-47.3 160q-105.2 68.3-210.4 136.6c71.3-150 82.2-317.5 136.6-472.4 2.6-9.2 6.1-18.2 7.7-27.6 22.2-128.6 44.2-257.2 66.2-385.8q1.8 15.4 3.7 30.7c2.8 29.6 4.4 59.5 8.6 88.9 13.5 93.9 27.9 187.6 42 281.4-4.5 31.9-7 63.8 1.4 95.5z"/>
				<path id="&lt;Path&gt;" class="s9" d="m2558.7 1105.8c10.9-10.8 15.6-6.1 16 6.8 2.6 73.6 4.9 147.1 7.6 220.7 0.2 7.4 2.2 14.7 3.4 22-15.3 39.3-5.3 78.6-0.2 117.9q11.7 50.8 23.3 101.7 4.5 42.4 9 84.8c2.4 19.5-5.9 32.8-20.4 46.2-61.7 57.4-106.6 127.7-148.5 200.1q-13.4 17.9-26.8 35.8c-11.5 2.5-28.4 10.9-30.3-7.2-11.2-107.2-4.5-214.5 2.5-321.7 0.1 11.1 0.5 22.1 0.2 33.2-0.5 19.5 9.9 25.6 22.8 12.5 12.2-12.5 22-29.5 27.2-46.3 51.4-165.8 98.1-332.7 114.2-506.5z"/>
				<path id="&lt;Compound Path&gt;" fill-rule="evenodd" class="s10" d="m1726.1 1609.3c-40.7-96.1-113.3-174.7-149.8-273-14-37.7-27.6-75.5-41.4-113.3q19.6-99.7 39.2-199.5 37.3 122.8 74.7 245.7c1.8 5.4 3.5 10.9 5.5 16.3 7.4 19.6 14.9 39.3 22.3 58.9 8.2-19.8 16.7-39.6 24.5-59.6 6.4-16.7 11.8-33.8 17.7-50.7q9.9 21.9 19.8 43.7c22.9 89.1 45.9 178.3 68.9 267.4 0.6 1.9 2.6 3.5 3.9 5.2 1.9-4 3.9-7.9 5.7-11.9 43.4-96.3 69.8-197.9 92.6-300.5q-1.7 84.2-3.3 168.3-68.4 142.6-136.7 285.2-21.8-41.1-43.6-82.2zm9-310.6c-2.2 3.8-3.3 5.3-4 7-27.5 65.9-8.4 166.6 40.8 214.8 1.7 1.7 3.8 2.9 5.7 4.3 0.7-2.7 2.5-5.6 2-8.1-13.7-70.3-27.5-140.6-41.4-210.8-0.4-2-1.6-3.7-3.1-7.2z"/>
				<path id="&lt;Path&gt;" class="s11" d="m793.8 2672c102.2 60.2 206.5 116.6 315 164.8 0.5 0.2 0.8 1.1 0.8 1.6-0.1 0.6-0.5 1.2-0.8 1.8-112.1-7.9-225.1-8.6-334.4-40-177.3-159.6-317.1-350.5-452.9-544.6-0.2-0.2 1.3-1.7 2-2.7 68.9 71.6 138.3 142.7 206.6 214.9 77.5 81.7 165.1 149.9 263.7 204.2z"/>
				<path id="&lt;Path&gt;" class="s12" d="m808.1 2309.6c-131.9-119.4-212.1-273.6-289-430 37.3 33.1 40.6 0.7 47.1-24.7 3.1-12.4 5.3-25.1 7.9-37.7q37.1 38.5 74.2 77c28.2 79 87.3 134.7 144.6 191.7q-15.8 0.5-31.6 1c3.1 10.7 3.8 22.9 9.5 32 32.8 51.9 66.7 103.1 100.3 154.5q-31.5 18.1-63 36.2z"/>
				<path id="&lt;Path&gt;" class="s13" d="m1112.6 1852.7c-36.6-121.3-26.7-245.7-25.8-369.6 1.2-164.8 19.9-328.1 38.4-491.4 0.6-5.1 2.6-10 3.9-15q23.3 156.2 46.7 312.4 3.8 45 7.6 89.9-35.4 236.9-70.8 473.7z"/>
				<path id="&lt;Path&gt;" class="s14" d="m3504.6 1988.4c-103.1 188-240.5 344.7-421.9 461.1 3.7-5.3 7.1-10.8 11.2-15.7 89.4-108.1 176.1-217.9 235.1-346.7q17.5-41.7 35-83.3 22.9-29.7 45.9-59.4 11.8-11.4 23.6-22.8c24.1 2.7 41.2 13.4 38.7 40.2-2.6 27 4.6 38.4 32.4 26.6z"/>
				<path id="&lt;Path&gt;" class="s15" d="m2940.7 1866.5c-14.1-93.8-28.5-187.5-42-281.4-4.2-29.4-5.8-59.3-8.6-88.9 1.5-54.4-0.1-109.1 5.1-163.2 10.8-113.7 25.1-227 38-340.4 29 252.9 40 506.5 27.4 760.8-1.9 37.9-13 75.4-19.9 113.1z"/>
				<path id="&lt;Path&gt;" class="s16" d="m3492.1 2572.9c-65.2 84.5-134.4 165.2-219.2 231.2-82 28.9-168.6 21.8-252.9 32.5q-16-1.4-32-2.8c9.4-7.2 18-15.8 28.2-21.5 80.5-44 161.2-87.5 241.9-131.2q68.2-43.7 136.3-87.4c17 8.9 34.5 8.3 51.6 1.3 15.7-6.5 30.8-14.7 46.1-22.1z"/>
				<path id="&lt;Path&gt;" class="s17" d="m2558.7 1105.8c-16.1 173.8-62.8 340.7-114.2 506.5-5.2 16.8-15 33.8-27.2 46.3-12.9 13.1-23.3 7-22.8-12.5 0.3-11.1-0.1-22.1-0.2-33.2 1.5-59.6 3.2-119.3 4.3-178.9 0.2-11.7 4.2-25.6-11.5-31.9 1.6-6.3 1.7-13.5 4.9-18.9 25.3-43.3 51.1-86.2 76.8-129.3q17.7-31.3 35.5-62.6 27.2-42.7 54.4-85.5z"/>
				<path id="&lt;Path&gt;" class="s18" d="m1112.6 1852.7q35.4-236.8 70.8-473.7 2.1 19.5 4.2 38.9c-5.9 53.4-7.5 107.6-18.4 159.8-40.1 191.5-54 381 9 571.6 21.5 64.9 42 117.1 118.1 133 47.6 9.9 91.5 36.3 129.3 69.3-25 19.8-56.6-6.4-81.8 11.7q-89.9-37-179.8-74c10.4-1.8 5.4-7.6 3.6-12.9-10.9-31.8-24.1-63-31.9-95.5-12-50.8-20.3-102.4-30.2-153.6q3.6-70.9 7.2-141.7-0.1-16.5-0.1-32.9z"/>
				<path id="&lt;Path&gt;" class="s19" d="m2933.2 992.6c-12.9 113.4-27.2 226.7-38 340.4-5.2 54.1-3.6 108.8-5.1 163.2q-1.9-15.3-3.7-30.7c0.1-16.2 0.6-32.4 0.1-48.6-0.2-9.3-2.2-18.6-3.3-27.8-6.1 6.9-14.6 12.9-17.9 21-26.1 64.2-55.5 126.8-96.2 183-18.4 25.3-35.4 54.6-69.9 63.1q0.1-7.7 0.3-15.4 4-7.6 7.9-15.3c4.4-5.4 10-10.3 13.1-16.3 7.2-14.1 13.2-28.8 19.7-43.2q-16.7 17.6-33.5 35.2c-22.5 25.9-45 51.8-67.7 77.6-4.5 5.1-10.4 11.8-9.6-2.8 11.8-19.3 24.2-38.4 35.3-58.1 51.3-90.6 127.7-165.6 164.2-265.3 36.8-115.4 69.7-231.7 85.5-352.2q2.1-33.7 4.3-67.4 7.2 29.8 14.5 59.6z"/>
				<path id="&lt;Path&gt;" class="s20" d="m1738.6 1277.8q-9.9-21.8-19.8-43.7c-5.9 16.9-11.3 34-17.7 50.7-7.8 20-16.3 39.8-24.5 59.6-7.4-19.6-14.9-39.3-22.3-58.9-2-5.4-3.7-10.9-5.5-16.3 23.1-14.7 30.6-40.4 42-62.6 108.3-210.2 189.6-433.4 306.6-639.5 3.2-5.7 6.8-11.1 10.1-16.7-1.9 13.4-3.1 26.9-5.9 40.1-25 117.4-106.3 210.6-140 324.1-17.5 59-30.6 119.3-45.6 179q-38.7 92.1-77.4 184.2z"/>
				<path id="&lt;Path&gt;" class="s21" d="m2152.6 812.5q74 171.9 148 343.8-3.7 9.9-7.4 19.8c-10.6 31.1-8.8 66.4-31.5 93.5-52.3-116-121.1-225.1-148.4-351.6 24.7 0.8 16.4-21.5 23.9-32.9 14.9-22.7-22.8-55.8 15.4-72.6z"/>
				<path id="&lt;Path&gt;" class="s22" d="m2918.7 933q-2.2 33.7-4.3 67.4c-0.1-9.1 0.3-18.2-0.6-27.2-0.3-2.8 4.6-20.8-7.5-5.9-34.4 42.1-72.6 82.3-99.5 128.9-61.3 105.9-104.8 221.9-181.8 319.1-14.4 18.1-37.6 31-39.5 57.9-5.1-39.3-15.1-78.6 0.2-117.9 105.4-140.9 182.5-301.9 305.7-430.2 5.1-5.4 11.8-9.3 17.7-13.9q4.8 10.9 9.6 21.8z"/>
				<path id="&lt;Path&gt;" class="s23" d="m2261.7 1269.6c22.7-27.1 20.9-62.4 31.5-93.5 7.2 32 6.9 64.4-2 95.6-16.9 59.7-30.2 119.4-18 181.7 0.5 2.4 1.3 4.6 1.9 6.9 1-1.5 2.8-2.9 3-4.5 9.7-62.7 49.4-118.8 38.5-186.3-4.4-26.8-3.1-54.5-4.4-81.9q4.3 11.4 8.5 22.8 9.6 51 19.2 102.1c-0.6 7.7-1.3 15.4-2 23.2-8.8 97.7-57 180.8-99.6 265.9q-21.6 37-43.1 74-3.8-9.8-7.6-19.5-7.8-37.1-15.7-74.1-25.5-101.4-51-202.9c8.3 20.2 17.5 40.2 24.8 60.8 12.4 34.4 23.6 69.2 35.3 103.9 22.4-36.3 33.3-76.6 41.9-117.8 14.3-51.8 41.3-100.5 38.8-156.4z"/>
				<path id="&lt;Path&gt;" class="s24" d="m2468.8 1253.9c-25.7 43.1-51.5 86-76.8 129.3-3.2 5.4-3.3 12.6-4.9 18.9q-8 2.1-16 4.1c-18-28.6-23.2-61-27.4-93.6q4-21.8 8-43.6c30.3-72.5 60.5-145.1 91-217.6 5.2-12.4 11.5-24.5 17.3-36.7 17.8 79.2 15 159.2 8.8 239.2z"/>
				<path id="&lt;Path&gt;" class="s25" d="m1465 1062.4c-9.2 120.8-6.5 242.1-12.7 363.2-7 137.3 34.9 267.6 114.1 383q0 1.9 0 3.9-15.8 12-31.6 24-54.7-82.2-109.4-164.3c-11.1-73.7-9.9-146.8 7.6-219.5 0.6-2.7-7.3-7.5-11.2-11.4q7.5-49.1 15-98.2c6.9-88.1 13.7-176.3 21-264.4 0.5-5.6 4.7-10.9 7.2-16.3z"/>
				<path id="&lt;Path&gt;" class="s26" d="m3504.6 1988.4c-27.8 11.8-35 0.4-32.4-26.6 2.5-26.8-14.6-37.5-38.7-40.2q37.2-46.7 74.3-93.5 40.9-56.6 81.7-113.3c11.8-6.5 23.5-13.3 35.5-19.4 8.9-4.5 18.2-8.2 27.3-12.3-41.4 105.6-86.3 209.5-147.7 305.3z"/>
				<path id="&lt;Path&gt;" class="s27" d="m3394.4 2593.7q-68.1 43.7-136.3 87.4 15.2-18.5 30.4-36.9c115.1-100.9 229.6-202.3 332.7-316.1 30.8-34 72.1-58.4 107.9-88 7-5.7 11.1-14.9 16.5-22.5q-6-3.6-12.1-7.3 13.3-0.5 26.5-1-4.6 14.6-9.2 29.2c-14.1-4.6-17.5 8.4-23.1 15.5-99.2 125-201.1 247.1-333.3 339.7z"/>
				<path id="&lt;Path&gt;" class="s28" d="m793.8 2672c-98.6-54.3-186.2-122.5-263.7-204.2-68.3-72.2-137.7-143.3-206.6-214.9-14.3-18.4-32.7-35-27.1-62.1q7.9 8.3 15.8 16.6 48.6 41.2 97.2 82.4c116.6 139 246.9 264.2 384.4 382.2z"/>
				<path id="&lt;Path&gt;" class="s29" d="m574.1 1817.2c-2.6 12.6-4.8 25.3-7.9 37.7-6.5 25.4-9.8 57.8-47.1 24.7-56.2-102.4-96.2-211.6-136.4-320.8 8.1-8 21.3 14.2 27.7-4.6 39.9 96.8 94.8 184.2 163.7 263z"/>
				<path id="&lt;Path&gt;" class="s30" d="m2867.3 2640.9q-7.6 6.2-15.2 12.5c-7.5-33.3-3.7-70.8-35.7-94.8q66.4-37.1 132.8-74.2c18.8 9 36.5 21 59.1 8.7 13.2-7.2 28.2-11.2 42.5-16.6q-79.2 72.5-158.3 145.1c-14.6-1.7-27.7-1.3-25.2 19.3z"/>
				<path id="&lt;Path&gt;" class="s31" d="m1816 1093.6c15-59.7 28.1-120 45.6-179 33.7-113.5 115-206.7 140-324.1 2.8-13.2 4-26.7 5.9-40.1q5.6-7.2 11.1-14.5 10.1 15.4 20.2 30.8-11.7 23.1-23.4 46.2-15.5 45.1-31 90.2-84.2 195.2-168.4 390.5z"/>
				<path id="&lt;Path&gt;" class="s32" d="m3050.8 2476.5c-14.3 5.4-29.3 9.4-42.5 16.6-22.6 12.3-40.3 0.3-59.1-8.7q56.7-41 113.3-82c74.1-57.7 137.7-125.2 189.6-203.7 24.9-37.7 51.2-74.4 76.9-111.6-59 128.8-145.7 238.6-235.1 346.7-4.1 4.9-7.5 10.4-11.2 15.7q-16 13.5-31.9 27z"/>
				<path id="&lt;Path&gt;" class="s33" d="m774.4 2800.2c109.3 31.4 222.3 32.1 334.4 40q148.7 17.4 297.4 34.8-9.8 5.9-19.6 11.8-3.8-0.1-7.7-0.1-21.6-1.9-43.2-3.8c-105.3 1.2-207.7-28-314.1-25.3-85.1 2.1-170.6-16.4-256-25.7q-9.9-3.7-19.8-7.4 8.3-10.1 16.7-20.2 5.9-2 11.9-4.1z"/>
				<path id="&lt;Path&gt;" class="s34" d="m3394.4 2593.7c132.2-92.6 234.1-214.7 333.3-339.7 5.6-7.1 9-20.1 23.1-15.5-78.6 117.3-164 229.5-258.7 334.4-15.3 7.4-30.4 15.6-46.1 22.1-17.1 7-34.6 7.6-51.6-1.3z"/>
				<path id="&lt;Path&gt;" class="s35" d="m1175.8 1289.1q-23.4-156.2-46.7-312.4c3.3-17 5.7-34.2 10.1-50.9 2.2-8.8 7.8-16.7 11.9-25q10.7 10.3 21.5 20.7-2.2 8.4-4.3 16.8c-10.3 112.3 18.2 219.4 42.7 327.1q-17.6 11.8-35.2 23.7z"/>
				<path id="&lt;Path&gt;" class="s36" d="m1175.8 2527.3c-21.2 14.6-28.3 37.4-35.7 60.2q-41.1-37.7-82.1-75.4c-1.5-6-1.2-13.5-4.7-17.7-26.5-31.1-53.7-61.5-80.7-92q-27.3-39.1-54.6-78.2c82.3 72.3 164.1 145.2 257.8 203.1z"/>
				<path id="&lt;Path&gt;" class="s37" d="m1436.8 1343.1q-7.5 49.1-15 98.2-1.7 1.8-3.4 3.5c-44.7-64.5-78.7-134.8-110.5-206.3q13.7-21.4 27.5-42.9c24.7 52.9 54.8 102.5 90.5 148.7 5.5 7.1 7.8 3.6 10.9-1.2z"/>
				<path id="&lt;Path&gt;" class="s38" d="m1335.4 1195.6q-13.8 21.5-27.5 42.9c-22.1-46.7-44.4-93.3-66.2-140.2-24.7-53.2-48.9-106.7-73.4-160q2.1-8.4 4.3-16.8c61.2 87.3 121.9 174.8 162.8 274.1z"/>
				<path id="&lt;Path&gt;" class="s39" d="m2152.6 812.5c-38.2 16.8-0.5 49.9-15.4 72.6-7.5 11.4 0.8 33.7-23.9 32.9q-2-7.6-4.1-15.2c11-48.2-11.2-88.4-30.5-129.4q-2.4-11.5-4.8-23.1-11.7-79.8-23.4-159.6 51 110.9 102.1 221.8z"/>
				<path id="&lt;Path&gt;" class="s40" d="m918 2324.2q27.3 39.1 54.6 78.2-15.9 8.4-31.8 16.7-66.3-54.8-132.7-109.5 31.5-18.1 63-36.2 23.4 25.4 46.9 50.8z"/>
				<path id="&lt;Path&gt;" class="s41" d="m3020 2836.6c84.3-10.7 170.9-3.6 252.9-32.5 13.8-1.3 27.7-2.4 41.6-4 9.1-1 21.4-8.5 25.5 3.9 4.1 12.6-6.6 20.4-18.3 24.4q-18.3 1.8-36.5 3.6-134.7 13.7-269.4 27.3c-7.7-36.2-40.1-2.8-54.7-19.4q29.4-1.6 58.9-3.3z"/>
				<path id="&lt;Path&gt;" class="s42" d="m2312.2 1187.6c1.3 27.4 0 55.1 4.4 81.9 10.9 67.5-28.8 123.6-38.5 186.3-0.2 1.6-2 3-3 4.5-0.6-2.3-1.4-4.5-1.9-6.9-12.2-62.3 1.1-122 18-181.7 8.9-31.2 9.2-63.6 2-95.6q3.7-9.9 7.4-19.8 5.8 15.6 11.6 31.3z"/>
				<path id="&lt;Path&gt;" class="s43" d="m3652.3 1683.1c-9.1 4.1-18.4 7.8-27.3 12.3-12 6.1-23.7 12.9-35.5 19.4 26.6-50.8 68.8-92.7 85.8-149q15.8-29.3 31.5-58.5 8-9.2 16.1-18.4c-11.3 69.2-44.9 130.3-70.6 194.2z"/>
				<path id="&lt;Path&gt;" class="s44" d="m409.4 2289.8q-48.6-41.2-97.2-82.4 8.4-6.3 16.8-12.6 58.5 29.4 116.9 58.7-18.2 18.2-36.5 36.3z"/>
				<path id="&lt;Path&gt;" class="s45" d="m2468.8 1253.9c6.2-80 9-160-8.8-239.2 10.5-7.8 12.2-7.5 15.8 6.4 14.7 55.8 26.7 112.2 28.5 170.2q-17.8 31.3-35.5 62.6z"/>
				<path id="&lt;Path&gt;" class="s46" d="m1574.1 1023.5q-19.6 99.8-39.2 199.5-7.9-27.7-15.8-55.5c13.9-47.7 27.7-95.4 41.9-143 1.3-4.4 5-8.1 7.6-12.1q2.7 5.6 5.5 11.1z"/>
				<path id="&lt;Path&gt;" class="s47" d="m2050.5 590.7q11.7 79.8 23.4 159.6-29.2-68.7-58.5-137.4 11.7-23.1 23.4-46.2 5.8 12 11.7 24z"/>
				<path id="&lt;Path&gt;" class="s48" d="m940.8 2419.1q15.9-8.3 31.8-16.7c27 30.5 54.2 60.9 80.7 92 3.5 4.2 3.2 11.7 4.7 17.7q-58.6-46.5-117.2-93z"/>
				<path id="&lt;Path&gt;" class="s49" d="m410.4 1554.2c-6.4 18.8-19.6-3.4-27.7 4.6-5-9.7-10.8-19.1-14.8-29.2-6.8-16.6-12.4-33.8-18.4-50.7q26.3 12.5 52.7 25.1c-10.5 6.7-3 13.1 0.4 19.5q3.9 15.4 7.8 30.7z"/>
				<path id="&lt;Path&gt;" class="s50" d="m2351.7 1269q-4 21.8-8 43.6-1.9-0.1-3.8-0.1-9.6-51.1-19.2-102.1 15.5 29.3 31 58.6z"/>
				<path id="&lt;Path&gt;" class="s51" d="m762.5 2804.3q-8.4 10.1-16.7 20.2-11.4-0.1-22.8-0.2c-8.4-6-17.8-17.1-9.8-23.4 15.1-11.9 32.8 0.5 49.3 3.4z"/>
				<path id="&lt;Path&gt;" class="s52" d="m3722.9 1488.9q-8.1 9.2-16.1 18.4-7.6 2.3-15.2 4.6 3.8-9.9 7.6-19.8c7.6-3.3 13.5-19 23.7-3.2z"/>
				<path id="&lt;Path&gt;" class="s53" d="m329 2194.8q-8.4 6.3-16.8 12.6-7.9-8.3-15.8-16.6c12.1-8.6 22.2-0.8 32.6 4z"/>
				<path id="&lt;Path&gt;" class="s54" d="m2867.3 2640.9c-2.5-20.6 10.6-21 25.2-19.3q-10.9 9.4-21.8 18.7-1.7 0.2-3.4 0.6z"/>
				<path id="&lt;Path&gt;" class="s55" d="m1239.1 2663.4c203.2 117.8 416.9 24.6 538-112.7q4-2 8.1-3.9c32.6 28.9 62.4 60 78.3 101.7-49.3 31.4-103.5 50.3-160.4 62.4q-3.9 0-7.9 0c-23.2 1.4-46.5 3.2-69.8 4-50.1 1.7-91.5 9.7-56.3 75 5.8 10.8 13.7 20.4 20.7 30.5 0.1 6.7 1.6 13.7 0 19.9-3.8 14.9 38.7 56.2-22.5 40.1-6.2-1.6-22.8 7.5-8.7 21.9q-70.3-13.8-140.6-27.5c20.6-5.2 28.6-21.6 30.6-39.8 2.7-23.6-16.1-35.5-32.6-46.6-57.7-39.2-115.9-77.7-173.7-116.7-2-1.3-2.2-5.5-3.2-8.3z"/>
				<path id="&lt;Path&gt;" class="s56" d="m1418 2874.8q70.3 13.7 140.6 27.5 3.8 2.2 7.6 4.4-60.4-8.1-120.7-16.2-29.4-1.8-58.9-3.7 9.8-5.9 19.6-11.8 5.9-0.1 11.8-0.2z"/>
				<path id="&lt;Path&gt;" class="s57" d="m3015.8 2859.3q134.7-13.6 269.4-27.3c-181.8 100.5-377.7 166.5-572.9 234.3-8.9 3.1-19 2.7-28.6 3.9-85.5-30.1-162.4-75.7-238.1-125.1-30.6-20-42.6-30.1-4.2-50.7q19.6-5.6 39.3-11.2c5.5 1.1 11.3 4.1 16.5 3.3 130.5-19.8 261.5-35.1 393.7-36.4 41.6-0.4 85-16.2 124.9 9.2z"/>
				<path id="&lt;Path&gt;" class="s58" d="m2441.4 2894.4c-38.4 20.6-26.4 30.7 4.2 50.7 75.7 49.4 152.6 95 238.1 125.1-163.4 33.8-326.8 67.7-490.4 100.8-10.8 2.2-25 6.6-33.4-7.7 74.9-58.7 144.3-123.7 186.2-210.2 21.2-43.9 53.7-55.1 95.3-58.7z"/>
				<path id="&lt;Path&gt;" class="s59" d="m2441.4 2894.4c-41.6 3.6-74.1 14.8-95.3 58.7-41.9 86.5-111.3 151.5-186.2 210.2-46.7 27.4-89.9 63.2-148.2 63.5q-1.7-2.2-3.4-4.3c-17.4-46.1-58.1-65.6-98.1-85.9 38.7-1.9 69.7 31.1 109.5 24.3 101.6-28.6 200.9-61.6 270.2-148.8 32.6-34.2 54.2-75.1 72.8-117.9 15.9-36.2 30.3-73.2 48-108.5 12.7-25.4 3.4-31.9-20.2-31.5-84.5-16.5-160.8-51.7-230.2-102.2 14.3-52.5 52.7-85.6 93.6-116.7q7.6-4.1 15.3-8.2c10.1 12.6-5.3 9.2-8.5 12-7 6.1-9.6 11-8.7 21.2 9.8 113.3 85.3 164.3 182.2 197.5 58.9 20.2 114.2 68.9 179.1 15.8 9.3-4.6 19.1-8.2 27.7-13.8 48.2-31.2 100-54.2 155.7-68.6q-23.5 13.6-47 27.3c-91.1 43.1-172.4 101.9-254.2 159.9q-7.4 2.4-14.8 4.8-19.7 5.6-39.3 11.2z"/>
				<path id="&lt;Path&gt;" class="s60" d="m2008.3 3222.5q1.7 2.1 3.4 4.3-2 13.5-3.9 27.1-236.3-54.7-472.6-109.4c11.6-1.5 24-1 34.8-5 27.9-10.2 67.4 17.2 82.9-10.2 17.5-31.1 42.5-43.8 69.7-58.4q17.6 9.5 35.2 19c7.5 7 13.9 16.2 22.7 20.6 75.7 37.8 151.8 74.8 227.8 112z"/>
				<path id="&lt;Path&gt;" class="s61" d="m1722.6 3070.9c-27.2 14.6-52.2 27.3-69.7 58.4-15.5 27.4-55 0-82.9 10.2-10.8 4-23.2 3.5-34.8 5-88.7-21.3-177.3-42.9-261.8-78.1 20.2-6 29.3-22.8 30.7-40.6 5.9-73.6 66.9-133 141.4-135.3q60.3 8.1 120.7 16.2c28.1 7 52.4 17 66.4 46.6 21.3 45.3 51.9 84.6 90 117.6z"/>
				<path id="&lt;Path&gt;" class="s62" d="m1445.5 2890.5c-74.5 2.3-135.5 61.7-141.4 135.3-1.4 17.8-10.5 34.6-30.7 40.6-160.3-57.4-320-116.3-464.8-208.4-14.1-9-28.6-17.4-43-26.1 85.4 9.3 170.9 27.8 256 25.7 106.4-2.7 208.8 26.5 314.1 25.3q21.6 1.9 43.2 3.8 3.9 0 7.7 0.1 29.5 1.9 58.9 3.7z"/>
				<path id="&lt;Path&gt;" class="s63" d="m1425.6 2351.6c-37.8-33-81.7-59.4-129.3-69.3-76.1-15.9-96.6-68.1-118.1-133-63-190.6-49.1-380.1-9-571.6 10.9-52.2 12.5-106.4 18.4-159.8q5.8 13.8 11.6 27.5c9.1 49.7 21.6 99 26.8 149 27.4 260.3 120.4 501.9 207.7 745.3q3.7 12 7.4 23.9-7.8-6-15.5-12z"/>
				<path id="&lt;Path&gt;" class="s64" d="m918 2324.2q-23.5-25.4-46.9-50.8c-33.6-51.4-67.5-102.6-100.3-154.5-5.7-9.1-6.4-21.3-9.5-32q15.8-0.5 31.6-1 9.7 7.8 19.5 15.7c30.2 24.3 59.1 50.5 90.9 72.4 60.5 41.8 124.2 78 197.9 92q31.4 11.6 62.8 23.3 89.9 37 179.8 74c16.1 33.8 30.5 66.9 26.8 107-9.6 102.5-95.9 97.3-194.8 57-93.7-57.9-175.5-130.8-257.8-203.1z"/>
				<path id="&lt;Path&gt;" class="s65" d="m1441.1 2363.6q-3.7-11.9-7.4-23.9c98.1-54.2 183.6-14.9 268.3 35.1 8.8 5.1 18 23.7 32.9 7.3 7.6 47.2 28.2 92.3 23 141.7q-50.4-26-100.8-51.9-99.7-39-199.5-78-8.2-15.1-16.5-30.3z"/>
				<path id="&lt;Path&gt;" class="s66" d="m1457.6 2393.9q99.8 39 199.5 78-2.2 2.2-4.4 4.3c-72-27.5-144.1-55-216.1-82.5-7.4-2.8-14.5-6.4-21.8-9.6 8.1 1.7 16.1 3.3 24.1 5.1 6.3 1.5 12.5 3.2 18.7 4.7z"/>
				<path id="&lt;Path&gt;" class="s67" d="m1652.7 2476.2q2.2-2.1 4.4-4.3 50.4 25.9 100.7 51.9 13.7 11.5 27.4 23-4.1 1.9-8.1 3.9c-36.7-32.9-80.7-53.4-124.4-74.5z"/>
				<path id="&lt;Path&gt;" class="s68" d="m2495.5 2878.4c81.8-58 163.1-116.8 254.2-159.9 109.8 50.9 210.8 5.5 313.6-26.9 73.4-23.1 140.5-77.9 225.3-47.4q-15.3 18.4-30.5 36.9c-80.7 43.7-161.4 87.2-241.9 131.2-10.2 5.7-18.8 14.3-28.2 21.5q16 1.4 32 2.8-29.5 1.7-58.9 3.3c-156.3-0.1-310.9 19.1-465.6 38.5z"/>
				<path id="&lt;Path&gt;" class="s54" d="m2796.7 2691.2c-55.7 14.4-107.5 37.4-155.7 68.6-8.6 5.6-18.4 9.2-27.7 13.8-2.2-67.1-5.1-134.1-6.2-201.2-0.7-39.6 9.4-83-48.1-92.6-6.7-1.1-14.2-3.7-7.3-14.6 3.9-6.1 4.6-15.2 4.1-22.7-0.2-2.7-11.1-7.7-12.1-6.7-6.5 6.6-14 13.9-16.5 22.3-3.3 11.1-3.3 25.6-19 20.9-13.5-4.1-25.1-14.4-37.5-21.9 10.4-5.1 20.9-10.4 31.4-15.4 9.1-4.4 18.4-8.6 27.6-12.8q42-11.3 84-22.5c2.5 13.8 4.8 27.7 7.4 41.5 25.5 131.8 33.2 164.6 166 121.2 9.9-3.2 19.6-7 29.3-10.5 32 24 28.2 61.5 35.7 94.8q-27.7 18.9-55.4 37.8z"/>
				<path id="&lt;Path&gt;" class="s69" d="m1164 2289.3q-31.4-11.7-62.8-23.3-72.5-37.1-145-74.2-107-99.8-214-199.6c46.1-6.3 96.5-3.1 137.5-21.1 63.8-28 99.2 26.9 149.1 36.1 25.9 4.7 51.1 13.3 76.7 20.1 9.9 51.2 18.2 102.8 30.2 153.6 7.8 32.5 21 63.7 31.9 95.5 1.8 5.3 6.8 11.1-3.6 12.9z"/>
				<path id="&lt;Path&gt;" class="s70" d="m742.2 1992.2q107 99.8 214 199.6c-15.1-8.3-30.6-16-45.2-25.1-33.5-20.7-54.7-60.1-98.6-65.1q-9.8-7.9-19.5-15.7c-57.3-57-116.4-112.7-144.6-191.7q1.4-4 2.8-8.1c42.2 25.2 59.3 72 91.1 106.1z"/>
				<path id="&lt;Path&gt;" class="s71" d="m651.1 1886.1q-1.4 4.1-2.8 8.1-37.1-38.5-74.2-77c-68.9-78.8-123.8-166.2-163.7-263q-3.9-15.3-7.8-30.7c68.6 125.9 163.7 233 247.8 347.9 2.4 3.3 0.5 9.8 0.7 14.7z"/>
				<path id="&lt;Path&gt;" class="s72" d="m1566.4 1812.5q0-2 0-3.9c60-61 111.6-128.8 159.7-199.3q21.8 41.1 43.6 82.2 2 11.6 3.9 23.2c-1.4 49.2-23.3 91.1-46.8 132.5q-21.5 43.3-43.1 86.5-2.2 9.7-4.4 19.3c-5.3-3-12.3-4.6-15.6-9-32.8-43.6-65-87.6-97.3-131.5z"/>
				<path id="&lt;Path&gt;" class="s73" d="m2886.3 2214.7c25.6-50.5 37.3-105 47.3-160 146.5-43.5 273.1-123.6 397.8-209.4 33.6-23 83.2-22.6 125.5-33-22.9 39-61.2 68.1-73.5 114q-0.3 1.6-0.6 3.3c-15 13.3-30.9 25.7-44.7 40.1-89.3 93.1-177.3 187.9-289.2 254.9-53.7 32.2-110.6 59-166.1 88.3q-23.7 9.5-47.4 18.9 25.4-58.6 50.9-117.1z"/>
				<path id="&lt;Path&gt;" class="s74" d="m3383.4 1926.3c12.3-45.9 50.6-75 73.5-114 81-98 166.3-192.6 234.7-300.4q7.6-2.3 15.2-4.6-15.7 29.2-31.5 58.5c-52.4 92.2-120.8 173-184 257.5q-53.9 51.5-107.9 103z"/>
				<path id="&lt;Path&gt;" class="s75" d="m2812.5 1878.9c-54.4 154.9-65.3 322.4-136.6 472.4-17 10.6-28.1 30.7-51 31.7-99.2-73.6-197.3-61.3-295.7 2.6-11.8 7.7-22.2 24.1-40.9 15.8q14.2-71.5 28.4-143 6.5-18 12.9-36.1c5.1 7.8 7.3 3.2 9.6-2.1 13.4-30.8 30.3-60.6 39.9-92.6 37.9-125.5 112.3-227.8 199.1-322.9 15.8-2 32.9 14.4 47.6-3.2 16.1 21.7-5.7 32.8-13.7 47.4-2.6 4.6-10.1 6.2-13.5 10.6-9 11.5-30.3 21.9-18.9 37.6 10 13.9 25.2 5.2 33-10.3 0.2-0.4 7.2 1.2 7.5 2.5 8.8 54 84.3 38.1 94.7 90.4 0.1 0.6 3.7 0.2 5.5 0.7 77.8 25.2 53.2-43.7 68.1-75.3 5.7-12 0.5-31.3 24-26.2z"/>
				<path id="&lt;Compound Path&gt;" fill-rule="evenodd" class="s76" d="m2812.5 1878.9c-23.5-5.1-18.3 14.2-24 26.2-14.9 31.6 9.7 100.5-68.1 75.3-1.8-0.5-5.4-0.1-5.5-0.7-10.4-52.3-85.9-36.4-94.7-90.4-0.3-1.3-7.3-2.9-7.5-2.5-7.8 15.5-23 24.2-33 10.3-11.4-15.7 9.9-26.1 18.9-37.6 3.4-4.4 10.9-6 13.5-10.6 8-14.6 29.8-25.7 13.7-47.4-14.7 17.6-31.8 1.2-47.6 3.2q60.5-74.3 121-148.5c34.5-8.5 51.5-37.8 69.9-63.1 40.7-56.2 70.1-118.8 96.2-183 3.3-8.1 11.8-14.1 17.9-21 1.1 9.2 3.1 18.5 3.3 27.8 0.5 16.2 0 32.4-0.1 48.6-22 128.6-44 257.2-66.2 385.8-1.6 9.4-5.1 18.4-7.7 27.6zm-145.7-170c-8.9 16.9-13.5 24.8-17.2 33.2-0.5 1.1 2.9 4 4.4 6.1 6.5-7.6 13.3-14.9 18.9-23 1.2-1.7-2.3-6.6-6.1-16.3z"/>
				<path id="&lt;Path&gt;" class="s77" d="m2624.9 2383c22.9-1 34-21.1 51-31.7q105.2-68.3 210.4-136.6-25.5 58.5-50.9 117.1-31.1 11.7-62.1 23.4-66 19.8-132.1 39.7-8.1-6-16.3-11.9z"/>
				<path id="&lt;Path&gt;" class="s78" d="m2371.1 1406.3q8-2.1 16-4.2c15.7 6.3 11.7 20.2 11.5 31.9-1.1 59.6-2.8 119.3-4.3 178.9-7 107.2-13.7 214.5-2.5 321.7 1.9 18.1 18.8 9.7 30.3 7.2-10.7 18.5-20.9 37.2-32.1 55.5-12.7 20.9-26.2 41.3-39.4 62q-17.2-35.5-34.4-71c-38.3-76.7-74.9-154.4-115.8-229.7-15.8-29.1-28-53.7-5.2-83.1q21.5-36.9 43.1-73.9c45.6-61.4 91.3-122.8 136.6-184.5 1.2-1.8-2.4-7.2-3.8-10.8z"/>
				<path id="&lt;Path&gt;" class="s79" d="m2585.5 1473.2c1.9-26.9 25.1-39.8 39.5-57.9 77-97.2 120.5-213.2 181.8-319.1 26.9-46.6 65.1-86.8 99.5-128.9 12.1-14.9 7.2 3.1 7.5 5.9 0.9 9 0.5 18.1 0.6 27.2-15.8 120.5-48.7 236.8-85.5 352.2-37.4 4.1-74.7 12.3-102.8 37.5-56 50.2-74.5 125.4-117.3 184.8q-11.6-50.9-23.3-101.7z"/>
				<path id="&lt;Path&gt;" class="s80" d="m2608.8 1574.9c42.8-59.4 61.3-134.6 117.3-184.8 28.1-25.2 65.4-33.4 102.8-37.5-36.5 99.7-112.9 174.7-164.2 265.3-11.1 19.7-23.5 38.8-35.3 58.1q-3.9 5.4-7.8 10.8-1.9-13.6-3.8-27.1-4.5-42.4-9-84.8z"/>
				<path id="&lt;Path&gt;" class="s81" d="m2316.2 1988.3q17.2 35.5 34.4 71c13.2-20.7 26.7-41.1 39.4-62 11.2-18.3 21.4-37 32.1-55.5q13.4-17.9 26.8-35.8c32.7-5.1 40.6-41.2 67.2-53.9-87.4 104.6-139.7 227-180 355.4-5.5-8.9-23.1-10.7-15.9-27.1-1.7 10.5-3.4 21-5.3 31.4-0.2 1.1-1.4 2.1-2.2 3.1q-2-33.3-4-66.7-17.8-89.3-35.6-178.7 1.4-2.2 2.8-4.4c0.4 0.4 1.1 0.7 1.1 1.2 2.9 25.3 21.5 22.8 39.2 22z"/>
				<path id="&lt;Path&gt;" class="s82" d="m2516.1 1852.1c-26.6 12.7-34.5 48.8-67.2 53.9 41.9-72.4 86.8-142.7 148.5-200.1 14.5-13.4 22.8-26.7 20.4-46.2q1.9 13.5 3.8 27.1c1.6 14.3-5.7 24-15.5 33.7-26.4 26.1-49.3 54.9-59.8 91.6q-15.1 20-30.2 40z"/>
				<path id="&lt;Path&gt;" class="s83" d="m1816 1093.6q84.2-195.3 168.4-390.5c14.3 28.2 25.6 56.7 35.2 87.5 22.7 73 14.1 148.6 31.2 221.2-2.6 6.7-6 13.2-7.7 20.1-7.6 31.9 2.8 66.8-15.8 97.1-30.1 39.1-40.4 85.9-50.8 132.6q-3.9 27.4-7.7 54.8-2 2-3.9 3.9c-9.3-28-18.3-56-27.8-83.9-4.4-13.2-9.7-26.1-14.6-39.1q-6.4 20.4-12.8 40.7c-22.8 102.6-49.2 204.2-92.6 300.5-1.8 4-3.8 7.9-5.7 11.9-1.3-1.7-3.3-3.3-3.9-5.2-23-89.1-46-178.3-68.9-267.4q38.7-92.1 77.4-184.2z"/>
				<path id="&lt;Path&gt;" class="s84" d="m1735.1 1298.7c1.5 3.5 2.7 5.2 3.1 7.2 13.9 70.2 27.7 140.5 41.4 210.8 0.5 2.5-1.3 5.4-2 8.1-1.9-1.4-4-2.6-5.7-4.3-49.2-48.2-68.3-148.9-40.8-214.8 0.7-1.7 1.8-3.2 4-7z"/>
				<path id="&lt;Path&gt;" class="s85" d="m1909.7 1238q6.4-20.3 12.8-40.7c4.9 13 10.2 25.9 14.6 39.1 9.5 27.9 18.5 55.9 27.8 83.9q0.2 1.9-0.2 3.8-29.2 41.1-58.3 82.2 1.6-84.1 3.3-168.3z"/>
				<path id="&lt;Path&gt;" class="s86" d="m1906.4 1406.3q29.1-41.1 58.3-82.2 0.2 11.5 0.5 22.9-0.2 2.3-0.4 4.6-7.8 3.8-15.6 7.7c-41.8 82.9-82.8 166.3-125.6 248.7-18.2 34.9-20.7 77.1-50 106.7q-1.9-11.6-3.9-23.2 68.3-142.6 136.7-285.2z"/>
				<path id="&lt;Path&gt;" class="s87" d="m1199.2 1445.4q-5.8-13.7-11.6-27.5-2.1-19.4-4.2-38.9-3.8-44.9-7.6-89.9 17.6-11.9 35.2-23.7 17.3 58.8 34.6 117.5c-47.4-2.9-24.8 46.2-46.4 62.5z"/>
				<path id="&lt;Path&gt;" class="s88" d="m2773.3 2355.2q31-11.7 62.1-23.4 23.7-9.4 47.4-18.9 15.3-4.6 30.6-9.1 7.4 0.2 14.7 0.3-1.2-3.6-2.4-7.3c98.3-44.2 196.8-89.1 277.8-161.6 40.3-36.1 110.9-19.9 133.4-83.1 6.1-17.2 17.9-32.3 27.1-48.3q-17.5 41.6-35 83.3c-25.7 37.2-52 73.9-76.9 111.6-51.9 78.5-115.5 146-189.6 203.7-8.5-1.1-5.9-5.3-7-12.2-3.8-22.2-4.6-54.7-35.8-53.1-58.8 2.9-119.8-4.5-173.9 31.7-24.5 16.4-57.7 39.2-72.5-13.6z"/>
				<path id="&lt;Path&gt;" class="s89" d="m2913.4 2303.8q-15.3 4.5-30.6 9.1c55.5-29.3 112.4-56.1 166.1-88.3 111.9-67 199.9-161.8 289.2-254.9 13.8-14.4 29.7-26.8 44.7-40.1q13.5 7.4 27.1 14.8-23 29.7-45.9 59.4c-9.2 16-21 31.1-27.1 48.3-22.5 63.2-93.1 47-133.4 83.1-81 72.5-179.5 117.4-277.8 161.6q-6.1 3.5-12.3 7z"/>
				<path id="&lt;Path&gt;" class="s90" d="m3409.9 1944.4q-13.6-7.4-27.1-14.8 0.3-1.7 0.6-3.3 53.9-51.5 107.9-103 8.3 2.4 16.5 4.8-37.1 46.8-74.3 93.5-11.8 11.4-23.6 22.8z"/>
				<path id="&lt;Path&gt;" class="s91" d="m2516.1 1852.1q15.1-20 30.2-40 76.6-85.7 153.2-171.3-0.2 7.7-0.3 15.4-60.5 74.2-121 148.5c-86.8 95.1-161.2 197.4-199.1 322.9-9.6 32-26.5 61.8-39.9 92.6-2.3 5.3-4.5 9.9-9.6 2.1q3.3-7.4 6.5-14.8c40.3-128.4 92.6-250.8 180-355.4z"/>
				<path id="&lt;Path&gt;" class="s92" d="m2699.5 1640.8q-76.6 85.6-153.2 171.3c10.5-36.7 33.4-65.5 59.8-91.6 9.8-9.7 17.1-19.4 15.5-33.7q3.9-5.4 7.8-10.8c-0.8 14.6 5.1 7.9 9.6 2.8 22.7-25.8 45.2-51.7 67.7-77.6q0.4 12.1 0.7 24.3-3.9 7.7-7.9 15.3z"/>
				<path id="&lt;Path&gt;" class="s93" d="m2707.4 1625.5q-0.3-12.2-0.7-24.3 16.8-17.6 33.5-35.2c-6.5 14.4-12.5 29.1-19.7 43.2-3.1 6-8.7 10.9-13.1 16.3z"/>
				<path id="&lt;Path&gt;" class="s94" d="m2050.8 1011.8c-17.1-72.6-8.5-148.2-31.2-221.2-9.6-30.8-20.9-59.3-35.2-87.5q15.5-45.1 31-90.2 29.3 68.7 58.5 137.4 2.4 11.6 4.8 23.1 15.2 64.7 30.5 129.4 2.1 7.6 4.1 15.2c27.3 126.5 96.1 235.6 148.4 351.6 2.5 55.9-24.5 104.6-38.8 156.4-97.9-121.2-150.9-261.2-172.1-414.2z"/>
				<path id="&lt;Path&gt;" class="s95" d="m2050.8 1011.8c21.2 153 74.2 293 172.1 414.2-8.6 41.2-19.5 81.5-41.9 117.8-11.7-34.7-22.9-69.5-35.3-103.9-7.3-20.6-16.5-40.6-24.8-60.8q-13.9-34.7-27.7-69.5-1.9-4.3-3.8-8.6-10.7-33.1-21.4-66.1-5 3.4-10.1 6.7c-18.6-35.2-25.6-73.7-30.6-112.6 18.6-30.3 8.2-65.2 15.8-97.1 1.7-6.9 5.1-13.4 7.7-20.1z"/>
				<path id="&lt;Path&gt;" class="s96" d="m2093.2 1309.6q13.8 34.8 27.7 69.5 25.5 101.5 51 202.9-17.7 29.5-35.5 59.1c-5.2-13.1-13.7-25.9-15.1-39.4-10.1-97.3-18.9-194.7-28.1-292.1z"/>
				<path id="&lt;Path&gt;" class="s97" d="m2316.2 1988.3c-17.7 0.8-36.3 3.3-39.2-22 0-0.5-0.7-0.8-1.1-1.2q-1.4 2.2-2.8 4.4-66.4-152.4-132.7-304.9 1.1-6.3 2.2-12.7c4.6 4.1 8.9 8.4 13.7 12.1 8 6.3 16.4 12.2 24.5 18.3q3.4-13.1 6.8-26.2 3.8 9.7 7.6 19.5c-22.8 29.3-10.6 53.9 5.2 83 40.9 75.3 77.5 153 115.8 229.7z"/>
				<path id="&lt;Path&gt;" class="s98" d="m2371.1 1406.3c1.4 3.6 5 9 3.8 10.8-45.3 61.7-91 123.1-136.6 184.5 42.6-85.1 90.8-168.2 99.6-265.9 0.7-7.8 1.4-15.5 2-23.2q1.9 0 3.8 0.1c4.2 32.6 9.4 65 27.4 93.7z"/>
				<path id="&lt;Path&gt;" class="s99" d="m2187.6 1656.1q-3.4 13.1-6.8 26.2c-8.1-6.1-16.5-12-24.5-18.3-4.8-3.7-9.1-8-13.7-12.1q-1.1 6.4-2.2 12.7-2-2.2-3.9-4.4-0.1-9.6-0.1-19.1 17.8-29.6 35.5-59.1 7.9 37 15.7 74.1z"/>
				<path id="&lt;Path&gt;" class="s100" d="m1566.4 1812.5c32.3 43.9 64.5 87.9 97.3 131.5 3.3 4.4 10.3 6 15.7 9q-15.6 64.7-31.2 129.4-1.6-0.7-3.2-1c-22.5-88-65.4-166.9-110.2-244.9q15.8-12 31.6-24z"/>
				<path id="&lt;Path&gt;" class="s101" d="m1534.8 1836.5c44.8 78 87.7 156.9 110.2 244.9 2.6 15.9 5.4 31.7 7.9 47.6 0.6 3.9 0.3 8 0.4 12-1.9-3.1-4.8-6-5.6-9.4-47-200-172.2-356.3-288.4-517.9-34.4-47.8-77.4-92.6-82.1-156.6 25.3 59.9 66.6 109.3 106.1 159.8q21 27.6 42.1 55.3 54.7 82.1 109.4 164.3z"/>
				<path id="&lt;Path&gt;" class="s102" d="m1425.4 1672.2q-21.1-27.7-42.1-55.3 17.5-86.1 35.1-172.1 1.7-1.7 3.4-3.5c3.9 3.9 11.8 8.7 11.2 11.4-17.5 72.7-18.7 145.8-7.6 219.5z"/>
				<path id="&lt;Path&gt;" class="s103" d="m3507.8 1828.1q-8.2-2.4-16.5-4.8c63.2-84.5 131.6-165.3 184-257.5-17 56.3-59.2 98.2-85.8 149q-40.8 56.7-81.7 113.3z"/>
				<path id="&lt;Path&gt;" class="s104" d="m2773.3 2355.2c14.8 52.8 48 30 72.5 13.6 54.1-36.2 115.1-28.8 173.9-31.7 31.2-1.6 32 30.9 35.8 53.1 1.1 6.9-1.5 11.1 7 12.2q-56.6 41-113.3 82-66.4 37.1-132.8 74.2c-9.7 3.5-19.4 7.3-29.3 10.5-132.8 43.4-140.5 10.6-166-121.2-2.6-13.8-4.9-27.7-7.4-41.5q13.8-5.8 27.5-11.5 66.1-19.9 132.1-39.7z"/>
				<path id="&lt;Path&gt;" class="s56" d="m1378.9 2886.7q-21.6-1.9-43.2-3.8 21.6 1.9 43.2 3.8z"/>
				<path id="&lt;Path&gt;" class="s105" d="m1418.4 1444.8q-17.6 86-35.1 172.1c-39.5-50.5-80.8-99.9-106.1-159.8q-15.8-37.1-31.6-74.2-17.3-58.7-34.6-117.5c-24.5-107.7-53-214.8-42.7-327.1 24.5 53.3 48.7 106.8 73.4 160 21.8 46.9 44.1 93.5 66.2 140.2 31.8 71.5 65.8 141.8 110.5 206.3z"/>
				<path id="&lt;Path&gt;" class="s21" d="m2109.2 902.8q-15.3-64.7-30.5-129.4c19.3 41 41.5 81.2 30.5 129.4z"/>
				<path id="&lt;Path&gt;" class="s106" d="m2495.5 2878.4c154.7-19.4 309.3-38.6 465.6-38.5 14.6 16.6 47-16.8 54.7 19.4-39.9-25.4-83.3-9.6-124.9-9.2-132.2 1.3-263.2 16.6-393.7 36.4-5.2 0.8-11-2.2-16.5-3.3q7.4-2.4 14.8-4.8z"/>
				<path id="&lt;Path&gt;" class="s107" d="m2019.7 3160.9c-39.8 6.8-70.8-26.2-109.5-24.3q-31.4-13.4-62.9-26.7c-104.7-79.7-193.1-174-257.5-289.5-7-10.1-14.9-19.7-20.7-30.5-35.2-65.3 6.2-73.3 56.3-75 23.3-0.8 46.6-2.6 69.9-4-14.4 13.6-68.8-14.2-36.8 48.3 48 93.8 116.6 136 198.7 104 53.8-21 94.3-61.6 143-89.8 0 104.3-1.3 208.7 1.1 313.1 0.5 24.8-6.3 54.4 18.4 74.4z"/>
				<path id="&lt;Path&gt;" class="s108" d="m2000.2 2773.4c-48.7 28.2-89.2 68.8-143 89.8-82.1 32-150.7-10.2-198.7-104-32-62.5 22.4-34.7 36.8-48.3q3.9 0 7.8 0c40.3 15 79.2 2.7 113.1-14.9 64.2-33.3 125.1-72.9 187.4-109.9q0.4 29.1 0.8 58.3-0.5 23.3-1 46.5-1.6 41.2-3.2 82.5z"/>
				<path id="&lt;Path&gt;" class="s109" d="m1648.2 2082.4q15.6-64.7 31.2-129.4 2.1-9.6 4.3-19.3 2.2 4.2 4.3 8.3c-5.8 61.4-9.5 122.7 3 183.7 7.3 38.9 13.1 78.2 22.2 116.6 32.7 138 109.1 256.7 169.8 382.4 1.5 14.5-11.5 17-19.5 23.8-15.9-41.7-45.7-72.8-78.3-101.7q-13.7-11.5-27.4-23c5.3-49.4-15.3-94.5-22.9-141.7-19.5-102.6-52.9-201.2-86.7-299.7z"/>
				<path id="&lt;Path&gt;" class="s110" d="m1589.8 2820.4c64.4 115.5 152.8 209.8 257.5 289.5q-44.7-10-89.5-20-17.6-9.5-35.2-19c-38.1-33-68.7-72.3-90-117.6-14-29.6-38.3-39.6-66.4-46.6q-3.8-2.2-7.6-4.4c-14.1-14.4 2.5-23.5 8.7-21.9 61.2 16.1 18.7-25.2 22.5-40.1 1.6-6.2 0.1-13.2 0-19.9z"/>
				<path id="&lt;Path&gt;" class="s111" d="m1863.5 2648.5c8-6.8 21-9.3 19.5-23.8 39.4-2.7 61.3-36.2 93-52.5 8.6-4.4 16.9-9.3 25.2-13.9q1.2 13.9 2.4 27.8c-62.3 37-123.2 76.6-187.4 109.9-33.9 17.6-72.8 29.9-113.1 14.9 56.9-12.1 111.1-31 160.4-62.4z"/>
				<path id="&lt;Path&gt;" class="s112" d="m2529.7 2428.9c-9.2 4.2-18.5 8.4-27.6 12.8-10.5 5-21 10.3-31.4 15.4 12.4 7.5 24 17.8 37.5 21.9 15.7 4.7 15.7-9.8 19-20.9 2.5-8.4 10-15.7 16.5-22.3 1-1 11.9 4 12.1 6.7 0.5 7.5-0.2 16.6-4.1 22.7-6.9 10.9 0.6 13.5 7.3 14.6 57.5 9.6 47.4 53 48.1 92.6 1.1 67.1 4 134.1 6.2 201.2-64.9 53.1-120.2 4.4-179.1-15.8-96.9-33.2-172.4-84.2-182.2-197.5-0.9-10.2 1.7-15.1 8.7-21.2 3.2-2.8 18.6 0.6 8.5-12 82.8-43.5 170-75.1 260.5-98.2z"/>
				<path id="&lt;Path&gt;" class="s113" d="m2003.4 2690.9q0.5-23.2 1-46.5 1.7-31.2 3.4-62.4c53 32.8 105.2 67 159.3 97.9 69.2 39.7 141.5 72 223.4 74.3 23.6-0.4 32.9 6.1 20.2 31.5-17.7 35.3-32.1 72.3-48 108.5-44.4-3.8-88.9-10.4-133.4-10.8-71.5-0.6-132.6-15.6-168.9-86.1-14.6-28.3-37-52.7-55.9-78.9q-0.5-13.7-1.1-27.5z"/>
				<path id="&lt;Path&gt;" class="s114" d="m2003.4 2690.9q0.6 13.8 1.1 27.5c-12.2 62.1 37.6 97.8 62 144 47.3 89.6 110.1 157.8 223.4 149.7-69.3 87.2-168.6 120.2-270.2 148.8-24.7-20-17.9-49.6-18.4-74.4-2.4-104.4-1.1-208.8-1.1-313.1q1.6-41.3 3.2-82.5z"/>
				<path id="&lt;Path&gt;" class="s115" d="m2529.7 2428.9c-90.5 23.1-177.7 54.7-260.5 98.2q-7.7 4.1-15.3 8.2 17.2-66.9 34.4-133.9c18.7 8.3 29.1-8.1 40.9-15.8 98.4-63.9 196.5-76.2 295.7-2.6q8.2 5.9 16.3 11.9-13.7 5.7-27.5 11.5-42 11.2-84 22.5z"/>
				<path id="&lt;Path&gt;" class="s116" d="m2289.9 3012.1c-113.3 8.1-176.1-60.1-223.4-149.7-24.4-46.2-74.2-81.9-62-144 18.9 26.2 41.3 50.6 55.9 78.9 36.3 70.5 97.4 85.5 168.9 86.1 44.5 0.4 89 7 133.4 10.8-18.6 42.8-40.2 83.7-72.8 117.9z"/>
				<path id="&lt;Path&gt;" class="s117" d="m2288.3 2401.4q-17.2 67-34.4 133.9c-40.9 31.1-79.3 64.2-93.6 116.7q-17.4-11.7-34.9-23.4c2.3-41.1 27.5-73 42.8-108.9q69.6-141 139.1-282 4.7 10.4 9.4 20.7-14.2 71.5-28.4 143z"/>
				<path id="&lt;Path&gt;" class="s118" d="m2125.4 2628.6q17.5 11.7 34.9 23.4c69.4 50.5 145.7 85.7 230.2 102.2-81.9-2.3-154.2-34.6-223.4-74.3-54.1-30.9-106.3-65.1-159.3-97.9q0.3-13.5 0.5-27.1 23.3 13.5 46.5 27.1 35.3 23.3 70.6 46.6z"/>
				<path id="&lt;Path&gt;" class="s119" d="m1757.8 3089.9q44.8 10 89.5 20 31.5 13.3 62.9 26.7c40 20.3 80.7 39.8 98.1 85.9-76-37.2-152.1-74.2-227.8-112-8.8-4.4-15.2-13.6-22.7-20.6z"/>
				<path id="&lt;Path&gt;" class="s75" d="m1648.2 2082.4c33.8 98.5 67.2 197.1 86.7 299.7-14.9 16.4-24.1-2.2-32.9-7.3-84.7-50-170.2-89.3-268.3-35.1-87.3-243.4-180.3-485-207.7-745.3-5.2-50-17.7-99.3-26.8-149 21.6-16.3-1-65.4 46.4-62.5q15.8 37.1 31.6 74.2c4.7 64 47.7 108.8 82.1 156.6 116.2 161.6 241.4 317.9 288.4 517.9 0.8 3.4 3.7 6.3 5.6 9.4-0.1-4 0.2-8.1-0.4-12-2.5-15.9-5.3-31.7-7.9-47.6q1.6 0.3 3.2 1z"/>
				<path id="&lt;Path&gt;" class="s120" d="m812.4 2101.6c43.9 5 65.1 44.4 98.6 65.1 14.6 9.1 30.1 16.8 45.2 25.1q72.5 37.1 145 74.2c-73.7-14-137.4-50.2-197.9-92-31.8-21.9-60.7-48.1-90.9-72.4z"/>
				<path id="&lt;Path&gt;" class="s121" d="m1691 2125.7c-12.5-61-8.8-122.3-3-183.7q19.4-47.4 38.8-94.8c23.5-41.4 45.4-83.3 46.8-132.5 29.3-29.6 31.8-71.8 50-106.7 42.8-82.4 83.8-165.8 125.6-248.7 25.3 8 18.8 29 12.7 43-43 97.1-90.2 192.4-131.7 290.1-59.4 140.1-118.3 280.7-139.2 433.3z"/>
				<path id="&lt;Path&gt;" class="s122" d="m1726.8 1847.2q-19.4 47.4-38.8 94.8-2.1-4.1-4.3-8.3 21.6-43.2 43.1-86.5z"/>
				<path id="&lt;Path&gt;" class="s123" d="m2316.7 2258.4q-4.7-10.3-9.4-20.7 2.7-11.4 5.4-22.8c0.8-1 2-2 2.2-3.1 1.9-10.4 3.6-20.9 5.3-31.4-7.2 16.4 10.4 18.2 15.9 27.1q-3.2 7.4-6.5 14.8-6.4 18.1-12.9 36.1z"/>
				<path id="&lt;Path&gt;" class="s75" d="m2666.8 1708.9c3.8 9.7 7.3 14.6 6.1 16.3-5.6 8.1-12.4 15.4-18.9 23-1.5-2.1-4.9-5-4.4-6.1 3.7-8.4 8.3-16.3 17.2-33.2z"/>
				<path id="&lt;Path&gt;" class="s75" d="m2312.7 2214.9q-2.7 11.4-5.4 22.8-69.5 141-139.1 282-56.7 31.1-113.4 62.3-23.2-13.6-46.5-27.1c-26.3-209.1-25.5-419.3-27.8-629.5-1.5-133.2-1.7-266.4-4.5-399.6-1.2-58.1-7.3-116.2-11.2-174.2q0.2-2.3 0.4-4.6c22.8-9 32.9 2.2 39.1 23 27.6 93.1 54.4 186.4 84 278.9 56 174.8 193.3 316 210.7 507.1 0.3 3 4.5 5.6 6.9 8.4q1.4-8.1 2.8-16.2 2 33.4 4 66.7z"/>
				<path id="&lt;Path&gt;" class="s124" d="m2308.7 2148.2q-1.4 8.1-2.8 16.2c-2.4-2.8-6.6-5.4-6.9-8.4-17.4-191.1-154.7-332.3-210.7-507.1-29.6-92.5-56.4-185.8-84-278.9-6.2-20.8-16.3-32-39.1-23q-0.3-11.4-0.5-22.9 0.4-1.9 0.2-3.8 1.9-1.9 3.9-3.9 9.6 4.2 19.2 8.3 9.9 17.3 19.9 34.6 13.5 31.4 27.1 62.9c29.4 81.2 55.1 164 101.5 238q1.9 2.2 3.9 4.4 66.3 152.5 132.7 304.9 17.8 89.4 35.6 178.7z"/>
				<path id="&lt;Path&gt;" class="s125" d="m2007.9 1359.3q-10-17.3-19.9-34.6-5.7-31.5-11.5-63.1c10.4-46.7 20.7-93.5 50.8-132.6 5 38.9 12 77.4 30.6 112.6-16.4 39.4-20.5 83.9-50 117.7z"/>
				<path id="&lt;Path&gt;" class="s126" d="m1976.5 1261.6q5.8 31.6 11.5 63.1-9.6-4.1-19.2-8.3 3.8-27.4 7.7-54.8z"/>
				<path id="&lt;Path&gt;" class="s127" d="m1964.8 1351.6c3.9 58 10 116.1 11.2 174.2 2.8 133.2 3 266.4 4.5 399.6 2.3 210.2 1.5 420.4 27.8 629.5q-0.2 13.6-0.5 27.1-1.7 31.2-3.4 62.4-0.4-29.2-0.8-58.3-1.2-13.9-2.4-27.8c-8.3 4.6-16.6 9.5-25.2 13.9-31.7 16.3-53.6 49.8-93 52.5-60.7-125.7-137.1-244.4-169.8-382.4-9.1-38.4-14.9-77.7-22.2-116.6 20.9-152.6 79.8-293.2 139.2-433.3 41.5-97.7 88.7-193 131.7-290.1 6.1-14 12.6-35-12.7-43q7.8-3.9 15.6-7.7z"/>
				<path id="&lt;Path&gt;" class="s104" d="m2913.4 2303.8q6.2-3.5 12.3-7 1.2 3.7 2.4 7.3-7.3-0.1-14.7-0.3z"/>
				<path id="&lt;Path&gt;" class="s128" d="m2136.5 1660.2c-46.4-74-72.1-156.8-101.5-238q27.2-60.6 54.4-121.2 1.9 4.3 3.8 8.6c9.2 97.4 18 194.8 28.1 292.1 1.4 13.5 9.9 26.3 15.1 39.4q0 9.5 0.1 19.1z"/>
				<path id="&lt;Path&gt;" class="s129" d="m2089.4 1301q-27.2 60.6-54.4 121.2-13.6-31.5-27.1-62.9c29.5-33.8 33.6-78.3 50-117.7q5.1-3.3 10.1-6.7 10.7 33 21.4 66.1z"/>
				<path id="&lt;Path&gt;" class="s130" d="m2054.8 2582q56.7-31.2 113.4-62.3c-15.3 35.9-40.5 67.8-42.8 108.9q-35.3-23.3-70.6-46.6z"/>
			</g>
		</g>
	</g>
</svg>