<svg version="1.2" xmlns="http://www.w3.org/2000/svg" viewBox="0 0 1200 1109" width="1200" height="1109">
	<title>AdobeStock_192137147</title>
	<style>
		.s0 { fill: #e8e8e8 } 
	</style>
	<g id="_Artboards_">
	</g>
	<g id="321353356351 1">
		<g id="&lt;Group&gt;">
			<g id="&lt;Group&gt;">
				<path id="&lt;Path&gt;" class="s0" d="m568.1 1092.7c14.6 0.6 22.2 7.6 26 16.3h-24.1c-2.4-5.2-3.4-10.6-1.9-16.3z"/>
				<path id="&lt;Compound Path&gt;" fill-rule="evenodd" class="s0" d="m560.1 1104.7c0.1 0.2 0.4 1.7 0.7 4.3h-2.7q0.9-2.7 2-4.3zm-5.2-3.4c0.2 1.1-0.9 4-3.2 7.7h-27c7-5.6 16.3-9.2 30.2-7.7zm-37.5-80.3c-6.4 1.1-21.5 24.1-44.3 7.8-3 1.3-20.3 9.9-23.3 23.2 6.1-5.6 19-21 43.5-3-9.5-3.4-31.3 29.4-45.6 10.8-0.6 1.6-1.6 7.8-1.6 19.3q0 3 0.1 6.5 0.2 5.1 0.6 11.1c1.5-3.6 9-23.5 28.9-24.1q0.3-0.1 0.5-0.1c8.1 0 14.8 6.2 18.4 13.1 3.7 7.3 3.7 16.6-0.8 23.4h-12.1c-2.3-3.7-7.5-6.4-16.9-3-1.8 0.6-3.3 1.7-4.4 3h-33.6c-4.4-5.6-7.7-10.4-9.2-13.1 0.6 2.1 2.9 6.9 6.6 13.1h-21.4c-6.7-4.9-17.3-11.5-23.9-14.6 1.7-3.4 3.8-6.3 6.1-8.8 14.1-15.5 36.4-14.5 49.8 0q0 0 0 0c2.5 2.7 4.6 5.8 6.3 9.3-0.3-2.7-0.6-5.9-0.7-9.3-1-20.2 2.6-50.1 30.1-60.3 5.2-3.8 12.4-26.7 46.9-4.3zm-64.7 32.6c5.2-1.7 19.1-6.9 29.9-5.7 0 0-18.7-6.4-29.9 5.7zm21.8-27.6c0 0 17.8-0.5 32.2-6.3-2.9-0.5-27.9-2.3-32.2 6.3z"/>
				<path id="&lt;Compound Path&gt;" class="s0" d="m763.5 1085.6c-2.7 1.5-5.4 2.8-7.8 3.7-2.4 1-4.5 1.6-6.1 1.8-26.9 2.9-47.7 9.4-63.8 17.9h68.6q-1.8-1.1-3.7-2c3.6 0.4 7.1 1.1 10.5 2h34.9c-6.6-4.7-13.9-7.4-21-7.1 11.8-1.8 15.8-8.8 15.7-16.3 0-7.3-3.9-15-7.9-18.7 0.6 5.3-9.6 13.4-19.4 18.7z"/>
				<path id="&lt;Path&gt;" class="s0" d="m759.8 1002.3c-7.9-12.8-23.6-4.4-25.4 5.2-4.8 24.7 36.9 46.1 36.9 46.1-26.9-22.4-27.9-33.5-26.6-37.7 5 9.2 23.7 0.1 15.1-13.6z"/>
				<path id="&lt;Path&gt;" class="s0" d="m346.8 900.9c-5.5 10.7-4.8 29.7 18 28.1-0.6-0.8-5-6.1-3.7-16 0.8-5.8 4.9-34.4 53.4-21.8-3.1-4.1-52.3-20.1-67.7 9.7z"/>
				<path id="&lt;Path&gt;" class="s0" d="m516.6 1005.2c1.9 1.8-0.2 13.1 14.1 21.3 7.3 3.6 23.3 18.5 44.7 25.9-10.9 4.9-19.5-4.4-39.5-20-8.8-6.8-12.7-6.9-25.2 0.4-0.3 0.6 14.1 15.8 30.7 20.7-8.2-1.3-24.9-1.8-31.8 8.5 1.4 1.1 17.7 15.2 41 5.5-5.7 3.3-13.3 9.2-10.2 15.9 18.3-4.3 38.9 8.8 76.6-4.6-1.8 1.1-7 3.4-11.4 6.8-1.3 1.1-2.6 2.3-3.6 3.6 35 23.5 59.6 20.7 86.6 5.7-2.9-0.2-43.4-9.6-56.5-6.9 1.2-0.4 3.3-1.7 7.9-2.4 3.3-0.5 14.1 0 14.1 0 0 0-42.8-12.4-51.8-21.3-15.4 2.3-40.8 1-50.1-3.5 18.7 3 30.4 2.4 44.8-0.8-7.5-3.6-42-31-56.9-65.3 1.4 1.5 10.4 15.8 23.7 31.2-16.9-39.1-13.2-60.5-10.5-71.1-4.9 30.3 10.9 66.2 16.6 77.8 10.2 10.8 18.9 19.5 31.8 25.6-0.8-1.9-8.6-20.7-9.5-36 1.5 4.1 13.1 38.3 19.5 43.1 2.1 1.4 20.5 9.5 36.2 14.3-4.2-2.7-27.7-17.2-37.2-50.9 1.6 5.4 17.1 51.7 73.5 61.1 43.2 7.3 62.5-16.8 65.9-25.8 0 0-46.5 27-52.3-17.9-3.7-1.5-14 3.5-11.7 16.2-1.7-5.9-12.1-21.6-5.4-35.1-11.1-5.7-26.8 17.7-9.4 31.4-1.2-1.2-7.5-1.6-12.4 0.8 4.3 16.4 13.4 19.8 41.1 26-8.2-1.8-71-1.4-55.2-82.9-0.6-0.3-18.5-3.8-19.2 10.2-0.4-14-14.1-28.5-12.2-31.4-2.1 0.6-21.9 12-15.7 37.4-0.3-1.2-3.6-8.6-10.2-9.8-4 1.4-4.7 16.7-0.2 24.7-1.2-1.2-24.4-39.7 8.2-63.9-1.4-3.1-27.3-9.6-31.4 1.6 1.2-6.8 2.6-31-6.7-40.4-3.7-1.8-27.4 26.1-9.2 58.9-3-3-11-25-27.4-24.6 1.5 6.8-9.2 30.8 21.1 48.2-4.4-1.9-15.2-10.8-25.3-8.2z"/>
				<path id="&lt;Path&gt;" class="s0" d="m723.4 810.2c-5 2.9-9.4 5.2-16 7.5-1.4-5.9-6.8-16.2-10.7-16.9-3.6 6.1-2.9 17.5-3.7 22.5-5.7-6.4-13.7-13.1-22.1-9.7 13.9 12.8-8.9 12.5 22.2 56.1 0-0.2 1.7-35.6-13.4-50.3 5 2.8 18.4 15.6 13.4 50.3q0.5 0.7 1 1.4c1.5-8.9 3-16.2 4.5-22.4 7.6-5.3 10.4-16.2 9.6-25.6 4.5-6.9 39.2-5.3 32.5-44.9-24.1 13.3-21.7 22.9-17.3 32z"/>
				<path id="&lt;Path&gt;" class="s0" d="m871.4 1098.7q-0.1-0.2-0.1-0.3 0 0.1 0.1 0.3z"/>
				<path id="&lt;Path&gt;" class="s0" d="m970.7 1090.2q-0.3 0-0.5 0.1 0 0 0.5-0.1z"/>
				<path id="&lt;Compound Path&gt;" class="s0" d="m617.7 1109h2.6q-0.4-0.9-0.9-1.7-0.9 0.8-1.7 1.7z"/>
				<path id="&lt;Compound Path&gt;" fill-rule="evenodd" class="s0" d="m794.7 768c9.5 4.4 20.6 31.4 0.8 45.4 17.6-12.5 69.4-5.7 69.1 28.7-0.1 17.4-19.8 32-34.9 20.6-11.2-8.5-0.3-27.5 10.8-20.5 1.7 2.1 12.1 1.6 8.9-8.3-3.2-9.9-37.6-37.3-86.5 1.6 30.4-14.1 52 2.1 61.3-4.6 2.8 7.1-13.8 19.7-22.9 18.8 5.2 3.7 7.4 16.1-3.4 24.7-24.3-33.2-55.1-18.9-67.8-0.3 7.1-2 11.4-4.3 24.6 2-8.6 16.7-24.9 13-36.2 25.3 9-6.9 65.5-24.4 97.8-3.7 6.6-2 33.8-14.6 50.5 17.1-3.2 1.4-18.6 8.1-30.7 2.9 5.3 7.8 9 16.4 10.9 25 0.2 0 9.3 27.4 25.2 33.5 18.8 8.9 52.1 29.2 49 48.4-18.9 9.5-66.9-8.5-73.6-63-1.4 8.7-5.4 16.7-12.5 23.1-19.3 17.4-46.1 28.3-71.8-12.6 8.1 0 25.6-9.5 43.1 0 8.6 4.6 33.3 6.8 34.4-12.7 0.9-14.5-4.3-23.5-5-26 1.7 9.4 3.8 28.9-23.7 30.6-4.6-20.7 21.6-33.3-4.4-56.9-0.2 1.2 10.7 25.9-13.9 38.5-1.8-4-9.2-25.2-5.2-35 1.1-3.5 0.7-32.4-65.5-4-8 3.4-33.3 31.6-37.3 38.5 4-5.2 21.8-27.6 45.4-25.3 4 1.7 14.9 3.4 17.8-2.9 5.1 5.1-6.2 31.2-40.1 27.7 11.1 1.3 30.9 6.6 39.9-9.7 5.5-9.2 24.7-16.2 25.5-17.6 4.1 6.5 8.4 49.1-35.1 42.7-6.2-0.9-36.7-13.2-41.9 6.3-5.2 19.5 8 40.2 12.1 47.1-2.3-9.2-7-35.2 14.3-43.1 10.9-4 21.5-0.5 33.3 12.1-1.1-1.2-38.7 8-34.4 32.7 2.4 13.8 9.3 26.6 52.8 42 0 0-61.1-1.2-88.4-47.1-12.7-21.3-37.9-36.2-55.2-20.7-4-8.1-0.5-14.4 9.2-19.5-6.9 1.7-25.2 3.4-32.1-2.9 0.4-6.9 14.1-20.5 31.6-7.1-4.3-3.6-6-11.2-6.9-15.3 6.6-0.6 27.9-1.1 47.9 28.1 2.5 8 3.3 10.8 6.4 17.4-14.7-19.6-38-24.6-45.6-24.6 24.3 5.4 39.1 21.5 49.6 32.7 23.4 49 61.8 55.3 72.3 56.1-12.7-2.6-22.4-7.9-31.7-14-18.5-19.1-22.7-41.7-14.5-53.8 8-11.9 22.2-11 27.5-8.8q0.3 0.1 0.4 0.2-0.1-0.1-0.4-0.2c-9.8-4.9-26-0.9-31 9.4-11.4 23.9 7.2 45 13.3 51.4-44.7-31.9-48.9-95.4-48.9-95.4 17.5-24.9 31.6-56 39-66-17.4 22.6-37.3 57.2-40.1 61.7-6.5-54-17.8-55.5-21.7-59 16.4 20.3 19.4 66.8 19.6 70.6-29.9-47.9-60.9-37-60.9-37 34.8 0 58.7 38.1 62.5 44.3 0.9 4.4 2.4 9.1 3.5 13-11.1-18.1-38.1-43.9-77.7-27.3 0.5-3.6-1.2-15.8 11.9-21.3-13.4 4.7-37.3 14.7-49.2-12.6 2.3 0 15.6-1 21.8-4.6 7-3.9 16.7-4 26.4-0.5-3.4-3.5-18.9-4.1-17.5-17.5 3.8 2 46.4-11.3 69.8 39.9-5.2-13.8-24.2-40.9-49.4-54 1.7-1.7 11.5-12.7 23-4-3.5-4.6-15.4-13.1-7.3-32 3.4 7.8 17 8 29.3 18 4.2 3.4 6.1 11.7 7.8 28.9-0.5-6.9 2.3-16.7 8.1-24.1 4 2.3 24.7 21.8 6.9 56.3 7.4-12.7 17.8-16.1 18.9-33.9 0.6-11.5-5.3-28.4 14.2-49.7 1.8 1.7 16.8 13.3-1.3 40.9 5.3-8 59.7-78.3 27.7-103.4 2.2-5.5 30.1-16.3 38.7 14 2.3 0.4 7.4-9.8 11.8-15.7zm-17 210.4c21.2 21.2 54.5 2.3 54.5 2.3-17.8 8-47.6 1.1-54.5-2.3zm70.3-28.8q0.1 0.6 0.1 1.3c2.7 13.6 14.8 55.1 59.2 66-9.7-4.3-50.6-28.3-59.3-67.3zm-19.2-19.5c0 0 2.9 21.8-10.4 25.9 9.8-2.3 16.7-15 10.4-25.9zm-5.9-25.5c0.8 1.7 26.6 2.6 36.1 6.9-16.4-13.8-36.1-6.9-36.1-6.9zm-33.6-7.7c1.3 1.4 14.5 15.2 7.9 33.2 6.3-14.9 6.9-20.6-7.9-33.2zm-45.7-51.4c13.4-3.4 30-10.9 56.4-3.3-22.7-19.2-56.4 3.3-56.4 3.3zm53.5-64c-9.4 24.1-26.9 37.4-37.3 43.8 24.5-26.7 15.4-39.4 10.1-42.1 11.2 14.9-35.2 65.8-27.1 58.5 49.5-33.9 52.4-51.2 54.3-60.2z"/>
				<path id="&lt;Path&gt;" class="s0" d="m742.8 867.5c0 0 30.6-18.1 48.7 12.9-30.2 6.5-38.8-18.1-48.7-12.9z"/>
				<path id="&lt;Path&gt;" class="s0" d="m662.3 1053.9c0 0-32.6-23.7-6.9-63.9 14.4 9.6-1.7 52.8 6.9 63.9z"/>
				<path id="&lt;Path&gt;" class="s0" d="m518.4 1109h-17.9c12.2-36.5-25.2-40.5-25.2-40.5 48.7-8.6 52.9 23.3 43.1 40.5z"/>
				<path id="&lt;Compound Path&gt;" fill-rule="evenodd" class="s0" d="m925.2 1039.3c4.9 19-12.9 33.9-31.2 33.7 9.9 8.4 23.8 11.7 24.6 11.7-0.1-0.9-0.6-3.6-0.6-3.6 0 0-2.6-24.4 31.7-37.2 1.8 2.7 2.5 5.8 2.5 9.1 0 9.8-6.9 21.2-13 28.1-2.5 2.8-4.8 4.9-6.5 5.8 18.8-1.7 19.4-9.1 20.5-10.2-4.2-22.3 17.7-22.3 27.3-26.9 1.7-0.8 2.9-1.8 3.7-3q0.3 2.6 0.4 5c0.5 12.2-5.1 24.3-23.8 28.3 6.4-0.9 33.1 3.2 28 28.9h-20.5c-8.6-7.5-10.6-20.6-13.6-24.1-29 17.8-58.6-3.6-61.9-5.5 1.6 1.9 3.2 4 4.5 6.2 4 6.8 6 15 1.3 23.4h-0.5c-1.2-3.3-4.6-6.4-9-9.9-4.6-3.7-10.3-7.9-15.7-13.5-4.8-4.8-9.4-10.8-12.8-18.3 2.4 6.8 5.2 12.9 8.1 18.3 5.3 9.8 11.2 17.4 17.1 23.4h-10.9q-0.9-3-1.8-5.5c0.5 1.9 0.7 3.7 0.7 5.5h-17.4c0.5-6.1 0.3-13.8-1.1-23.4-2.2-15.8-7.5-37-17.7-65.6 0.4 1.6 7.3 28.8 7.3 52.4 0 4.6-0.3 9.1-0.9 13.2-1.7 11.1-6.1 19.6-15 21.3q0.7 0.2 1.6 0.2c4.9 0 13.4-5.4 16.6-21.5 1.3-6.5 1.8-14.7 0.8-25.1 0.9 2.6 1.9 6.3 2.8 10.6 0.9 4.3 1.7 9.3 2.4 14.5 0.9 7.7 1.4 15.9 1 23.4h-49.5c-4.3-5.7-6.4-11.8-5.8-14 17 0.9 30.2-37.1 20-32.3-31.6 14.9-51.7-27.1-42-36.8 34.9 29.7 63.3-38.6 69.4-46.4 0 0-15.2 108.6 78.9 59.8zm19.2 69.7h-19.3c4.3-4.7 13-4.4 19.3 0zm15.9-34c7.7-2.7 19.6-17.6 20.3-20.5-13.2 10.9-20.3 20.5-20.3 20.5zm-2.1 8.2c12.3-1 11.6 18.3 24.1 24.9-12.9-25.6-18.1-25.5-24.1-24.9zm-32.6-0.8q0.9-0.6 1.8-1.3c13.6-10.1 18.3-28.6 18.3-28.6-10 12.6-15.6 23.6-19.1 28.6q0 0 0 0-0.5 0.7-1 1.3zm-89.9-68.7c-13.6 34.1-40 29.6-47.2 27.7 30.2 25.8 46.3-24.9 47.2-27.7zm5-5c0.3 2.8 11.7 95.6 75.4 43.8-37.3 23.1-64.2 4.6-75.4-43.8z"/>
				<path id="&lt;Compound Path&gt;" fill-rule="evenodd" class="s0" d="m411.9 833.9c35.8-0.5 26.1 69.1 61 87.8-20.7-26.4-2.3-43.7-2.3-43.7 20.8 44.1 63-12.9 63-12.9-3.5 68.9-53.1 45.5-56.5 42 8.7 15.3 32.8 12.2 37.5 9.7-5.4 10-27.1 34.4-27 45.3 10.6-23.6 25.1-31 36.1-49.2-2.1 8.7-5.2 25.9 0.1 34.8-1.1-9.1 1.8-25.1 4.6-43.8 4.2-9.6 7.6-21.9 9.5-39.2 20.2 53-6.8 89.6-6.9 95.2-14.3 1.3-20.6-10.9-22.7-11.9 10.4 29.6 3.2 39.3 0.3 42.9-10.4-3.9-14.9-7.7-18.4-14.6 0.5 28.9-24.8 40.3-28.2 41.5-14.4-19.9 10.1-58.2 9.3-60.4-4.5 5.9-13.8 3.9-20.3 6.3-6.2-26.1 23.4-36.4 26.9-35.9-0.3-0.3-85.4-43.1-75.5-5 1 3.7 8.6 6.7 11.8 1 2.8 19.4-24.1 21.1-30.1 2.5-9.1-28.6 26.8-43.8 60-21.6-35.1-24.9-77.8-49.3-119.8-3.4-5 5.4-31.8 45.6-14.8 74.8-3.2 5-18.1 1.9-20.7-7.7-2.6 3.4-1.5 19.9 10.9 28.5-2.7 5.7-18 10.8-24.7-6.9-3.2 2.8 6.9 30.2 25.7 30.1 1.3 12.4-21.6 18.7-26.9-0.1-4.9 30.7 80.9 45.3 63.9-9.4 11.9-4 42.3 13.2 24 39.1-3.8 5.4-11 10.4-20.3 12.8q3.9-0.4 7.9-1.4c10.1-1.1 61.9-37.7 24.6-77.2 5.2-4 23-11.7 31-0.6-3.1-10-19.8-20.8-40.3-16.9-0.6-4.4-1-14.7 9.7-17.8-4.7-3.5-35.5-8.2-44.6 20.2-1.9 6 8.8 13.9 13.8 2.5 3.9-1 18.4 12.8 5.3 24.9-12.8 11.7-35-5.9-27.9-31.5 7.1-25.6 41.2-41.1 75.5-19 4.6 2.9 13 13.2 14.1 16.8 0.5-5 12.4-30.1 33.4-17.4-2.5 2.6-9.4 7.3-19.7 51.3q-0.1 0.6-0.4 1.8c7.4-10.7 22.3-14.1 24.9-13.1 2.7 56.1-25.6 65.7-29.4 66.9 15.3-0.9 15.5 21.1 11.1 24.9-5.1-13-35.9-6.6-35.9-6.6-87.2 34.6-143.8-16-140.4-91-2.5 12.8-7.3 45.1 1.2 62.1 5.4 2 10.1 4.1 14.3 10.2 4.1 6.1 7.6 16.2 10.4 34q1.1 6.6 2 14.6c11.4-6.9 33 1.7 38.9-3.7-3.8 5.7-7.6 9.7-11.4 12.5h-9.6c6.6-2.7 11.4-6.7 11.7-7-6 3.5-14 5.7-20.3 7h-21.5c-6.2-7.7-9.9-16.8-12-23.4q-0.5-1.7-0.9-3.1c-6.5-8.4-10.6-20.6-7.6-40.7 0-6.9-4.5-21-4.7-21.9 5.4 28.6-18.3 41.9-29.9 47.5q0.1 0 0 0 0 0 0.1-0.1c1.2-5.5 1.4-13.6 1.9-22 0.5-7.6 1.3-15.4 3.6-21.9 3.4-10.1 10.3-16.7 24.7-13.4 1.2-9.3 4.8-27 5.6-30.5q0.2-0.7 0.4-1.3c-9.4 3-14-0.3-16.7-3.5-0.8-0.9-1.4-1.8-2-2.6 1-0.8 2.4-1.8 4.2-3.1 7.5-5.2 21.4-15.5 33.1-41.4 21.1-46.6 97.4-94.4 171.7-34.3 0 0-26.8-62.6-48.2-32.2-5.5-15.8 8.3-28.7 18.8-27.2zm-145.8 257.3c4.8 10.9 8.6 16 9.8 17 1.1-3.3 2.8-5.6 5-7.2-4.4-3.1-9.7-6-14.8-9.8zm-13.5-46.9c3 23.3 17.6 39.1 18.1 39.8 0-6.4-18.1-39.8-18.1-39.8zm-8.9-29.7c0 0-23 4-20.7 34.4 0.6-9.2 9.2-29.8 20.7-34.4zm81.5 54.5c0 0 77.5 13 108.2-57.4-3.4 2.1-11.3 19.5-34.8 36.4 10.3-8.9 25.7-33.1 20.6-84.2-0.1 12.3 2.1 73.6-39 94.1 16.8-9.9 27.9-35.6 14.2-64.1 2.3 5.4 24.4 75.9-69.2 75.2zm45.8-199c-100.2 5.1-109.9 104.6-103 132.3-3-47.5 16.2-79.6 35.8-100-18.5 21.9-15.6 49.6-14.7 56.7 1.4-77.5 76.1-88.3 81.9-89zm-18.6 236.7q-0.8 1.1-1.7 2.2h-28.7c12.6-6.2 25.8-0.7 30.4-2.2z"/>
			</g>
			<g id="&lt;Group&gt;">
				<path id="&lt;Path&gt;" class="s0" d="m875.4 561.7c0 0 11.7 44.9-24 46.8-2.3 2.9 0.5 24.6 19.4 16.2 17.9-8 12.5-46.4 4.6-63z"/>
				<path id="&lt;Path&gt;" class="s0" d="m595.4 590c0 0 12.9-50.1-27.3-51.8-5.7 21.2 24.1 38.5 27.3 51.8z"/>
				<path id="&lt;Compound Path&gt;" fill-rule="evenodd" class="s0" d="m829.2 574.6c4.2 11.7 45.9 66.3-9.4 123.3-6 9.4-22.3 31.2-15.4 46.9 0 0-24 2.7-22.8-18.3-7.2 5.1-23.9 52.9-73 17.6 20.6-22.5 67.5-10.1 68.9-29.3-8.5 1.7-49.2-13.3-30.5-37.7 10.4-13.5 28.5 3.2 24.7 8.9-15.5 16.1 13.8 25.9 32.2 2.3-4 1-26.4 0.6-28.1-22.5 6.1 1.1 81.5-3.3 53.4-91.2zm11.4 32.8c5.8 56.8-39.6 98.2-50.6 106.7 69.3-39.8 50.6-106.7 50.6-106.7z"/>
				<path id="&lt;Compound Path&gt;" fill-rule="evenodd" class="s0" d="m451.1 739.9c-3.6 6.3-3.5 24.8 3.4 43.7-10.8-16.4-39.5-44.2-46.7-50.3 17.7 17.1 47.9 55.5 57.2 79-10.9-11.4-26.4-10-31.1-8.1 16.4-2.1 28 8.5 34.4 16.7 6.8 19.3 12.1 40.5 16.9 63.5-31.7-80.3-75.1-61.8-81.9-69.4 8.5-23 34.2-24.1 40.1-15.9-14.7-30.2-21.7-1-55-21.6 6.8-18.8 33.5-17.1 30.9-19.1-37.4-5.7-55.4-34.4-56.7-44.7 17.6-10 40.6-10.5 74.2 29.8-5.5-13.6-17.1-40-27.8-50-12.9 1.3-27.5 4.9-54.3-38.3 16.8 3.3 46.9-6 59.5 35.4 3.2 6.4 13.8 17.8 13.8 17.8 2.9-28.9 39.6-24.3 47.7-34.3 5.8 21.5-20.4 45.8-46 40.4 2.1 6.3 6.9 17.6 9.8 24.8 2.1-17.6 24.3-28.3 35.6-13.3-14.1 1.3-11.1 23.8-6.9 33.3 43.6 98.9 20.7 128.7 20.7 128.7-12.5-56.2-19.8-81.3-28.9-99.1-3.1-10.6-11.6-37.1-8.9-49zm-40.9-50.1c-6.9-13-17.5-15.7-31-20.3q-1.5-0.5-2.9-0.9 1.5 0.4 2.9 0.9c13.9 5.4 31 20.3 31 20.3zm21.3 19.5c0 0 28.7-9.2 37.8-25.8-2.8 3.4-37.8 25.8-37.8 25.8z"/>
				<path id="&lt;Compound Path&gt;" fill-rule="evenodd" class="s0" d="m488.3 645.4c-4 1.8-7.1 17-29.3 10.2 2.8-4.3 9.6-25.9 29.4-28.6-2.3-1.2-7.6-3.2-14.6-6.5-8.9 0.4-33.7 4.4-51.5-18 3.5-4.6 7.5-8.3 11.8-7.9-11.3-7.8-28.9-17.4-44.2-15.6-5-15.6 10.6-25.4 18.7-18.7 3.4-0.4-18.8-15.3-29.7-20.4 1.7-3.4 3.8-6.3 6.1-8.8 14.1-15.5 36.5-14.6 49.8 0 2.5 2.7 4.6 5.8 6.3 9.3-0.3-2.7-0.6-5.9-0.7-9.3-1-20.3 2.6-50.1 30.1-60.3 5.2-3.9 12.4-26.7 46.9-4.3-6.4 1.1-21.5 24.1-44.3 7.8-3 1.3-20.3 9.9-23.3 23.2 6.1-5.6 19-21 43.5-3-9.5-3.4-31.3 29.4-45.6 10.8-0.7 1.9-2 10.1-1.5 25.8q0.1 5.1 0.6 11.1c1.5-3.6 9-23.5 28.9-24.2 8.3-0.2 15.2 6 18.9 13.1 5.8 11.2 2.5 27.3-12.1 31.6 2.6-3.3-0.6-17.4-17.7-11.2-22.5 8.1 8.6 73.4 59.4 41.9-17.7 0.9-17.7 0.9-33.6-6.4 22.4-2.8 22.4-44.8 64.3-40.2 0.9 4.5-20 36.3-44.6 39.1 9.3 0.4 24.5-2.9 41.3-23.5-9.8 12-24.8 73.4-77.7 41.3-15.5-9.5-50.2-51.2-56.3-62.3 2.7 9.5 39.1 73.2 87.3 77.6 0 0-16.8 21.1-28.4 25.5 7.5-2.6 25.8-15.4 33.8-27 5.9-3.4 23.9-8.7 38.2-38.9 0.4 3.8-7.4 34.2-7.4 45.7 11.1-37.4 13.8-66 19-74.1 0.8 1.1 10.9 69-20.7 93.7-7-7.7-9.1-11.3-8.2-21.5-1.9 2.1-31.9 21.2-16.1 50.6-5.5 3.6-33.6 3.8-26.8-27.6zm-13.8-173.9c0 0 17.8-0.5 32.2-6.3-2.9-0.6-27.9-2.3-32.2 6.3zm-21.8 27.6c5.2-1.7 19.1-6.9 29.9-5.7 0 0-18.7-6.4-29.9 5.7z"/>
				<path id="&lt;Compound Path&gt;" class="s0" d="m395.5 758.7c-118.2-37.5-124.7-141.6-124-149.4 4.7 29 16.2 54.3 26.7 75.1-7.4-14.7-1-69.8 13-94.1-9.5 34-8.7 45.3-9.4 49.8 23.4-42.6 69.7-33.5 78.6-29.8 8.9 3.7 26.5 18.6 39.1 33.1-29.9-23.2-40.7-41.1-78.5-29-46.7 15.1-39.4 52.3-39.2 57 0.7 22.6 19.8 44 41.6 60-5.5-8.7-11.7-24.5-0.4-41.7-2.4 7.9-7.9 29.1 6.1 45.7 20.7 14 42.6 22.9 52.8 23-70.5-32.4-33.3-59.7-46.4-83.5-14.9-0.5-16.8 7.9-22.6 13.3 10.8-20.5-1.7-45.6-8-47.9-15.1 15.1-10.6 37-5.3 50.9-15-25.2-10.5-52.1 1.8-60.5 20.8-14.1 43.8-6 49.3-0.2 21.6 36.4 33 28.4 40.1 35.2 4.3-9.8-4.2-23.4-4.3-25.3 22.4 40.8 43.4 29.5 46.1 34 4.8-29-33-41-40.4-46.6 21.4 12.2 28.2 0.1 28.9-5.3-2.1 1.2-5 0.2-11.5-4-13.9-12.5-23.9-12.9-33.8-13.6 8-0.9 10.4-6 11.3-9.2-36.6-19.3-48.5-2.2-59.7 2.6 11.1-6.7 22-20.3 17.3-26.5-29.1-1.6-34.2 18.4-39.5 25.7 0.1-4.8-2.3-16.2-14.4-23.7-13.8 11.6-19.9 48.4-25.5 65.8 10.6-40.6-14.4-59.9-18.7-57.3-6.1 149.9 128.9 176.4 128.9 176.4z"/>
				<path id="&lt;Compound Path&gt;" fill-rule="evenodd" class="s0" d="m775 547.4c32-1.2 67 55.6 29.7 98.8-10.5 12-59.8 39-85.3 2.6-18.4-26.1 12.7-41.3 24.7-36.7-19 9.9-7.5 32 4.2 37.6 10.2 4.9 20.5 4.5 30.2 1.2-14-1.7-25.7-7.9-28.3-26.5 15.9 14.3 64.7-6.2 37.2-54.1-4.3-7.4-20-16.1-36.7-17.8 15.3 6.9 27.3 27.8 5.2 48.8-16.1-55.7-140.7-18.9-84 87.1-1-8.4-22.1-68 26.5-70.6-8.6 9.1 16.2 31.1-13.6 77.7-3.6 8.7 13.9 17.9 51.8 21.9-10.3-6.9-29.6-5.8-27.2-47.1 41.3 7.7 23.5 40.2 53.4 47.7-5.2 5.1-102.8 34.4-127.3-67.7-5.6-23.2-0.7-101.4 114.1-113.7 3.2-0.4 8.5-2.5 13.9-5.5 9.8-5.3 20-13.4 19.4-18.7 4 3.7 7.9 11.4 7.9 18.7 0.1 7.5-3.9 14.5-15.8 16.3zm-30.6 169.4c-1.5-1.4-21.8-25.8-28.2-36.2 2.3 19.5 28.2 36.2 28.2 36.2zm-65.5-38.8c0.6-24.7 0.2-39.9 10.4-51.4-19 5.2-11.5 35.9-10.4 51.4zm-15.5-88.7c21.7-22.5 60.9-38.2 85.2-19.8-35.6-38.9-85.2 19.8-85.2 19.8z"/>
				<path id="&lt;Path&gt;" class="s0" d="m759.8 447.8c-7.9-12.8-23.6-4.4-25.4 5.2-4.8 24.7 36.9 46.1 36.9 46.1-26.9-22.4-27.9-33.5-26.6-37.7 5 9.2 23.7 0.1 15.1-13.6z"/>
				<path id="&lt;Path&gt;" class="s0" d="m346.8 346.4c-5.5 10.7-4.8 29.7 18 28.1-0.6-0.9-5-6.1-3.7-16 0.8-5.8 4.9-34.4 53.4-21.8-3.1-4.1-52.3-20.1-67.7 9.7z"/>
				<path id="&lt;Path&gt;" class="s0" d="m516.6 450.7c1.9 1.8-0.2 13.1 14.1 21.3 7.3 3.6 23.3 18.5 44.7 25.9-10.9 4.9-19.5-4.4-39.5-20-8.8-6.8-12.7-6.9-25.2 0.4-0.3 0.6 14.1 15.8 30.7 20.7-8.2-1.3-24.9-1.8-31.8 8.5 1.4 1.1 17.7 15.2 41 5.5-5.7 3.3-13.3 9.2-10.2 15.8 18.3-4.2 38.9 8.9 76.6-4.5-1.8 1.1-7 3.4-11.4 6.8-1.3 1.1-2.6 2.3-3.6 3.6 35 23.5 59.6 20.7 86.6 5.7-2.9-0.2-43.4-9.6-56.5-6.9 1.2-0.4 3.3-1.7 7.9-2.4 3.3-0.5 14.1 0 14.1 0 0 0-42.8-12.4-51.8-21.3-15.4 2.3-40.8 1-50.1-3.5 18.7 2.9 30.4 2.4 44.8-0.8-7.5-3.6-42-31-56.9-65.3 1.4 1.5 10.4 15.8 23.7 31.2-16.9-39.1-13.2-60.5-10.5-71.1-4.9 30.3 10.9 66.2 16.6 77.8 10.2 10.8 18.9 19.5 31.8 25.6-0.8-1.9-8.6-20.7-9.5-36.1 1.5 4.2 13.1 38.4 19.5 43.1 2.1 1.5 20.5 9.6 36.2 14.4-4.2-2.7-27.7-17.2-37.2-50.9 1.6 5.4 17.1 51.7 73.5 61.1 43.2 7.2 62.5-16.8 65.9-25.9 0 0-46.5 27-52.3-17.8-3.7-1.5-14 3.5-11.7 16.2-1.7-5.9-12.1-21.6-5.4-35.1-11.1-5.7-26.8 17.7-9.4 31.4-1.2-1.2-7.5-1.6-12.4 0.8 4.3 16.4 13.4 19.8 41.1 26-8.2-1.8-71-1.4-55.2-82.9-0.6-0.3-18.5-3.9-19.2 10.2-0.4-14-14.1-28.5-12.2-31.4-2.1 0.6-21.9 12-15.7 37.3-0.3-1.1-3.6-8.5-10.2-9.7-4 1.4-4.7 16.7-0.2 24.7-1.2-1.2-24.4-39.7 8.2-63.9-1.4-3.1-27.3-9.6-31.4 1.6 1.2-6.8 2.6-31-6.7-40.4-3.7-1.8-27.4 26.1-9.2 58.9-3-3-11-25-27.4-24.6 1.5 6.8-9.2 30.8 21.1 48.2-4.4-1.9-15.2-10.8-25.3-8.2z"/>
				<path id="&lt;Path&gt;" class="s0" d="m723.4 255.7c-5 2.8-9.4 5.2-16 7.5-1.4-5.9-6.8-16.2-10.7-16.9-3.6 6.1-2.9 17.5-3.7 22.5-5.7-6.4-13.7-13.1-22.1-9.7 13.9 12.7-8.9 12.5 22.2 56.1 0-0.2 1.7-35.6-13.4-50.3 5 2.7 18.4 15.6 13.4 50.3q0.5 0.7 1 1.4c1.5-8.9 3-16.2 4.5-22.4 7.6-5.3 10.4-16.2 9.6-25.6 4.5-6.9 39.2-5.4 32.5-44.9-24.1 13.3-21.7 22.9-17.3 32z"/>
				<path id="&lt;Path&gt;" class="s0" d="m871.4 544.2q-0.1-0.2-0.1-0.3 0 0.1 0.1 0.3z"/>
				<path id="&lt;Path&gt;" class="s0" d="m970.7 535.7q-0.3 0-0.5 0 0 0 0.5 0z"/>
				<path id="&lt;Compound Path&gt;" fill-rule="evenodd" class="s0" d="m632.4 615.1c-5.9 41.5-19 51.4-54.8 62.5 9.7-2.6 48.6-10.1 96.3 57.1 12.6 17.7 46.5 32.8 55 23.5 3.5 20.1-31.6 47.8-57.1 19.8 0.3 6.3 5 11.2 3 28.4-15.5 5.4-25.6-14-32.5-31.3-0.2 6.8-0.7 14.2-1.9 21.6 7.2 3.8 29.3 16 20.2 43-21.3-4.6-23.8-19.6-23.8-26.7-3.7 12.2-9.7 23.5-19 31.2-4.8 3.9-10 7.2-15.5 9.9-6.1 4.6-13.1 11.5-14.9 20.1 0 0-8.7 19.1-17.8 26-3.8 1.1-19.9-20.9 2.2-38.5-16 0.2-30.7-5.9-39.1-20-13.3-22.3-12.6-54.7 26.6-67.8-1.6 7.8 7.9 30.9-8.5 42.2-16 11-13.4 31.3 5.6 36.3 14 3.7 25.2 0.3 27.8 0.1-9.5-0.1-30.4-1.9-26.7-29.2 26.4-0.3 31.2 26.9 51.9 18.1 5.3-2.2 11-11.3 16.1-18.3-1.1-0.4-38.8 12.5-46.3-14.2 4.3-0.9 21.8-10.9 34.8 0.4 9 7.5 24.2 7 25-36.3-4.1 3.4-4.1 9.8-8.6 18.9-5.5-0.6-18.6-13.1-13.9-50.3-5.3 13.3-26.5 30.5-47.9 6.7 13.8-4.4 36.7-17.7 17.8-45.7-16.1-23.9-65.6-19.5-71.9-2.7 0.3 5.1 28.4-24.5 60.8 12.8-4.8 2.1-21.2 12.8-34.5 16.3 8 2.2 15.2 6.9 18.4 13.6-28.4 28.5-46.1 24-55.3 119.1-4.7-10.5-6.2-35.6-6.8-59.9 0.9-40.5 32.9-58.7 36.6-60.3-22.3 5.6-31.9 22.4-36 37.4 2.6-32.5 12.9-63.2 38.2-69.6-13.9 3.2-45.4 5.9-44.3 102.5 0 0-45.6-102.2 57.4-156.6 35.2-28 18.8-55.6 24.9-68.5 10.8-6.7 21.7 4.1 24.3 21.3-1.7-13.5-1.1-33.3 21.2-55.2 12.3 21.1 7.8 48.5-4.2 66.6-2.6 4 11.4-5.7 17.2-4.3zm-97 222.9c-4.6-19.5 12-48.2 13.2-52.3-25.2 20.1-13.2 52.3-13.2 52.3zm34.5 52.2q0-0.1 0-0.2 0 0.1 0 0.2zm0-0.2c-0.4-7.7 12.5-25.2 19.2-30.9-2 0.6-20.8 5.9-19.2 30.9zm-7-58.9c7.5 24.7 36.8 13.8 36.8 13.8-25.9 0.7-31.6-10.3-36.8-13.8zm26.5-18.4c9.7 11.5 35 5.8 35 5.8-8.1 1.1-25.3-6.3-35-5.8zm50.5-8.4c0 0 6.9 18.8 16.6 27.4-1.7-6.3-12.6-26.6-16.6-27.4zm-58-119.7c10.9 3.2 16.5 8.4 21 12.8 5.1 9.9 16.5 37.9-8.4 48.7 4.3 0 26.8-10.5 15.9-41.9 8.8 6.6 24.4 32.1 37.5 54.5-16.7-41.3-30.4-55.3-37.3-61.3 22.4 8.9 55.1 76.3 80.4 72.8-32.9-12.3-62.6-89-109.1-85.6zm27.3-87.6c-2.6 7.7-7.3 46.1-56 68.7 6.8-3.4 37.5-28.4 34.4-52.3-4.7 29.1-45.4 57.8-45.9 58 0 0 62-8.6 67.5-74.4z"/>
				<path id="&lt;Compound Path&gt;" fill-rule="evenodd" class="s0" d="m794.7 213.5c9.5 4.4 20.6 31.4 0.8 45.4 17.6-12.5 69.4-5.7 69.1 28.6-0.1 17.5-19.8 32.1-34.9 20.7-11.2-8.5-0.3-27.5 10.8-20.5 1.7 2.1 12.1 1.6 8.9-8.3-3.2-9.9-37.6-37.3-86.5 1.6 30.4-14.1 52 2.1 61.3-4.6 2.8 7.1-13.9 19.7-22.8 18.8 5.1 3.7 7.3 16.1-3.5 24.7-24.3-33.2-55.1-19-67.8-0.3 7.1-2 11.4-4.3 24.6 2-8.6 16.7-24.9 13-36.2 25.3 9-6.9 65.5-24.4 97.8-3.7 6.6-2 33.8-14.6 50.4 17.1-3.1 1.4-18.5 8.1-30.6 2.9 5.3 7.8 9 16.4 10.9 25 0-0.8 9.1 27.3 25.2 33.5 18.8 8.9 52 29.2 49 48.4-18.9 9.5-66.9-8.5-73.6-63-1.4 8.7-5.4 16.7-12.5 23.1-19.3 17.4-46.1 28.3-71.8-12.7 8.1 0 25.6-9.4 43.1 0 8.6 4.7 33.3 6.9 34.4-12.6 0.9-14.5-4.3-23.5-5-26 1.7 9.4 3.8 28.9-23.7 30.6-4.6-20.7 21.6-33.3-4.4-56.9-0.2 1.2 10.7 25.9-13.9 38.5-1.8-4-9.2-25.3-5.2-35 1.1-3.5 0.7-32.4-65.5-4-8 3.4-33.3 31.6-37.3 38.5 4-5.2 21.8-27.6 45.4-25.3 4 1.7 14.9 3.4 17.8-2.9 5.1 5.1-6.2 31.3-40.1 27.6 11 1.3 30.9 6.7 39.9-9.6 5.5-9.2 24.7-16.2 25.5-17.6 4.1 6.5 8.4 49.1-35.1 42.7-6.2-0.9-36.7-13.2-41.9 6.3-5.2 19.5 8 40.2 12.1 47.1-2.3-9.2-7-35.2 14.3-43.1 10.9-4 21.5-0.5 33.3 12.1-1.1-1.2-38.7 8-34.4 32.7 2.4 13.8 9.3 26.6 52.8 42 0 0-61.1-1.2-88.4-47.1-12.7-21.3-37.9-36.2-55.2-20.7-4-8.1-0.5-14.4 9.2-19.6-6.9 1.8-25.2 3.5-32.1-2.8 0.4-6.9 14.2-20.5 31.7-7-4.4-3.6-6.1-11.3-7-15.4 6.6-0.6 27.9-1.1 47.9 28.1 2.5 8 3.3 10.8 6.4 17.3-14.7-19.5-38-24.5-45.6-24.5 24.3 5.4 39.1 21.4 49.6 32.7 23.4 49 61.8 55.3 72.3 56.1-12.8-2.6-22.4-7.9-31.7-14-18.5-19.2-22.7-41.7-14.5-53.8 8-11.9 22.2-11 27.5-8.8-9.8-4.9-26-0.9-31 9.4-11.4 23.9 7.2 45 13.3 51.4-44.7-31.9-48.9-95.4-48.9-95.4 17.8-25.3 32-57 39.4-66.4-17.5 22.5-37.7 57.5-40.5 62.1-6.5-54-17.8-55.5-21.7-59 16.4 20.3 19.4 66.8 19.6 70.6-29.9-47.9-60.9-37-60.9-37 34.8 0 58.7 38.1 62.5 44.3 0.9 4.4 2.4 9.1 3.5 13-11.1-18.1-38.1-43.9-77.7-27.3 0.5-3.6-1.2-15.8 11.8-21.3-13.3 4.7-37.2 14.7-49.1-12.6 2.3 0 15.6-1 21.8-4.6 7-3.9 16.7-4 26.4-0.5-3.4-3.5-18.9-4.1-17.5-17.6 3.8 2.1 46.4-11.3 69.8 40-5.2-13.8-24.2-40.9-49.4-54 1.7-1.7 11.5-12.7 23-4-3.5-4.6-15.3-13.1-7.3-32 3.4 7.8 17 7.9 29.3 18 4.2 3.4 6.1 11.7 7.8 28.9-0.5-6.9 2.3-16.7 8.1-24.1 4 2.3 24.7 21.8 6.9 56.3 7.4-12.7 17.8-16.1 18.9-33.9 0.6-11.5-5.3-28.5 14.2-49.7 1.8 1.7 16.8 13.3-1.3 40.9 5.3-8.1 59.7-78.3 27.7-103.4 2.2-5.5 30.1-16.3 38.7 14 2.3 0.4 7.4-9.8 11.8-15.7zm-17 210.4c21.2 21.2 54.5 2.3 54.5 2.3-17.8 8-47.6 1.1-54.5-2.3zm70.3-28.8q0.1 0.6 0.1 1.3c2.7 13.6 14.8 55.1 59.2 65.9-9.7-4.2-50.7-28.2-59.3-67.2zm-19.2-19.5c0 0 2.9 21.8-10.4 25.9 9.8-2.3 16.7-15 10.4-25.9zm-5.9-25.6c0.8 1.8 26.6 2.6 36.1 7-16.4-13.8-36.1-7-36.1-7zm-33.7-7.7c0 0 14.9 14.4 8 33.3 6.3-14.9 6.9-20.7-8-33.3zm-45.6-51.3c13.4-3.4 30-10.9 56.4-3.3-22.7-19.2-56.4 3.3-56.4 3.3zm53.5-64c-9.4 24.1-26.9 37.4-37.3 43.8 24.5-26.7 15.4-39.5 10.1-42.2 11.2 15-35.2 65.9-27.1 58.6 49.5-33.9 52.4-51.2 54.3-60.2z"/>
				<path id="&lt;Path&gt;" class="s0" d="m742.8 313c0 0 30.6-18.1 48.7 12.9-30.2 6.5-38.8-18.1-48.7-12.9z"/>
				<path id="&lt;Path&gt;" class="s0" d="m662.3 499.4c0 0-32.6-23.7-6.9-63.9 14.4 9.6-1.7 52.8 6.9 63.9z"/>
				<path id="&lt;Path&gt;" class="s0" d="m668.3 612.8c0 0 15.2-44.5 69.2-23.6-5.7 19.4-59.7 10.7-69.2 23.6z"/>
				<path id="&lt;Path&gt;" class="s0" d="m611.8 752.5c0 0 9.5 42-45.1 47.4-4.8-18 43.7-33.2 45.1-47.4z"/>
				<path id="&lt;Path&gt;" class="s0" d="m475.3 514c0 0 42.7 4.5 22 48.5 23.9 16.8 51-61.4-22-48.5z"/>
				<path id="&lt;Compound Path&gt;" fill-rule="evenodd" class="s0" d="m925.2 484.7c4.9 19.1-12.9 34-31.2 33.8 9.9 8.4 23.9 11.7 24.6 11.7-0.1-0.9-0.6-3.6-0.6-3.6 0 0-2.7-24.4 31.7-37.2 7.2 11-2.4 28.1-10.5 37.2-2.5 2.8-4.8 4.9-6.5 5.8 18.8-1.8 19.4-9.1 20.5-10.2-4.2-22.3 17.7-22.3 27.3-26.9 1.7-0.9 2.9-1.8 3.7-3q0.3 2.6 0.4 4.9c0.5 12.3-5.1 24.3-23.8 28.4 6.9-1 36.6 3.7 26.7 34.1-26.1 3-28.2-24-32.8-29.3-29 17.8-58.6-3.6-61.9-5.5 1.6 1.9 3.2 4 4.5 6.2 4.1 7 6.1 15.4 1 24-2.1-7.1-14-12.9-24.9-24-4.8-4.9-9.4-10.8-12.8-18.3 2.4 6.8 5.2 12.9 8.1 18.3 19.8 36.8 48.9 44.1 56.7 41.5 12.9-4.2 5.9-17.6-2.5-14.2 3.9-13.8 31.4-7.4 28.7 13.1-2.8 21.1-30.1 21.1-51.9 5.3 5.8 9.7 8.8 19.5 0 31.7-14.1-13.1-21.3-44.4-26.6-59.5 5.4 21.7-23.2 36.9-33 33.6 0.1-7.9 2-19.7-0.1-21.1-25.6 17.4-42.6-15.1-41.1-21 17 0.9 30.2-37.1 20-32.3-31.6 14.9-51.7-27.1-42-36.8 34.9 29.7 63.3-38.6 69.4-46.4 0 0-15.2 108.6 78.9 59.7zm35.1 35.8c7.8-2.7 19.6-17.7 20.3-20.5-13.2 10.9-20.3 20.5-20.3 20.5zm-2.1 8.1c12.3-0.9 11.6 18.4 24.1 25-12.9-25.6-18.1-25.6-24.1-25zm-32.6-0.7q0.9-0.6 1.8-1.3c13.6-10.1 18.3-28.6 18.3-28.6-10 12.6-15.6 23.5-19.1 28.6q-0.5 0.7-1 1.3zm-89.9-68.8c-13.6 34.2-40 29.7-47.1 27.8 30.9 26.5 47.1-27.8 47.1-27.8zm1.8 6.3c0 0 10.5 39.9 6.5 65.7-1.7 11.1-6.1 19.6-15 21.3 4.4 1.3 14.6-3.3 18.2-21.3 1.3-6.5 1.8-14.7 0.8-25.1 1.9 5.2 3.9 14.6 5.2 25.1 1.8 15.4 1.9 33-2.9 42.7 4.7-6.7 8.4-18.5 5-42.7-2.2-15.8-7.6-37-17.8-65.7zm3.2-11.3c0 0 10.7 96.5 75.4 43.9-37.4 23.1-64.3 4.6-75.4-43.9z"/>
				<path id="&lt;Compound Path&gt;" fill-rule="evenodd" class="s0" d="m411.9 279.4c35.8-0.5 26.1 69.1 60.9 87.8-20.6-26.4-2.3-43.7-2.3-43.7 20.9 44.1 63.1-12.9 63.1-12.9-3.5 68.9-53.1 45.5-56.5 42 8.7 15.3 32.8 12.1 37.5 9.7-5.4 10-27.1 34.4-27 45.3 10.6-23.6 25.1-31 36.1-49.2-2.1 8.7-5.2 25.9 0.1 34.8-1.1-9.1 1.8-25.1 4.6-43.9 4.2-9.5 7.6-21.8 9.5-39.1 20.2 53-6.8 89.6-6.9 95.2-14.3 1.3-20.6-10.9-22.7-11.9 10.4 29.6 3.2 39.3 0.3 42.9-10.4-3.9-14.9-7.7-18.4-14.6 0.5 28.9-24.8 40.3-28.2 41.5-14.4-19.9 10.1-58.2 9.3-60.4-4.5 5.9-13.8 3.9-20.3 6.3-6.2-26.1 23.4-36.4 26.8-35.9-0.2-0.3-85.3-43.1-75.4-5 1 3.7 8.6 6.7 11.8 1 2.8 19.4-24.1 21.1-30.1 2.4-9.1-28.5 26.8-43.7 60-21.5-35.1-24.9-77.8-49.3-119.8-3.4-5 5.4-31.8 45.6-14.8 74.8-3.2 5-18.1 1.9-20.7-7.7-2.6 3.4-1.4 19.9 10.9 28.5-2.7 5.6-18 10.8-24.7-6.9-3.2 2.8 6.9 30.2 25.7 30.1 1.3 12.4-21.6 18.6-26.9-0.1-4.9 30.7 80.9 45.3 63.8-9.4 12-4 42.3 13.2 24.1 39.1-3.8 5.4-10.9 10.4-20.3 12.8q3.9-0.5 7.9-1.4c10.1-1.1 61.9-37.7 24.6-77.2 5.2-4 23-11.7 31-0.6-3.1-10-19.8-20.8-40.3-16.9-0.6-4.4-1-14.7 9.7-17.8-4.7-3.5-35.5-8.2-44.6 20.2-1.9 6 8.8 13.9 13.8 2.5 3.9-1 18.4 12.8 5.3 24.9-12.8 11.7-35-5.9-27.9-31.5 7.1-25.6 41.2-41.1 75.5-19 4.5 2.9 13 13.2 14.1 16.8 0.5-5 12.4-30.1 33.4-17.4-2.5 2.5-9.4 7.3-19.7 51.3q-0.1 0.6-0.4 1.8c7.4-10.7 22.3-14.1 24.9-13.1 2.7 56.1-25.6 65.7-29.4 66.9 15.3-0.9 15.5 21.1 11.1 24.8-5.1-12.9-35.9-6.5-35.9-6.5-87.2 34.6-143.8-16-140.4-91-2.5 12.8-7.3 45.1 1.2 62.1 10.8 3.9 19 8.6 24.7 44.2q1.1 6.6 2 14.6c11.4-6.9 33 1.7 38.9-3.7-15.8 23.9-32.9 18-40.3 16.5 7.4 8.5 25.9 7.5 29.1 7.1 14.9-21.8 36.6-11.3 42.7-13.3-23.3 31.3-37.8 17.6-43.8 17-32.8 5-46.1-23.1-50.8-38.2q-0.5-1.7-0.9-3.1c-6.5-8.4-10.6-20.6-7.6-40.7 0-7.1-4.8-22-4.8-22 5.5 28.6-18.2 42-29.7 47.5 1.2-5.5 1.4-13.6 1.9-22 0.5-7.6 1.3-15.5 3.6-21.9 3.4-10.1 10.3-16.7 24.7-13.4 1.2-9.3 4.8-27 5.6-30.5q0.2-0.7 0.4-1.3c-9.4 3-14-0.3-16.7-3.5-0.8-0.9-1.4-1.8-2-2.6 1-0.8 2.4-1.8 4.2-3.1 7.5-5.2 21.4-15.5 33.1-41.4 21.1-46.6 97.4-94.4 171.7-34.3 0 0-26.8-62.6-48.2-32.2-5.5-15.8 8.3-28.7 18.8-27.2zm-99.9 287.6c6.9 4.5 28.8-7.5 31.2-9.1-15 1.9-31.2 9.1-31.2 9.1zm-0.4-19.5c-9.3 5.5-23.7 7.7-29 8.6 14.4 4.1 29-8.6 29-8.6zm-45.5-10.8c4.8 10.9 8.6 15.9 9.8 17 1.1-3.3 2.8-5.6 5-7.2-4.4-3.1-9.7-6-14.8-9.8zm-13.5-46.9c3 23.3 17.6 39.1 18.1 39.7 0-6.3-18.1-39.7-18.1-39.7zm-8.9-29.8c0 0-23 4.1-20.7 34.5 0.6-9.2 9.2-29.9 20.7-34.5zm81.5 54.6c0 0 77.5 13 108.2-57.4-3.4 2.1-11.3 19.4-34.8 36.4 10.3-8.9 25.7-33.1 20.6-84.2-0.1 12.3 2.1 73.6-39 94.1 16.8-9.9 27.9-35.7 14.2-64.1 2.3 5.4 24.4 75.9-69.2 75.2zm46.1-199.1c-100.5 5-110.2 104.7-103.3 132.4-3-47.5 16.2-79.6 35.8-100-18.5 21.9-15.6 49.6-14.7 56.7 1.4-80.6 82.2-89.1 82.2-89.1z"/>
			</g>
			<g id="&lt;Group&gt;">
				<path id="&lt;Path&gt;" class="s0" d="m875.4 7.2c0 0 11.7 44.9-24 46.8-2.3 2.9 0.5 24.6 19.4 16.2 17.9-8 12.5-46.4 4.6-63z"/>
				<path id="&lt;Path&gt;" class="s0" d="m570 0h24.1c6.5 15.2 1.3 35.5 1.3 35.5-2.3-9.7-18.8-21.6-25.4-35.5z"/>
				<path id="&lt;Compound Path&gt;" fill-rule="evenodd" class="s0" d="m829.2 20.1c4.2 11.7 45.9 66.3-9.4 123.3-6 9.3-22.3 31.2-15.4 46.9 0 0-24 2.7-22.8-18.3-7.2 5.1-23.9 52.9-73 17.6 20.6-22.5 67.5-10.1 68.9-29.3-8.5 1.7-49.2-13.3-30.4-37.7 10.3-13.5 28.4 3.2 24.6 8.9-15.5 16.1 13.8 25.9 32.2 2.3-4 1-26.4 0.6-28.1-22.5 6.1 1.1 81.5-3.3 53.4-91.2zm11.4 32.8c5.7 56.8-39.6 98.2-50.6 106.7 69.3-39.8 50.6-106.7 50.6-106.7z"/>
				<path id="&lt;Compound Path&gt;" fill-rule="evenodd" class="s0" d="m414.2 136.1c3.2 6.4 13.8 17.8 13.8 17.8 2.9-28.9 39.6-24.3 47.7-34.3 5.8 21.5-20.4 45.8-46 40.4 2.1 6.3 6.9 17.5 9.8 24.8 2.1-17.6 24.3-28.3 35.6-13.3-14.1 1.3-11.1 23.8-6.9 33.3 43.6 98.9 20.7 128.7 20.7 128.7-12.5-56.2-19.8-81.3-28.9-99.1-3.1-10.6-11.6-37.1-8.9-49-3.6 6.3-3.5 24.8 3.4 43.7-10.8-16.4-39.5-44.2-46.7-50.3 17.7 17.1 47.9 55.5 57.2 79-10.9-11.4-26.4-9.9-31.1-8.1 16.4-2.2 27.9 8.4 34.4 16.7 6.8 19.3 12.1 40.5 16.9 63.5-31.7-80.3-75.1-61.8-81.9-69.4 8.5-23 34.2-24.1 40.1-15.9-14.7-30.2-21.7-1-55-21.6 6.8-18.8 33.5-17.2 30.9-19.1-37.4-5.7-55.4-34.4-56.7-44.7 17.6-10 40.5-10.5 74.2 29.8-5.5-13.6-17.1-40-27.8-50-12.9 1.3-27.5 4.9-54.3-38.3 16.8 3.3 46.9-6 59.5 35.4zm-4-0.8c-6.9-13-17.5-15.7-31.1-20.3q-1.4-0.5-2.8-1 1.5 0.5 2.8 1c14 5.4 31.1 20.3 31.1 20.3zm21.3 19.5c0.8-0.2 28.8-9.4 37.8-25.8-2.8 3.4-36.8 25.1-37.8 25.8z"/>
				<path id="&lt;Compound Path&gt;" fill-rule="evenodd" class="s0" d="m476.5 90c7.6-2.6 25.8-15.4 33.8-27 5.9-3.4 23.9-8.7 38.2-38.9 0.4 3.8-7.4 34.2-7.4 45.7 9.7-32.4 12.9-58.3 17-69.8h2.7c2.1 15.4 5.6 68.2-21.4 89.4-7-7.7-9.1-11.3-8.2-21.5-1.9 2.1-31.9 21.2-16.1 50.6-5.5 3.6-33.6 3.8-26.8-27.6-4 1.8-7.1 17-29.3 10.2 2.8-4.3 9.6-25.9 29.4-28.6-2.3-1.2-7.6-3.2-14.6-6.5-8.9 0.4-33.7 4.4-51.5-18 3.5-4.6 7.5-8.3 11.8-7.9-11.3-7.8-28.9-17.4-44.2-15.7-5-15.5 10.6-25.3 18.7-18.6 1.3-0.1-1.3-2.6-5.7-5.8h21.3c12.9 21.8 43.2 61 80.7 64.5 0 0-16.8 21.1-28.4 25.5zm47.7-51.1c-17.7 0.8-17.7 0.8-33.6-6.4 15-1.9 19.9-21.2 34-32.5h27.1c-6.7 11-23 29.3-41.4 31.4 9.3 0.4 24.5-2.9 41.3-23.5-9.8 12-24.8 73.4-77.7 41.2-11.6-7-34-32.2-47.1-49.1h33.6c-12.9 15.1 17.1 67.8 63.8 38.9zm-42.5-38.9h12.1c-2.5 3.7-6.2 6.7-11.3 8.2 1.1-1.5 1.1-5.2-0.8-8.2z"/>
				<path id="&lt;Compound Path&gt;" class="s0" d="m325.2 43c0.1-4.8-2.3-16.2-14.4-23.7-13.8 11.6-19.9 48.4-25.5 65.8 10.6-40.6-14.4-59.9-18.7-57.3-6.1 149.9 128.9 176.4 128.9 176.4-118.2-37.5-124.6-141.7-124-149.4 4.7 29 16.2 54.2 26.7 75.1-7.4-14.7-1.1-69.8 13-94.1-9.5 34-8.7 45.3-9.4 49.8 23.4-42.6 69.7-33.5 78.6-29.8 8.9 3.7 26.5 18.6 39.1 33.1-29.9-23.2-40.7-41.1-78.5-29-46.7 15.1-39.4 52.2-39.2 57 0.7 22.6 19.8 44 41.6 60-5.5-8.7-11.7-24.5-0.4-41.7-2.4 7.9-7.9 29.1 6.1 45.7 20.7 14 42.6 22.9 52.8 23-70.5-32.4-33.3-59.7-46.4-83.5-14.9-0.5-16.8 7.9-22.6 13.3 10.8-20.5-1.7-45.6-8-47.9-15.1 15.1-10.6 37-5.3 50.8-15-25.1-10.5-52 1.8-60.4 20.8-14.1 43.8-6 49.3-0.2 21.6 36.4 33 28.4 40.1 35.2 4.3-9.8-4.2-23.4-4.3-25.4 22.4 40.9 43.4 29.6 46.1 34 4.8-28.9-33-40.9-40.4-46.6 21.4 12.3 28.2 0.2 28.9-5.2-2.1 1.2-5 0.2-11.5-4-13.9-12.5-23.9-12.9-33.8-13.6 8-0.9 10.4-6 11.3-9.2-36.7-19.3-48.5-2.2-59.7 2.5 11.1-6.6 22-20.2 17.3-26.4-29.1-1.6-34.2 18.4-39.5 25.7z"/>
				<path id="&lt;Compound Path&gt;" fill-rule="evenodd" class="s0" d="m761.2 0h34.9c22.9 16.4 37.6 58.1 8.6 91.6-10.5 12.1-59.8 39.1-85.3 2.7-18.4-26.1 12.7-41.4 24.7-36.7-19 9.9-7.5 32 4.2 37.6 10.2 4.9 20.5 4.5 30.2 1.2-14-1.7-25.7-7.9-28.3-26.5 15.9 14.3 64.7-6.2 37.2-54.1-3.3-5.8-13.7-12.4-26.2-15.8zm-75.4 0h68.6c13.4 8.3 21.8 27.5 1.5 46.8-16.1-55.7-140.7-18.9-84 87.1-1-8.4-22.1-68 26.5-70.6-8.6 9.1 16.2 31.1-13.6 77.7-3.6 8.7 13.9 17.9 51.8 21.9-10.3-7-29.6-5.8-27.2-47.1 41.3 7.7 23.5 40.2 53.4 47.6-5.2 5.2-102.8 34.5-127.3-67.6-4.3-17.8-2.4-67.8 50.3-95.8zm58.6 162.3c-1.5-1.5-21.9-25.9-28.2-36.2 2.3 19.2 27.4 35.7 28.2 36.2zm-65.5-38.8c0.6-24.7 0.2-39.9 10.4-51.4-19 5.2-11.5 35.9-10.4 51.4zm-15.3-88.9c21.8-22.4 60.8-38 85-19.6-34.3-37.6-81.7 15.8-85 19.6z"/>
				<path id="&lt;Compound Path&gt;" fill-rule="evenodd" class="s0" d="m617.7 0h2.6c11.2 20.9 6.6 47.3-5.1 64.9-2.6 4 11.4-5.8 17.2-4.3-5.9 41.5-19 51.4-54.8 62.5 9.7-2.6 48.6-10.1 96.3 57.1 12.6 17.7 46.5 32.8 55 23.4 3.5 20.2-31.6 47.9-57.1 19.9 0.3 6.3 5 11.2 3 28.4-15.5 5.4-25.6-14.1-32.5-31.3-0.2 6.8-0.7 14.2-1.9 21.6 7.2 3.8 29.3 16 20.2 43-21.3-4.6-23.8-19.6-23.8-26.7-3.7 12.2-9.7 23.5-19 31.2-4.8 3.9-10 7.2-15.5 9.8-6.1 4.7-13.1 11.6-14.8 20.2 0 0-8.8 19-17.9 26-3.8 1.1-19.9-20.9 2.2-38.5-16 0.2-30.7-5.9-39.1-20-13.2-22.3-12.6-54.7 26.6-67.9-1.6 7.9 7.9 31-8.5 42.3-16 11-13.4 31.3 5.6 36.3 14 3.7 25.2 0.3 27.8 0.1-9.5-0.1-30.4-1.9-26.7-29.2 26.4-0.3 31.2 26.9 51.9 18.1 5.3-2.2 11-11.3 16.1-18.3-1.1-0.4-38.8 12.5-46.3-14.2 4.3-0.9 21.8-10.9 34.8 0.4 9 7.5 24.3 7 25-36.3-4.1 3.4-4.1 9.8-8.6 18.9-5.5-0.6-18.6-13.1-13.9-50.3-5.3 13.3-26.5 30.5-47.9 6.7 13.8-4.4 36.7-17.7 17.8-45.7-16.1-23.9-65.6-19.5-71.9-2.7 0.3 5.1 28.4-24.5 60.8 12.8-4.8 2.1-21.2 12.8-34.5 16.3 8 2.2 15.2 6.9 18.4 13.6-28.4 28.5-46.1 24-55.3 119.1-4.7-10.5-6.1-35.6-6.8-59.9 0.9-40.5 32.9-58.7 36.6-60.3-22.3 5.6-31.9 22.4-36 37.4 2.5-32.4 12.9-62.9 37.9-69.6-14 3.3-45.1 6.5-44 102.5 0 0-45.6-102.2 57.4-156.6 35.2-28 18.8-55.6 24.9-68.5 10.9-6.7 21.8 4.2 24.3 21.5-1.7-13.2-1.2-32.4 19.5-53.7zm-82.3 283.4c-4.6-19.5 12-48.1 13.2-52.2-24.4 19.5-13.9 50.3-13.2 52.2zm53.7 21.2c-2 0.6-20.7 5.8-19.3 30.5 0-7.7 12.7-24.9 19.3-30.5zm-26.2-28c7.5 24.7 36.8 13.8 36.8 13.8-25.8 0.7-31.6-10.4-36.8-13.8zm26.5-18.4c9.3 11 32.7 6.3 34.8 5.8-8.1 1-25.1-6.4-34.8-5.8zm50.5-8.4c0 0 6.9 18.8 16.6 27.4-1.7-6.3-12.6-26.6-16.6-27.4zm-58-119.7c10.9 3.2 16.5 8.4 21 12.8 5.1 9.9 16.5 37.9-8.4 48.7 4.3 0 26.8-10.5 15.9-41.9 8.8 6.6 24.4 32.1 37.5 54.5-16.7-41.3-30.4-55.3-37.3-61.3 22.4 8.8 55.1 76.3 80.4 72.8-32.8-12.3-62.6-89-109.1-85.6zm27.3-87.6c-2.6 7.7-7.3 46.1-56 68.7 6.8-3.4 37.5-28.4 34.4-52.3-4.7 28.8-44.5 57.1-45.9 58 1.9-0.3 62.1-9.6 67.5-74.4z"/>
				<path id="&lt;Path&gt;" class="s0" d="m668.3 58.3c0 0 15.2-44.5 69.2-23.6-5.7 19.4-59.7 10.7-69.2 23.6z"/>
				<path id="&lt;Path&gt;" class="s0" d="m611.8 198c0 0 9.5 42-45.1 47.4-4.8-18 43.7-33.2 45.1-47.4z"/>
				<path id="&lt;Path&gt;" class="s0" d="m500.5 0h17.9c-4.8 8.6-13.1 13.6-21.1 8q2-4.3 3.2-8z"/>
				<path id="&lt;Compound Path&gt;" fill-rule="evenodd" class="s0" d="m885.9 0c16.5 16.6 33.7 20 39.5 18.1 12.9-4.2 5.9-17.6-2.5-14.2 0.5-1.5 1.2-2.8 2.2-3.9h19.3c4.8 3.4 8.2 9.2 7.2 17-2.8 21.1-30.1 21.1-51.9 5.3 5.8 9.7 8.8 19.5 0 31.7-12.5-11.6-19.6-37.7-24.8-54zm82.5 0h20.5q-0.5 2.4-1.4 5.2c-8.7 1-14.8-1.4-19.1-5.2zm-70.2 0h0.4q-0.1 0.3-0.3 0.6 0-0.3-0.1-0.6zm-43.9 0c-0.4 7.6-1.5 14.4-3.9 19.3 2.8-4.1 5.3-10 6.1-19.3h17.4c-0.2 18.7-24.8 31.1-33.7 28.1 0-7.9 2-19.7-0.1-21.1-15.9 10.8-28.5 2.4-35.4-7z"/>
				<path id="&lt;Compound Path&gt;" fill-rule="evenodd" class="s0" d="m282.6 1.6c6.1 1.7 12.2 0.5 17.3-1.6h9.6c-12.1 8.8-23.3 5.2-28.9 4 7.4 8.5 25.9 7.5 29.1 7.1 3.8-5.5 8-9 12.3-11.1h28.7c-22.3 28.5-36.2 15.4-42.1 14.8q-3.9 0.6-7.5 0.6c-14.4 0-24.4-6.9-31.3-15.4h21.4c-3.6 0.8-6.7 1.3-8.6 1.6zm29.4 10.9c6.9 4.5 28.8-7.5 31.2-9.2-15 2-31.2 9.2-31.2 9.2z"/>
			</g>
			<g id="&lt;Group&gt;">
				<path id="&lt;Path&gt;" class="s0" d="m138.5 1055.5c6.8 39.5-27.9 37.9-32.4 44.8 0.2 2.8 0.2 5.8-0.3 8.7h-18.1c-3.3-7.3-7.7-11-10.1-12.4 3.4 3.3 5.9 7.7 7.8 12.4h-11.9c-0.4-8.2 2.8-11.3-4.7-18.2 8.4-3.3 16.4 3.3 22.1 9.8 0.8-5 0.1-16.5 3.7-22.6 3.9 0.7 9.3 11.1 10.7 17 6.5-2.4 11-4.7 16-7.5-4.4-9.2-6.8-18.8 17.2-32z"/>
				<path id="&lt;Compound Path&gt;" fill-rule="evenodd" class="s0" d="m192.6 1045.2c9.5 4.4 20.6 31.4 0.8 45.5 15.7-11.2 58.5-7 67.4 18.3h-14.6c-6.4-10.7-37.3-31-80.4 0h-11.3c36.3-27.4 38.8-42.2 40.5-50.3-9.4 24.1-26.9 37.5-37.3 43.8 24.5-26.7 15.4-39.4 10.1-42.1 7.2 9.7-9.6 34.3-20.2 48.6h-7.3c11.4-22.7 18.8-48.8 1.8-62.1 2.1-5.5 30.1-16.2 38.7 14.1 2.3 0.3 7.4-9.8 11.8-15.8zm15 63.8h-36.6c14.9-4.1 27.3-1.5 36.6 0zm14.5-0.9q0.1 0.5 0.2 0.9h-1.7q0.8-0.3 1.5-0.9z"/>
			</g>
			<g id="&lt;Group&gt;">
				<path id="&lt;Path&gt;" class="s0" d="m273.3 839c0 0 11.7 44.8-24 46.8-2.3 2.8 0.5 24.6 19.4 16.1 17.8-7.9 12.5-46.3 4.6-62.9z"/>
				<path id="&lt;Compound Path&gt;" fill-rule="evenodd" class="s0" d="m227.1 851.9c4.2 11.7 45.9 66.2-9.4 123.3-6 9.3-22.3 31.1-15.4 46.9 0 0-24 2.6-22.8-18.4-7.2 5.1-23.9 52.9-73 17.6 20.6-22.4 67.5-10.1 68.9-29.3-8.5 1.8-49.2-13.2-30.5-37.7 10.4-13.4 28.5 3.3 24.7 9-15.5 16.1 13.8 25.9 32.2 2.3-4 1-26.4 0.6-28.1-22.5 6.1 1 81.5-3.3 53.4-91.2zm11.4 32.7c5.7 56.9-39.6 98.2-50.6 106.7 69.3-39.7 50.6-106.7 50.6-106.7z"/>
				<path id="&lt;Compound Path&gt;" fill-rule="evenodd" class="s0" d="m180.8 789.6c2 1.9 4 4.7 5.5 8 1.4 3.4 2.4 7.1 2.4 10.8q0 0 0 0c0.1 7.4-3.9 14.4-15.8 16.2 32-1.1 67 55.6 29.7 98.8-10.5 12.1-59.8 39.1-85.4 2.7-18.3-26.2 12.8-41.4 24.8-36.8-19 10-7.5 32 4.2 37.7 10.2 4.8 20.5 4.5 30.2 1.2-14-1.7-25.7-8-28.3-26.6 15.9 14.3 64.6-6.2 37.2-54-4.3-7.4-20-16.2-36.7-17.8 15.3 6.8 27.3 27.8 5.2 48.8-16.1-55.7-140.7-18.9-84 87-1-8.3-22.1-68 26.5-70.6-8.6 9.2 16.2 31.2-13.6 77.7-3.6 8.7 13.9 17.9 51.8 21.9-10.3-6.9-29.6-5.8-27.2-47.1 41.3 7.7 23.5 40.2 53.3 47.7-5.1 5.1-102.7 34.4-127.2-67.6-5.6-23.3-0.7-101.4 114.1-113.8 3.2-0.3 8.5-2.4 13.9-5.4q0 0 0 0 0 0 0 0c9.8-5.4 20-13.5 19.4-18.8zm-38.5 204.4c-1.6-1.5-21.8-25.8-28.2-36.1 2.3 19.2 27.4 35.6 28.2 36.1zm-65.5-38.8c0.6-24.7 0.2-39.8 10.4-51.3-19 5.1-11.5 35.8-10.4 51.3zm-15.3-88.9c21.8-22.3 60.8-37.9 85-19.5-34.3-37.6-81.7 15.8-85 19.5z"/>
				<path id="&lt;Path&gt;" class="s0" d="m157.7 725c-7.9-12.7-23.6-4.4-25.4 5.3-4.8 24.7 36.9 46 36.9 46-26.9-22.4-27.9-33.4-26.6-37.6 5 9.2 23.7 0 15.1-13.7z"/>
				<path id="&lt;Path&gt;" class="s0" d="m52 808.4c0 0-10.8-0.5-14.1 0-4.6 0.7-6.7 2-7.9 2.4 13.1-2.7 53.6 6.7 56.5 6.9-27 14.9-51.6 17.8-86.5-5.6v-0.3c1-1.2 2.2-2.4 3.5-3.4 4.4-3.5 9.6-5.7 11.4-6.8-5.3 1.9-10.2 3.2-14.9 4.2v-18.7q0.1 0 0.2 0c9 8.8 51.8 21.3 51.8 21.3z"/>
				<path id="&lt;Path&gt;" class="s0" d="m23.5 735.5c0.7-14.1 18.6-10.6 19.1-10.3-15.4 80.4 45.3 81.2 54.9 82.9-27.4-6.2-36.4-9.6-40.7-26 4.7-2.2 10.8-2 12.3-0.9-17.2-13.6-1.6-36.9 9.5-31.3-6.7 13.5 3.6 29.2 5.4 35.1-2.3-12.6 8-17.6 11.7-16.1 5.8 44.8 52.3 17.8 52.3 17.8-3.4 9.1-22.7 33.1-65.9 25.9-54.6-9.1-70.9-52.9-73.3-60.5 9.5 33.2 32.8 47.6 37 50.3-15.7-4.9-34.1-12.9-36.2-14.4-2.7-2-6.2-9.1-9.6-17v-57.1c4.5-6.4 10.2-9.6 11.3-9.8-1.9 2.9 11.8 17.4 12.2 31.4z"/>
				<path id="&lt;Path&gt;" class="s0" d="m121.3 533c-5 2.8-9.4 5.1-16 7.5-1.4-5.9-6.8-16.3-10.7-17-3.6 6.1-2.9 17.6-3.7 22.6-5.7-6.5-13.7-13.1-22.1-9.8 13.9 12.8-8.9 12.6 22.2 56.1 0-0.2 1.7-35.5-13.4-50.3 5 2.8 18.4 15.7 13.4 50.3q0.5 0.7 1 1.4c1.4-8.8 3-16.2 4.5-22.4 7.6-5.3 10.4-16.2 9.6-25.6 4.5-6.9 39.2-5.3 32.4-44.8-24 13.2-21.6 22.8-17.2 32z"/>
				<path id="&lt;Path&gt;" class="s0" d="m269.3 821.4q-0.1-0.1-0.1-0.2 0 0.1 0.1 0.2z"/>
				<path id="&lt;Path&gt;" class="s0" d="m368.6 812.9q-0.3 0.1-0.5 0.1 0 0 0.5-0.1z"/>
				<path id="&lt;Compound Path&gt;" fill-rule="evenodd" class="s0" d="m30.3 892.4c-4.3 30.2-12.4 43.6-30.3 53v-42.4c3.6-8.1 6.1-17.6 7.1-28.7-1.1 3.1-2.5 11.4-7.1 21.6v-41.5c3.2-7.7 8.6-15.9 17.3-24.3 12.3 21.1 7.8 48.5-4.2 66.6-2.6 3.9 11.4-5.8 17.2-4.3zm-30.3 62.1c17.9 3.8 43.3 17.2 71.9 57.4 12.5 17.7 46.4 32.8 54.9 23.5 3.5 20.2-31.6 47.9-57.1 19.8 0.3 6.4 5 11.2 3 28.5-15.5 5.4-25.6-14.1-32.5-31.4-0.2 6.9-0.7 14.2-1.9 21.7 6.4 3.4 24.9 13.5 22.1 35h-18.2c-6.4-6.2-7.5-14.1-7.5-18.7-2.1 6.6-4.8 13-8.3 18.7h-9.2c2.1-2.9 4.2-5.9 6.2-8.7-0.6-0.2-11.9 3.5-23.4 2.7v-6.5c9.8 1.8 20.7-0.4 22.1-0.8-5.1 0.7-13.9-2-22.1-4v-10.3c4.1 0.4 8.2 1.9 11.9 5.1 9 7.5 24.2 7.1 25-36.2-4.1 3.3-4.1 9.8-8.6 18.9-5.5-0.7-18.7-13.2-13.9-50.4-2.3 5.8-7.5 12.2-14.4 15.8v-14.5c7.4-5.1 15.9-16.8 8.3-38.7 8.8 6.7 24.4 32.2 37.5 54.6-16.7-41.4-30.4-55.3-37.3-61.4 22.4 8.9 55.1 76.3 80.4 72.9-27.8-10.5-53.4-67.1-88.9-82.1zm37.8 127.1c0 0 6.9 18.7 16.6 27.3-1.7-6.3-12.6-26.5-16.6-27.3zm-37.8-107.7q0.4 0.4 0.8 0.7c4.4 8.8 13.8 31.4-0.8 44.1z"/>
				<path id="&lt;Compound Path&gt;" fill-rule="evenodd" class="s0" d="m192.6 490.7c9.5 4.4 20.6 31.4 0.8 45.5 17.6-12.6 69.4-5.7 69.1 28.6-0.1 17.5-19.8 32.1-35 20.6-11.1-8.5-0.2-27.5 10.9-20.4 1.7 2 12.1 1.6 8.9-8.4-3.2-9.9-37.6-37.2-86.5 1.7 30.4-14.2 52 2.1 61.3-4.7 2.8 7.1-13.9 19.8-22.9 18.9 5.2 3.7 7.4 16-3.4 24.6-24.3-33.1-55.1-18.9-67.8-0.2 7.1-2.1 11.4-4.3 24.6 2-8.6 16.6-24.9 12.9-36.2 25.2 9-6.8 65.5-24.4 97.8-3.7 6.6-2 33.8-14.6 50.4 17.1-3.1 1.4-18.5 8.1-30.6 3 5.3 7.8 9 16.3 10.9 24.9 0.3 0 9.3 27.4 25.2 33.5 18.8 8.9 52 29.2 49 48.5-18.9 9.4-66.9-8.6-73.6-63-1.4 8.6-5.4 16.6-12.5 23-19.3 17.5-46.1 28.3-71.8-12.6 8.1 0 25.6-9.5 43.1 0 8.6 4.6 33.3 6.9 34.4-12.6 0.9-14.6-4.3-23.5-5-26 1.7 9.3 3.8 28.9-23.7 30.6-4.6-20.7 21.6-33.4-4.4-56.9-0.2 1.1 10.7 25.8-13.9 38.5-1.8-4-9.2-25.3-5.2-35.1 1.1-3.4 0.7-32.3-65.5-4-8 3.5-33.3 31.6-37.3 38.5 4-5.2 21.8-27.6 45.4-25.3 4 1.7 14.9 3.5 17.8-2.8 5.1 5.1-6.2 31.2-40.2 27.6 11.1 1.3 30.9 6.7 40-9.6 5.5-9.2 24.7-16.2 25.5-17.6 4.1 6.5 8.4 49.1-35.1 42.6-6.2-0.9-36.7-13.2-41.9 6.4-5.2 19.5 8 40.2 12.1 47.1-2.3-9.2-7-35.3 14.3-43.1 10.9-4 21.5-0.5 33.3 12-1.1-1.1-38.7 8-34.4 32.8 2.4 13.8 9.3 26.5 52.8 41.9 0 0-61.1-1.1-88.4-47.1-12.7-21.2-37.9-36.2-55.2-20.7-4-8-0.5-14.3 9.2-19.5-6.9 1.7-25.2 3.5-32.1-2.9 0.4-6.9 14.1-20.4 31.6-7-4.3-3.7-6-11.3-6.9-15.4 6.6-0.5 27.9-1.1 47.8 28.1 2.6 8.1 3.3 10.9 6.5 17.4-14.7-19.6-38.1-24.5-45.6-24.5 24.3 5.3 39.1 21.4 49.6 32.7 23.3 49 61.8 55.2 72.3 56-12.8-2.6-22.4-7.9-31.7-13.9-18.5-19.2-22.7-41.7-14.5-53.8 8-12 22.2-11 27.5-8.9 0.5 0.3 0.7 0.3 0 0-9.8-4.8-26-0.9-31 9.4-11.4 23.9 7.2 45.1 13.3 51.5-44.7-32-48.9-95.4-48.9-95.4 17.5-25 31.6-56 39-66-17.4 22.6-37.3 57.1-40.1 61.7-6.5-54.1-17.8-55.6-21.7-59 16.4 20.2 19.4 66.7 19.6 70.6-29.9-47.9-60.9-37-60.9-37 34.8 0 58.7 38 62.5 44.3 1 4.3 2.4 9 3.5 13-11.2-18.2-38.1-44-77.7-27.3 0.5-3.6-1.2-15.9 11.8-21.3-3.6 1.3-8 2.9-12.8 4.1v-24.3c3.8 0.2 7.9 1 11.9 2.4-1.9-1.9-7.5-2.9-11.9-5.8v-11.6c13.1-0.8 45.1-2.1 64.2 39.8-5.2-13.8-24.3-40.9-49.4-54 1.7-1.7 11.5-12.6 23-4-3.5-4.6-15.4-13-7.3-32 3.4 7.9 17 8 29.3 18 4.2 3.4 6.1 11.7 7.8 28.9-0.5-6.8 2.3-16.6 8.1-24.1 4 2.3 24.7 21.8 6.9 56.3 7.4-12.6 17.8-16.1 18.9-33.9 0.6-11.5-5.3-28.4 14.2-49.7 1.8 1.8 16.8 13.4-1.3 41 5.3-8.1 59.7-78.4 27.7-103.5 2.1-5.5 30.1-16.3 38.7 14.1 2.3 0.3 7.4-9.8 11.8-15.8zm-17 210.4c21.2 21.3 54.5 2.3 54.5 2.3-17.8 8.1-47.6 1.2-54.5-2.3zm70.3-28.8q0.1 0.7 0.1 1.4c2.7 13.6 14.8 55.1 59.2 65.9-9.7-4.2-50.7-28.3-59.3-67.3zm-19.2-19.4c0 0 2.8 21.8-10.4 25.8 9.8-2.3 16.7-14.9 10.4-25.8zm-5.9-25.6c0.8 1.7 26.6 2.6 36.1 6.9-16.4-13.8-36.1-6.9-36.1-6.9zm-33.6-7.6c1.3 1.3 14.4 15.2 7.9 33.2 6.3-14.9 6.9-20.7-7.9-33.2zm-45.7-51.4c13.4-3.5 30-10.9 56.4-3.4-22.7-19.2-56.4 3.4-56.4 3.4zm53.5-64.1c-9.4 24.1-26.9 37.4-37.3 43.8 24.5-26.7 15.4-39.4 10.1-42.1 11.2 14.9-35.2 65.9-27.1 58.5 49.5-33.9 52.4-51.2 54.3-60.2z"/>
				<path id="&lt;Path&gt;" class="s0" d="m140.7 590.3c0 0 30.6-18.1 48.6 12.9-30.1 6.4-38.7-18.1-48.6-12.9z"/>
				<path id="&lt;Path&gt;" class="s0" d="m60.2 776.7c0 0-32.6-23.7-6.9-64 14.4 9.6-1.7 52.8 6.9 64z"/>
				<path id="&lt;Path&gt;" class="s0" d="m66.2 890.1c0 0 15.2-44.5 69.2-23.7-5.7 19.5-59.7 10.8-69.2 23.7z"/>
				<path id="&lt;Path&gt;" class="s0" d="m9.7 1029.7c0 0 4.4 19.2-9.7 33.3v-21.3c5.4-4.1 9.4-8.1 9.7-12z"/>
				<path id="&lt;Compound Path&gt;" fill-rule="evenodd" class="s0" d="m323.1 762c4.9 19.1-12.9 33.9-31.2 33.8 9.9 8.4 23.9 11.6 24.6 11.6-0.1-0.8-0.6-3.5-0.6-3.5 0 0-2.7-24.5 31.7-37.2 1.8 2.7 2.5 5.8 2.5 9 0 9.9-6.9 21.3-13 28.2q0 0 0 0c-2.5 2.8-4.8 4.8-6.5 5.8 18.8-1.8 19.4-9.2 20.5-10.3-4.2-22.2 17.7-22.2 27.3-26.9 1.7-0.8 2.9-1.7 3.7-3q0.3 2.7 0.4 5c0.5 12.2-5.1 24.3-23.8 28.4 6.9-1.1 36.6 3.6 26.7 34-26.1 3-28.2-24-32.8-29.3-29 17.9-58.6-3.5-61.9-5.4 1.6 1.9 3.1 3.9 4.5 6.2q0 0 0 0c4.1 6.9 6.1 15.4 1 23.9-2.1-7.1-14-12.8-24.9-23.9q0 0 0 0c-4.8-4.9-9.4-10.8-12.8-18.3 2.4 6.8 5.2 12.8 8.1 18.3q0 0 0 0c19.8 36.7 48.9 44 56.7 41.5 12.9-4.2 5.9-17.7-2.5-14.2 3.8-13.9 31.4-7.4 28.7 13-2.8 21.2-30.1 21.2-51.9 5.4 5.8 9.6 8.7 19.4 0 31.7-14.1-13.1-21.3-44.4-26.6-59.6 5.4 21.7-23.3 37-33 33.6 0-7.8 2-19.6-0.1-21-25.6 17.3-42.6-15.2-41.1-21.1 17 1 30.2-37 20-32.2-31.6 14.8-51.7-27.1-42-36.9 34.9 29.7 63.3-38.5 69.4-46.3 0 0-15.2 108.5 78.9 59.7zm35.1 35.7c7.8-2.7 19.6-17.6 20.3-20.4-13.2 10.9-20.3 20.4-20.3 20.4zm-2.1 8.2c12.3-1 11.6 18.3 24.1 25-12.9-25.7-18.1-25.6-24.1-25zm-32.6-0.7q0.9-0.7 1.8-1.3 0 0 0 0c13.6-10.2 18.3-28.6 18.3-28.6-5 6.3-8.9 12.2-12 17.1-3.1 4.9-5.4 8.9-7.1 11.5q0 0 0 0c-0.4 0.4-0.7 0.9-1 1.3zm-89.9-68.7c-13.6 34.1-40 29.6-47.2 27.6 30.2 25.8 46.3-24.9 47.2-27.6zm1.9 6.2c0.4 1.7 7.3 28.8 7.3 52.4 0 4.6-0.3 9.1-0.9 13.3q0 0 0 0c-1.7 11.1-6.1 19.5-15 21.2 4.4 1.4 14.6-3.2 18.2-21.2q0 0 0 0c1.3-6.5 1.8-14.7 0.8-25.1 0.9 2.6 1.9 6.2 2.8 10.5 0.9 4.4 1.7 9.3 2.4 14.6q0 0 0 0c1.8 15.3 1.9 32.9-2.9 42.6 4.7-6.7 8.4-18.4 5-42.6q0 0 0 0c-2.2-15.9-7.5-37.1-17.7-65.7zm3.1-11.3c0.3 2.8 11.7 95.7 75.4 43.8-37.3 23.2-64.2 4.6-75.4-43.8z"/>
			</g>
			<g id="&lt;Group&gt;">
				<path id="&lt;Path&gt;" class="s0" d="m273.3 284.5c0 0 11.7 44.8-24 46.8-2.3 2.8 0.5 24.6 19.4 16.1 17.8-7.9 12.5-46.4 4.6-62.9z"/>
				<path id="&lt;Compound Path&gt;" fill-rule="evenodd" class="s0" d="m227.1 297.4c4.2 11.7 45.9 66.2-9.4 123.3-6 9.3-22.3 31.1-15.4 46.9 0 0-24 2.6-22.8-18.4-7.2 5.1-23.9 52.9-73 17.6 20.6-22.4 67.5-10.1 68.9-29.3-8.5 1.8-49.2-13.2-30.5-37.7 10.4-13.4 28.5 3.2 24.7 9-15.5 16.1 13.8 25.8 32.2 2.3-4 1-26.4 0.6-28.1-22.6 6.1 1.1 81.5-3.3 53.4-91.1zm11.4 32.7c5.7 56.9-39.6 98.2-50.6 106.7 69.3-39.7 50.6-106.7 50.6-106.7z"/>
				<path id="&lt;Compound Path&gt;" fill-rule="evenodd" class="s0" d="m180.8 235.1c4 3.7 7.9 11.5 7.9 18.8 0.1 7.4-3.9 14.4-15.8 16.2 32-1.1 67 55.6 29.7 98.8-10.5 12.1-59.8 39.1-85.4 2.6-18.3-26.1 12.8-41.3 24.8-36.7-19 10-7.5 32 4.2 37.6 10.2 4.9 20.5 4.6 30.2 1.3-14-1.7-25.7-8-28.3-26.6 15.9 14.3 64.6-6.2 37.2-54-4.3-7.4-20-16.2-36.7-17.8 15.3 6.8 27.3 27.7 5.2 48.8-16.1-55.7-140.7-19-84 87-1-8.3-22.1-68 26.5-70.6-8.6 9.2 16.2 31.2-13.6 77.7-3.6 8.7 13.9 17.9 51.8 21.9-10.3-6.9-29.6-5.8-27.2-47.1 41.3 7.7 23.5 40.2 53.3 47.7-5.1 5.1-102.7 34.4-127.2-67.6-5.6-23.3-0.7-101.5 114.1-113.8 1.6-0.2 3.7-0.8 6.1-1.7 2.4-1 5.1-2.2 7.8-3.7q0 0 0 0c9.8-5.4 20-13.5 19.4-18.8zm-38.5 204.4c-1.6-1.5-21.8-25.8-28.2-36.1 2.3 19.2 27.4 35.6 28.2 36.1zm-65.5-38.8c0.6-24.7 0.2-39.8 10.4-51.3-19 5.1-11.5 35.8-10.4 51.3zm-15.3-88.9c21.8-22.3 60.8-37.9 85-19.5-34.3-37.6-81.7 15.8-85 19.5z"/>
				<path id="&lt;Path&gt;" class="s0" d="m157.7 170.5c-7.9-12.7-23.6-4.4-25.4 5.3-4.8 24.7 36.9 46 36.9 46-26.9-22.4-27.9-33.4-26.6-37.6 5 9.2 23.7 0 15.1-13.7z"/>
				<path id="&lt;Path&gt;" class="s0" d="m52 253.9c0 0-10.8-0.5-14.1 0-4.6 0.7-6.7 2-7.9 2.4 13.1-2.8 53.6 6.7 56.5 6.9-27 14.9-51.6 17.8-86.5-5.7v-0.2c1-1.2 2.2-2.4 3.5-3.4 4.4-3.5 9.6-5.7 11.4-6.8-5.3 1.8-10.2 3.2-14.9 4.1v-18.6q0.1 0 0.2 0c9 8.8 51.8 21.3 51.8 21.3z"/>
				<path id="&lt;Path&gt;" class="s0" d="m23.5 181c0.7-14.1 18.6-10.6 19.1-10.3-15.4 80.4 45.3 81.2 54.9 82.9-27.4-6.2-36.4-9.6-40.7-26 4.7-2.2 10.7-2 12.3-0.9-17.2-13.6-1.6-36.9 9.5-31.3-6.7 13.5 3.6 29.2 5.4 35.1-2.3-12.6 8-17.6 11.7-16.1 5.8 44.8 52.3 17.8 52.3 17.8-3.4 9.1-22.7 33.1-65.9 25.9-54.6-9.1-70.9-52.9-73.3-60.5 9.5 33.2 32.8 47.6 37 50.3-15.7-4.9-34.1-12.9-36.2-14.4-2.7-2-6.2-9.1-9.6-17v-57.1c4.5-6.4 10.2-9.6 11.3-9.9-1.9 3 11.8 17.5 12.2 31.5z"/>
				<path id="&lt;Path&gt;" class="s0" d="m73.5 0h11.9c6.6 16.4 5.6 37.8 5.6 37.9-14.4-20.1-17.3-30.9-17.5-37.9z"/>
				<path id="&lt;Path&gt;" class="s0" d="m87.7 0h18.1c-1 6.8-4 13.2-9.3 16.9-1.5 6.2-3.1 13.6-4.5 22.4q-0.5-0.7-1-1.4c2.6-17.9 0.3-30-3.3-37.9z"/>
				<path id="&lt;Path&gt;" class="s0" d="m269.3 266.9q-0.1-0.1-0.1-0.2 0 0.1 0.1 0.2z"/>
				<path id="&lt;Path&gt;" class="s0" d="m368.6 258.4q-0.3 0.1-0.5 0.1 0 0 0.5-0.1z"/>
				<path id="&lt;Compound Path&gt;" fill-rule="evenodd" class="s0" d="m30.3 337.9c-4.3 30.2-12.4 43.6-30.3 53v-42.4c3.6-8.1 6.1-17.6 7.1-28.7-1.1 3.1-2.5 11.4-7.1 21.6v-41.6c3.2-7.6 8.6-15.8 17.3-24.3 12.3 21.2 7.8 48.6-4.2 66.7-2.6 3.9 11.4-5.8 17.2-4.3zm-30.3 62.1c17.9 3.8 43.3 17.2 71.9 57.4 12.5 17.7 46.4 32.8 54.9 23.5 3.5 20.2-31.6 47.9-57.1 19.8 0.3 6.4 5 11.2 3 28.5-15.5 5.4-25.6-14.1-32.5-31.4-0.2 6.9-0.7 14.2-1.9 21.7 7.2 3.8 29.3 16 20.2 43-21.3-4.6-23.8-19.6-23.8-26.7-3.8 12.2-9.7 23.4-19 31.1-4.8 3.9-10 7.2-15.5 9.9q-0.1 0.1-0.2 0.2v-11.1c2.2 0 4.7-0.6 7.3-1.7 5.3-2.2 11-11.4 16.1-18.4-0.6-0.2-11.9 3.5-23.4 2.7v-6.5c9.8 1.7 20.7-0.4 22.1-0.8-5.1 0.7-13.9-2-22.1-4v-10.3c4.1 0.4 8.2 1.9 11.9 5.1 9 7.5 24.2 7.1 25-36.2-4.1 3.3-4.1 9.8-8.6 18.8-5.5-0.6-18.7-13.1-13.9-50.3-2.3 5.8-7.5 12.2-14.4 15.8v-14.5c7.4-5.1 15.9-16.9 8.3-38.7 8.8 6.7 24.4 32.2 37.5 54.6-16.7-41.4-30.4-55.4-37.3-61.4 22.4 8.9 55.1 76.3 80.4 72.9-27.8-10.5-53.4-67.1-88.9-82.1zm37.8 127.1c0 0 6.9 18.7 16.6 27.3-1.7-6.3-12.6-26.5-16.6-27.3zm-37.8-107.7q0.4 0.4 0.8 0.7c4.4 8.8 13.8 31.4-0.8 44.1z"/>
				<path id="&lt;Compound Path&gt;" fill-rule="evenodd" class="s0" d="m140.7 9.9c5.1-3.5 9.7-6.8 13.8-9.9h11.2q-2.4 1.7-4.9 3.7c3.5-1.6 6.9-2.8 10.1-3.7h36.7c5.4 0.9 9.8 1.4 13 0h1.7c1.3 7.2-14.4 18.8-23.1 18 5.2 3.7 7.4 16-3.4 24.6-24.3-33.1-55.1-18.9-67.8-0.2 7.1-2.1 11.4-4.4 24.6 2-8.6 16.6-24.9 12.9-36.2 25.2 9-6.8 65.5-24.4 97.8-3.7 6.6-2 33.8-14.6 50.4 17.1-3.1 1.4-18.5 8.1-30.6 3 5.3 7.8 9 16.3 10.9 24.9 0.3 0 9.3 27.4 25.2 33.5 18.8 8.9 52 29.2 49 48.5-18.9 9.4-66.9-8.6-73.6-63-1.4 8.6-5.4 16.6-12.5 23-19.3 17.5-46.1 28.3-71.8-12.6 8.1 0 25.6-9.5 43.1 0 8.6 4.6 33.3 6.9 34.4-12.6 0.9-14.6-4.3-23.5-5-26 1.7 9.3 3.8 28.8-23.7 30.6-4.6-20.7 21.6-33.4-4.4-56.9-0.2 1.1 10.7 25.8-13.9 38.5-1.8-4.1-9.2-25.3-5.2-35.1 1.1-3.4 0.7-32.3-65.5-4-8 3.5-33.3 31.6-37.3 38.5 4-5.2 21.8-27.6 45.4-25.3 4 1.7 14.9 3.5 17.8-2.9 5.1 5.2-6.2 31.3-40.1 27.7 11 1.3 30.8 6.7 39.9-9.7 5.5-9.1 24.7-16.1 25.5-17.5 4.1 6.4 8.4 49.1-35.1 42.6-6.2-0.9-36.7-13.2-41.9 6.4-5.2 19.5 8 40.2 12.1 47-2.3-9.1-7-35.2 14.3-43 10.9-4 21.5-0.5 33.3 12-1.1-1.1-38.7 8-34.4 32.8 2.4 13.8 9.3 26.5 52.8 41.9 0 0-61.1-1.1-88.4-47.1-12.7-21.3-37.9-36.2-55.2-20.7-4-8-0.5-14.3 9.2-19.5-6.9 1.7-25.2 3.4-32.1-2.9 0.4-6.9 14.1-20.4 31.6-7-4.3-3.7-6-11.3-6.9-15.4 6.6-0.5 27.9-1.1 47.8 28.1 2.6 8.1 3.3 10.9 6.5 17.4-14.7-19.6-38.1-24.5-45.6-24.5 24.3 5.3 39.1 21.4 49.6 32.7 23.3 48.9 61.8 55.2 72.3 56-12.8-2.6-22.4-7.9-31.7-13.9-18.5-19.2-22.7-41.7-14.5-53.8 8-12 22.2-11.1 27.5-8.9-9.8-4.8-26-0.9-31 9.4-11.4 23.9 7.2 45.1 13.3 51.5-44.7-32-48.9-95.4-48.9-95.4 17.5-25 31.6-56 39-66-17.4 22.6-37.3 57.1-40.1 61.7-6.5-54.1-17.8-55.6-21.7-59 16.4 20.2 19.4 66.7 19.6 70.6-29.9-47.9-60.9-37-60.9-37 34.8 0 58.7 38 62.5 44.3 1 4.3 2.4 9 3.5 13-11.2-18.2-38.1-44-77.7-27.3 0.5-3.6-1.2-15.9 11.8-21.3-3.6 1.3-8 2.9-12.8 4.1v-24.3c3.8 0.2 7.9 1 11.9 2.4-1.9-1.9-7.5-2.9-11.9-5.8v-11.6c13.1-0.8 45.1-2.1 64.2 39.8-5.2-13.8-24.3-40.9-49.4-54 1.7-1.7 11.5-12.6 23-4-3.5-4.6-15.4-13-7.3-32 3.4 7.9 17 8 29.3 18 4.2 3.4 6.1 11.7 7.8 28.9-0.5-6.9 2.3-16.6 8.1-24.1 4 2.3 24.7 21.8 6.9 56.3 7.4-12.6 17.8-16.1 18.9-33.9 0.6-11.5-5.3-28.4 14.2-49.7 1.7 1.7 16.7 13.3-1 40.6 3.1-4.5 15.8-21.5 25.6-41h7.3c-5.8 7.8-9.8 12.5-6.9 9.9zm34.9 136.7c21.2 21.3 54.5 2.3 54.5 2.3-17.8 8-47.6 1.2-54.5-2.3zm70.3-28.8q0.1 0.7 0.1 1.4c2.7 13.6 14.8 55.1 59.2 65.9-9.7-4.2-50.7-28.3-59.3-67.3zm-19.2-19.4c0 0 2.8 21.8-10.4 25.8 9.8-2.3 16.7-14.9 10.4-25.8zm-5.9-25.6c0.8 1.7 26.6 2.6 36.1 6.9-16.4-13.8-36.1-6.9-36.1-6.9zm-33.6-7.6c1.3 1.3 14.4 15.2 7.9 33.2 6.3-14.9 6.9-20.7-7.9-33.2zm-45.7-51.4c13.4-3.5 30-10.9 56.4-3.4-22.7-19.2-56.4 3.4-56.4 3.4zm104.7-13.8h14.7c1.1 3.1 1.6 6.5 1.6 10.3-0.1 17.5-19.8 32.1-35 20.6-11.1-8.5-0.2-27.5 10.9-20.4 1.7 2 12.1 1.6 8.9-8.4q-0.3-0.9-1.1-2.1z"/>
				<path id="&lt;Path&gt;" class="s0" d="m140.7 35.8c0 0 30.6-18.1 48.6 12.9-30.1 6.4-38.7-18.1-48.6-12.9z"/>
				<path id="&lt;Path&gt;" class="s0" d="m60.2 222.2c0 0-32.6-23.7-6.9-64 14.4 9.6-1.7 52.8 6.9 64z"/>
				<path id="&lt;Path&gt;" class="s0" d="m66.2 335.6c0 0 15.2-44.5 69.2-23.7-5.7 19.5-59.7 10.8-69.2 23.7z"/>
				<path id="&lt;Path&gt;" class="s0" d="m9.7 475.2c0 0 4.4 19.2-9.7 33.3v-21.3c5.4-4.1 9.4-8.1 9.7-12z"/>
				<path id="&lt;Compound Path&gt;" fill-rule="evenodd" class="s0" d="m323.1 207.5c4.9 19.1-12.9 33.9-31.2 33.8 9.9 8.4 23.8 11.6 24.6 11.6-0.1-0.8-0.6-3.5-0.6-3.5 0 0-2.7-24.5 31.7-37.2 1.8 2.7 2.5 5.8 2.5 9 0 9.9-6.9 21.3-13 28.2-2.5 2.8-4.8 4.8-6.5 5.8 18.8-1.8 19.4-9.2 20.5-10.3-4.2-22.2 17.7-22.2 27.3-26.9 1.7-0.8 2.9-1.8 3.7-3q0.3 2.7 0.4 5c0.5 12.2-5.1 24.3-23.8 28.4 6.9-1.1 36.6 3.6 26.7 34-26.1 3-28.2-24-32.8-29.3-29 17.9-58.6-3.5-61.9-5.4 1.6 1.9 3.1 3.9 4.5 6.2 4.1 6.9 6.1 15.4 1 23.9-1.1-3.5-4.6-6.7-9.2-10.4-4.6-3.8-10.3-8-15.7-13.5-4.8-4.9-9.4-10.8-12.8-18.4 2.4 6.9 5.2 12.9 8.1 18.4 19.8 36.7 48.9 44 56.7 41.5 12.9-4.2 5.9-17.7-2.5-14.2 3.8-13.9 31.4-7.4 28.7 13-2.8 21.2-30.1 21.2-51.9 5.4 5.8 9.6 8.7 19.4 0 31.7-14.1-13.2-21.3-44.4-26.6-59.6 5.4 21.7-23.3 37-33 33.6 0-7.8 2-19.6-0.1-21-25.6 17.3-42.6-15.2-41.1-21.1 17 1 30.2-37 20-32.3-31.6 14.9-51.7-27-42-36.8 34.9 29.7 63.3-38.5 69.4-46.3 0 0-15.2 108.5 78.9 59.7zm35.1 35.7c7.8-2.7 19.6-17.6 20.3-20.4-13.2 10.9-20.3 20.4-20.3 20.4zm-2.1 8.2c12.3-1 11.6 18.3 24.1 25-12.9-25.7-18.1-25.6-24.1-25zm-32.6-0.7q0.9-0.7 1.8-1.3c13.6-10.2 18.3-28.6 18.3-28.6-10 12.6-15.6 23.5-19.1 28.6q-0.5 0.7-1 1.3zm-89.9-68.7c-13.6 34.1-40 29.6-47.2 27.6 30.2 25.8 46.3-24.9 47.2-27.6zm1.9 6.2c0.4 1.7 7.3 28.8 7.3 52.4 0 4.6-0.3 9.1-0.9 13.3-1.7 11.1-6.1 19.5-15 21.2q0.7 0.2 1.6 0.2c4.9 0 13.4-5.4 16.6-21.4 1.3-6.5 1.8-14.8 0.8-25.1 0.9 2.6 1.9 6.2 2.8 10.5 0.9 4.4 1.7 9.3 2.4 14.6 1.8 15.3 1.9 32.9-2.9 42.6 4.7-6.7 8.4-18.4 5-42.6-2.2-15.9-7.5-37.1-17.7-65.7zm3.1-11.3c0.3 2.8 11.7 95.7 75.4 43.8-37.3 23.1-64.2 4.6-75.4-43.8z"/>
			</g>
			<g id="&lt;Group&gt;">
				<path id="&lt;Compound Path&gt;" class="s0" d="m58.5 8c0.9-2.8 1.5-5.5 1.9-8h-18.2c3.6 3.4 8.8 6.3 16.3 8zm-51.2 1.7c-2.6 1.1-5.1 1.7-7.3 1.7v11.1q0.1-0.1 0.2-0.2c5.5-2.7 10.7-6 15.5-9.9 4.2-3.5 7.7-7.7 10.7-12.4h-9.2c-3.3 4.4-6.7 8.3-9.9 9.7z"/>
			</g>
			<g id="&lt;Group&gt;">
				<path id="&lt;Path&gt;" class="s0" d="m1193.3 867.3c0 0 12.9-50.2-27.3-51.9-5.7 21.3 24.1 38.5 27.3 51.9z"/>
				<path id="&lt;Compound Path&gt;" fill-rule="evenodd" class="s0" d="m1012.1 967.8c3.2 6.5 13.8 17.8 13.8 17.8 2.9-28.9 39.6-24.3 47.7-34.3 5.8 21.5-20.4 45.8-46 40.5 2.1 6.3 6.9 17.5 9.8 24.7 2.1-17.5 24.3-28.3 35.6-13.3-14.1 1.4-11.1 23.9-6.9 33.4 13.3 30.2 20.4 54 23.9 72.4h-16.7c-5.5-19.8-10.1-32.5-15.4-42.8-3.1-10.7-11.6-37.1-8.9-49-3.6 6.2-3.5 24.8 3.4 43.6-10.8-16.3-39.5-44.1-46.7-50.3 17.7 17.2 47.9 55.6 57.2 79.1-10.9-11.4-26.4-10-31.1-8.1 16.4-2.2 27.9 8.4 34.3 16.7q1.9 5.3 3.7 10.8h-21.4c-22.4-18-42.7-11.7-47.2-16.7 8.5-23 34.2-24.2 40.1-15.9-14.7-30.2-21.7-1.1-55-21.6 6.8-18.9 33.5-17.2 30.9-19.1-37.4-5.8-55.4-34.4-56.7-44.7 17.5-10.1 40.5-10.6 74.2 29.8-5.5-13.6-17.1-40-27.8-50-12.9 1.3-27.5 4.9-54.3-38.4 16.8 3.4 46.9-5.9 59.5 35.4zm-4-0.7c-6.9-13-17.5-15.8-31-20.3q-1.5-0.6-2.9-1 1.5 0.5 2.9 1c13.9 5.3 31 20.3 31 20.3zm21.3 19.5c0.8-0.3 28.8-9.5 37.8-25.9-2.8 3.4-36.8 25.2-37.8 25.9z"/>
				<path id="&lt;Compound Path&gt;" fill-rule="evenodd" class="s0" d="m1115.3 743.8c-6.5 1-21.5 24.1-44.3 7.7-3 1.3-20.3 9.9-23.3 23.3 6.1-5.6 19-21.1 43.5-3-9.5-3.5-31.3 29.3-45.6 10.7-0.6 1.7-1.6 7.8-1.6 19.3q0 3 0.1 6.6 0 0 0 0 0.1 5 0.6 11.1c1.5-3.7 9-23.5 28.9-24.2q0.2 0 0.5 0c8.1 0 14.8 6.2 18.4 13.1q0 0 0 0c5.8 11.1 2.5 27.2-12.1 31.5 2.6-3.3-0.6-17.4-17.7-11.2-22.5 8.2 8.6 73.5 59.4 41.9-17.7 0.9-17.7 0.9-33.6-6.4 22.4-2.8 22.4-44.8 64.3-40.2 0.9 4.6-20 36.3-44.6 39.2 9.3 0.4 24.5-3 41.3-23.6-9.8 12.1-24.8 73.5-77.7 41.3-15.5-9.4-50.2-51.2-56.3-62.3 2.7 9.6 39.1 73.2 87.3 77.6 0 0-16.8 21.1-28.4 25.5 7.6-2.6 25.8-15.4 33.8-26.9 5.9-3.5 23.9-8.7 38.2-38.9 0.4 3.7-7.4 34.2-7.4 45.7 11.1-37.4 13.8-66.1 19-74.1 0.8 1.1 10.9 68.9-20.7 93.6-7-7.6-9.1-11.3-8.2-21.5-1.9 2.2-31.9 21.3-16.1 50.6-5.5 3.7-33.6 3.8-26.8-27.5-4 1.8-7.1 16.9-29.3 10.1 2.8-4.3 9.6-25.9 29.4-28.6-2.3-1.1-7.6-3.1-14.6-6.4-8.9 0.4-33.7 4.4-51.5-18 3.5-4.7 7.5-8.4 11.8-7.9-11.3-7.8-28.9-17.5-44.2-15.7-5-15.5 10.6-25.4 18.7-18.6 3.4-0.4-18.8-15.4-29.7-20.5 1.7-3.3 3.8-6.2 6.1-8.7q0 0 0 0c6.9-7.6 15.9-11.3 24.8-11.3 9.1 0 18.2 3.9 25 11.3q0 0 0 0c2.5 2.6 4.6 5.7 6.3 9.3-0.3-2.8-0.6-5.9-0.7-9.3q0 0 0 0c-1-20.3 2.6-50.2 30.1-60.3 5.2-3.9 12.4-26.7 46.9-4.3zm-64.7 32.6c5.2-1.8 19.1-6.9 29.9-5.8 0 0-18.7-6.3-29.9 5.8zm21.8-27.6c0 0 17.8-0.6 32.2-6.3-2.9-0.6-27.9-2.3-32.2 6.3z"/>
				<path id="&lt;Compound Path&gt;" class="s0" d="m923.1 874.7c0.1-4.7-2.3-16.2-14.4-23.7-13.8 11.6-20 48.4-25.5 65.8 10.6-40.5-14.4-59.8-18.7-57.2-6.1 149.8 128.9 176.3 128.9 176.3-118.2-37.4-124.7-141.6-124-149.3 4.7 29 16.2 54.2 26.7 75-7.4-14.6-1.1-69.8 13-94.1-9.5 34.1-8.7 45.4-9.4 49.8 23.4-42.6 69.7-33.4 78.6-29.7 8.9 3.7 26.5 18.6 39.1 33.1-29.9-23.3-40.7-41.2-78.5-29-46.7 15-39.4 52.2-39.2 56.9 0.7 22.6 19.8 44.1 41.6 60-5.5-8.6-11.7-24.4-0.4-41.6-2.4 7.9-7.9 29.1 6.1 45.7 20.7 14 42.6 22.8 52.8 22.9-70.5-32.4-33.3-59.7-46.4-83.5-14.9-0.4-16.8 7.9-22.6 13.4 10.8-20.5-1.7-45.7-8-47.9-15.1 15-10.6 36.9-5.3 50.8-15-25.1-10.5-52.1 1.8-60.5 20.8-14.1 43.8-5.9 49.3-0.1 21.6 36.4 33 28.4 40.1 35.2 4.3-9.8-4.2-23.5-4.3-25.4 22.4 40.8 43.4 29.6 46.1 34 4.7-28.9-33-41-40.4-46.6 21.4 12.3 28.2 0.2 28.9-5.3-2.1 1.3-5 0.2-11.5-3.9-13.9-12.5-23.9-13-33.8-13.6 8-1 10.4-6 11.2-9.3-36.6-19.2-48.4-2.1-59.6 2.6 11.1-6.6 22-20.2 17.3-26.4-29.1-1.7-34.1 18.4-39.5 25.6z"/>
				<path id="&lt;Path&gt;" class="s0" d="m944.7 623.7c-5.5 10.7-4.8 29.7 18 28.1-0.7-0.9-5-6.2-3.7-16 0.8-5.8 4.9-34.5 53.4-21.9-3.1-4-52.3-20-67.7 9.8z"/>
				<path id="&lt;Path&gt;" class="s0" d="m1200 811.8v0.3q-0.1-0.1-0.1-0.1 0-0.1 0.1-0.2z"/>
				<path id="&lt;Path&gt;" class="s0" d="m1155.3 653.7c9.3 9.4 7.9 33.5 6.7 40.4 4.1-11.3 30-4.7 31.4-1.7-32.6 24.2-9.4 62.8-8.2 64-4.5-8-3.8-23.3 0.2-24.8 6.6 1.2 9.9 8.6 10.2 9.8-3-12.4 0.1-21.4 4.4-27.5v57.1c-4.7-11.1-9-23.7-9.9-26.1 0.9 15.3 8.7 34.2 9.5 36.1-12.9-6.1-21.6-14.9-31.8-25.6-5.7-11.6-21.5-47.5-16.6-77.9-2.7 10.7-6.4 32 10.5 71.1-13.3-15.3-22.3-29.7-23.7-31.1 14.9 34.2 49.4 61.7 56.9 65.2-14.4 3.2-26.1 3.8-44.9 0.9 9.3 4.4 34.6 5.7 50 3.5v18.7c-28.5 5.8-46-3.4-61.7 0.3-3.1-6.7 4.5-12.6 10.2-15.8-23.3 9.7-39.6-4.5-41-5.6 6.9-10.2 23.6-9.8 31.8-8.5-16.6-4.9-31-20.1-30.7-20.6 12.5-7.3 16.4-7.3 25.2-0.5 20 15.7 28.6 25 39.5 20-21.4-7.3-37.4-22.3-44.7-25.9-14.3-8.2-12.2-19.5-14.1-21.3 10-2.5 20.9 6.4 25.3 8.3-30.4-17.4-19.6-41.5-21.1-48.3 16.4-0.4 24.4 21.7 27.4 24.6-18.2-32.8 5.5-60.6 9.2-58.8z"/>
				<path id="&lt;Path&gt;" class="s0" d="m1155.1 1109h5.9q-0.1-0.3-0.2-0.6 0.5 0.2 0.9 0.6h17c-6-4.5-13-8.6-23.3-8.4-0.4 3.1-0.5 5.9-0.3 8.4z"/>
				<path id="&lt;Path&gt;" class="s0" d="m1148.7 1093.3c16.4-11.3 6.9-34.3 8.5-42.2-33.7 11.3-38.9 36.8-31.3 57.9h5.7c-2.1-10.4-3.4-31.4 14.9-46-1 3.6-14.6 27.1-14 46h5.8c0.7-5.7 4.1-11.4 10.4-15.7z"/>
				<path id="&lt;Compound Path&gt;" fill-rule="evenodd" class="s0" d="m1185.5 890.7c-4.7 28.7-44.5 57.1-45.9 58 1.6-0.2 43.1-6.7 60.4-45.7v42.4c-6.7 3.5-14.8 6.4-24.5 9.4 3.9-1 12.5-2.8 24.5-0.3v10.9c-6.4-2.7-13.1-4-20.2-3.5 10.2 3 15.8 7.8 20.2 11.9v44.9c-2 1.7-4.5 3.3-7.6 4.7 1.3 0 4.4-1 7.6-3.3v14.5c-9.1 4.8-21.3 4.6-33.5-9 13.8-4.5 36.7-17.7 17.8-45.7-16.1-23.9-65.6-19.5-71.9-2.7 0.3 5 28.4-24.6 60.8 12.8-4.8 2-21.2 12.7-34.5 16.2 8 2.3 15.2 7 18.4 13.7-25 25.1-41.7 24.6-51.6 89.1h-9.1c-0.7-9.3-1.1-19.7-1.4-29.9 0.9-40.6 32.9-58.8 36.5-60.3-22.2 5.6-31.8 22.4-35.9 37.3 2.5-32.6 13-63.3 38.5-69.6-13.8 3.2-45.8 5.3-44.6 102.6 0 0-45.6-102.3 57.4-156.7 35.2-28 18.8-55.5 24.9-68.4 10.9-6.7 21.8 4.2 24.3 21.4-1-8.3-1.2-18.9 3.9-31v41.5c-6.7 14.8-20.1 33.7-48.9 47 6.8-3.4 37.5-28.4 34.4-52.2zm14.5 190.7v10.3c-4.7-1.1-9.2-1.9-12.7-1.7 3.1 3.6 7.8 5.6 12.7 6.5v6.5c-9.7-0.7-19.5-4.6-22.9-16.8 3-0.7 12.8-5.9 22.9-4.8z"/>
				<path id="&lt;Path&gt;" class="s0" d="m1200 624.6v24.3c-12.7 3.3-27.6 3.1-36.3-16.7 2.3 0 15.6-1.1 21.8-4.6 4.1-2.3 9.1-3.3 14.5-3z"/>
				<path id="&lt;Path&gt;" class="s0" d="m1200 609.6v11.6c-3.5-2.3-6.2-5.7-5.6-11.7 0.7 0.4 2.7 0.2 5.6 0.1z"/>
				<path id="&lt;Path&gt;" class="s0" d="m1200 1041.7v21.3c-6.7 6.8-17.7 12.4-35.4 14.1-3.5-13 21.1-24.6 35.4-35.4z"/>
				<path id="&lt;Path&gt;" class="s0" d="m1073.2 791.3c0 0 42.7 4.5 22 48.4 23.9 16.8 51-61.4-22-48.4z"/>
				<path id="&lt;Compound Path&gt;" fill-rule="evenodd" class="s0" d="m1009.8 556.6c35.8-0.5 26.1 69.2 60.9 87.8-20.6-26.4-2.3-43.6-2.3-43.6 20.9 44.1 63.1-12.9 63.1-12.9-3.5 68.9-53.1 45.5-56.5 41.9 8.7 15.3 32.8 12.2 37.5 9.7-5.5 10.1-27.1 34.4-27 45.4 10.6-23.7 25.1-31.1 36.1-49.2-2.1 8.6-5.2 25.9 0.1 34.8-1.1-9.1 1.8-25.1 4.6-43.9 4.2-9.5 7.6-21.9 9.5-39.2 20.2 53-6.8 89.6-6.9 95.2-14.3 1.3-20.6-10.9-22.7-11.8 10.4 29.6 3.2 39.3 0.3 42.9-10.5-4-15-7.7-18.4-14.6 0.5 28.9-24.8 40.3-28.2 41.5-14.4-20 10.1-58.3 9.3-60.5-4.5 5.9-13.8 3.9-20.3 6.3-6.2-26 23.4-36.4 26.9-35.9-0.3-0.2-85.4-43-75.5-5 1 3.7 8.6 6.7 11.8 1.1 2.8 19.3-24.1 21.1-30.1 2.4-9.1-28.5 26.8-43.7 60-21.5-35.1-24.9-77.8-49.4-119.8-3.4-5 5.4-31.8 45.5-14.8 74.7-3.2 5.1-18.1 2-20.7-7.6-2.6 3.3-1.5 19.8 10.9 28.5-2.7 5.6-18 10.8-24.7-7-3.2 2.9 6.9 30.3 25.7 30.2 1.3 12.4-21.6 18.6-26.9-0.1-4.9 30.7 80.9 45.2 63.8-9.4 12-4 42.3 13.1 24.1 39-3.8 5.5-10.9 10.5-20.3 12.8q3.8-0.4 7.9-1.4c10.1-1 61.9-37.6 24.6-77.2 5.2-4 23-11.7 31-0.5-3.1-10.1-19.8-20.9-40.3-16.9-0.6-4.5-1-14.8 9.7-17.8-4.7-3.5-35.5-8.2-44.6 20.1-1.9 6 8.8 13.9 13.8 2.5 3.9-1 18.4 12.8 5.3 24.9-12.8 11.8-35-5.8-27.9-31.4 7.1-25.6 41.2-41.1 75.5-19.1 4.5 3 13 13.3 14.1 16.9 0.5-5 12.4-30.2 33.4-17.5-2.5 2.6-9.4 7.4-19.7 51.3q-0.1 0.7-0.4 1.8c7.4-10.7 22.3-14.1 24.8-13 2.8 56.1-25.5 65.6-29.3 66.8 15.3-0.8 15.5 21.1 11.1 24.9-5.1-12.9-35.9-6.6-35.9-6.6-87.2 34.6-143.8-15.9-140.4-91-2.5 12.9-7.3 45.1 1.2 62.2 5.4 1.9 10.1 4.1 14.3 10.2 4.1 6.1 7.6 16.2 10.4 34q0 0 0 0c0.7 4.4 1.4 9.2 2 14.6 11.4-7 32.9 1.6 38.9-3.7-15.8 23.8-32.9 18-40.3 16.5 7.4 8.5 25.9 7.4 29.1 7.1 14.9-21.9 36.5-11.4 42.7-13.4-23.3 31.4-37.8 17.7-43.8 17-32.8 5-46.1-23-50.8-38.1q0 0 0 0-0.5-1.7-0.9-3.2c-6.5-8.3-10.6-20.5-7.6-40.6 0-7-4.5-21.1-4.7-22 5.4 28.6-18.3 42-29.9 47.5q0 0 0 0c1.3-5.5 1.5-13.6 2-22 0.5-7.6 1.3-15.5 3.6-22 3.4-10 10.3-16.6 24.7-13.4 1.2-9.3 4.8-26.9 5.6-30.4q0.2-0.7 0.4-1.3c-9.4 2.9-14-0.3-16.7-3.5-0.8-0.9-1.4-1.9-2-2.6 1-0.9 2.4-1.9 4.2-3.1 7.5-5.3 21.4-15.5 33.1-41.4 21.1-46.6 97.4-94.4 171.7-34.4 0 0-26.8-62.6-48.2-32.2-5.5-15.7 8.3-28.6 18.8-27.2zm-99.9 287.7c6.8 4.5 28.8-7.5 31.2-9.2-15 2-31.2 9.2-31.2 9.2zm-0.4-19.5c-9.3 5.4-23.7 7.6-29 8.6 14.4 4 29-8.6 29-8.6zm-45.5-10.8c4.8 10.8 8.6 15.9 9.8 17 1.1-3.3 2.8-5.7 5-7.3-4.3-3.1-9.7-5.9-14.8-9.7zm-13.5-47c3 23.3 17.6 39.2 18.1 39.8 0-6.3-18.1-39.8-18.1-39.8zm-8.9-29.7c0 0-23 4-20.7 34.5 0.6-9.2 9.2-29.9 20.7-34.5zm81.5 54.6c0 0 77.5 12.9 108.2-57.5-3.4 2.2-11.3 19.5-34.8 36.5 10.3-9 25.7-33.1 20.6-84.2-0.1 12.3 2.1 73.5-39 94.1 16.8-9.9 27.8-35.7 14.2-64.2 2.3 5.4 24.4 75.9-69.2 75.3zm45.8-199.1c-100.2 5.2-109.9 104.7-103 132.4-3-47.6 16.2-79.7 35.8-100-18.5 21.8-15.6 49.5-14.7 56.6 1.4-77.4 76.1-88.3 81.9-89z"/>
			</g>
			<g id="&lt;Group&gt;">
				<path id="&lt;Path&gt;" class="s0" d="m1193.3 312.8c0 0 12.9-50.2-27.3-51.9-5.7 21.3 24.1 38.5 27.3 51.9z"/>
				<path id="&lt;Compound Path&gt;" fill-rule="evenodd" class="s0" d="m1012.1 413.3c3.2 6.5 13.8 17.8 13.8 17.8 2.9-28.9 39.6-24.3 47.7-34.3 5.8 21.5-20.4 45.8-46 40.4 2.1 6.4 6.9 17.6 9.8 24.8 2.1-17.5 24.3-28.3 35.6-13.3-14.1 1.4-11.1 23.9-6.9 33.4 43.6 98.9 20.7 128.6 20.7 128.6-12.5-56.2-19.8-81.3-28.9-99-3.1-10.7-11.6-37.1-8.9-49-3.6 6.2-3.5 24.8 3.4 43.6-10.8-16.3-39.5-44.1-46.7-50.3 17.7 17.2 47.9 55.6 57.2 79.1-10.9-11.4-26.4-10-31.1-8.1 16.4-2.2 27.9 8.4 34.3 16.7 6.9 19.3 12.1 40.4 17 63.5-31.7-80.3-75.1-61.8-81.9-69.4 8.5-23 34.2-24.2 40.1-15.9-14.7-30.2-21.7-1.1-55-21.6 6.8-18.9 33.5-17.2 30.9-19.1-37.4-5.8-55.4-34.4-56.7-44.7 17.5-10.1 40.5-10.6 74.2 29.8-5.5-13.6-17.1-40-27.8-50-12.9 1.3-27.5 4.9-54.3-38.4 16.8 3.4 46.9-5.9 59.5 35.4zm-4-0.7c-6.9-13-17.5-15.8-31-20.3q-1.5-0.6-2.9-1 1.5 0.5 2.9 1c13.9 5.3 31 20.3 31 20.3zm21.3 19.5c0.8-0.3 28.8-9.5 37.8-25.9-2.8 3.4-36.8 25.2-37.8 25.9z"/>
				<path id="&lt;Compound Path&gt;" fill-rule="evenodd" class="s0" d="m1115.3 189.3c-6.5 1-21.5 24.1-44.3 7.7-3 1.3-20.3 9.9-23.3 23.3 6.1-5.6 19-21.1 43.5-3-9.5-3.5-31.3 29.3-45.6 10.7-0.6 1.6-1.6 7.8-1.6 19.3q0 3 0.1 6.6 0.1 5 0.6 11.1c1.5-3.7 9-23.5 28.9-24.2q0.2 0 0.5 0c8.1 0 14.8 6.2 18.4 13.1 5.8 11.1 2.5 27.2-12.1 31.5 2.6-3.3-0.6-17.4-17.7-11.2-22.5 8.2 8.6 73.4 59.4 41.9-17.7 0.9-17.7 0.9-33.6-6.4 22.4-2.8 22.4-44.8 64.3-40.2 0.9 4.6-20 36.3-44.6 39.2 9.3 0.4 24.5-3 41.3-23.6-9.8 12.1-24.8 73.5-77.7 41.3-15.5-9.4-50.2-51.2-56.3-62.3 2.7 9.6 39.1 73.2 87.3 77.6 0 0-16.8 21.1-28.4 25.5 7.6-2.6 25.8-15.4 33.8-26.9 5.9-3.5 23.9-8.7 38.2-38.9 0.4 3.7-7.4 34.2-7.4 45.7 11.1-37.4 13.8-66.1 19-74.1 0.8 1.1 10.9 68.9-20.7 93.6-7-7.6-9.1-11.3-8.2-21.5-1.9 2.2-31.9 21.3-16.1 50.6-5.5 3.7-33.6 3.8-26.8-27.5-4 1.8-7.1 16.9-29.3 10.1 2.8-4.3 9.6-25.9 29.4-28.6-2.3-1.1-7.6-3.1-14.6-6.4-8.9 0.4-33.7 4.3-51.5-18.1 3.5-4.6 7.5-8.3 11.8-7.8-11.3-7.9-28.9-17.5-44.2-15.7-5-15.5 10.6-25.4 18.7-18.6 3.4-0.4-18.8-15.4-29.7-20.5 1.7-3.3 3.8-6.2 6.1-8.7 6.9-7.6 15.8-11.3 24.7-11.3 9.2 0 18.3 3.9 25.1 11.3 2.5 2.6 4.6 5.7 6.3 9.2-0.3-2.7-0.6-5.8-0.7-9.2-1-20.3 2.6-50.2 30.1-60.3 5.2-3.9 12.4-26.7 46.9-4.3zm-64.7 32.6c5.2-1.8 19.1-6.9 29.9-5.8 0 0-18.7-6.3-29.9 5.8zm21.8-27.6c0 0 17.8-0.6 32.2-6.3-2.9-0.6-27.9-2.3-32.2 6.3z"/>
				<path id="&lt;Compound Path&gt;" class="s0" d="m923.1 320.2c0.1-4.8-2.3-16.2-14.4-23.7-13.8 11.6-20 48.4-25.5 65.8 10.6-40.5-14.4-59.8-18.7-57.2-6.1 149.8 128.9 176.3 128.9 176.3-118.2-37.4-124.7-141.6-124-149.3 4.7 29 16.2 54.2 26.7 75-7.4-14.6-1.1-69.8 13-94.1-9.5 34.1-8.7 45.4-9.4 49.8 23.4-42.6 69.7-33.4 78.6-29.7 8.9 3.7 26.5 18.6 39.1 33.1-29.9-23.3-40.7-41.2-78.5-29-46.7 15-39.4 52.2-39.2 56.9 0.7 22.6 19.8 44.1 41.6 60-5.5-8.6-11.7-24.4-0.4-41.6-2.4 7.9-7.9 29.1 6.1 45.7 20.7 14 42.6 22.8 52.8 22.9-70.5-32.4-33.3-59.7-46.4-83.5-14.9-0.4-16.8 7.9-22.6 13.4 10.8-20.5-1.7-45.7-8-47.9-15.1 15-10.6 36.9-5.3 50.8-15-25.1-10.5-52.1 1.8-60.5 20.8-14.1 43.8-5.9 49.3-0.2 21.6 36.5 33 28.5 40.1 35.3 4.3-9.8-4.2-23.5-4.3-25.4 22.4 40.8 43.4 29.6 46.1 34 4.7-28.9-33-41-40.4-46.6 21.4 12.3 28.2 0.2 28.9-5.3-2.1 1.3-5 0.2-11.5-3.9-13.9-12.5-23.9-13-33.8-13.6 8-1 10.4-6 11.2-9.3-36.6-19.2-48.4-2.1-59.6 2.6 11.1-6.6 22-20.2 17.3-26.4-29.1-1.7-34.1 18.4-39.5 25.6z"/>
				<path id="&lt;Path&gt;" class="s0" d="m944.7 69.1c-5.5 10.8-4.8 29.7 18 28.2-0.7-0.9-5-6.2-3.7-16 0.8-5.8 4.9-34.5 53.4-21.9-3.1-4-52.3-20.1-67.7 9.7z"/>
				<path id="&lt;Path&gt;" class="s0" d="m1200 257.3v0.2q-0.1 0-0.1 0 0-0.1 0.1-0.2z"/>
				<path id="&lt;Path&gt;" class="s0" d="m1155.3 99.2c9.3 9.3 7.9 33.5 6.7 40.4 4.1-11.3 30-4.7 31.4-1.7-32.6 24.2-9.4 62.8-8.2 63.9-4.5-7.9-3.8-23.2 0.2-24.7 6.6 1.2 9.9 8.6 10.2 9.8-3-12.4 0.1-21.4 4.4-27.5v57.1c-4.7-11.1-9-23.7-9.9-26.1 0.9 15.3 8.7 34.1 9.5 36.1-12.9-6.1-21.6-14.9-31.8-25.6-5.7-11.6-21.5-47.5-16.6-77.9-2.7 10.7-6.4 32 10.5 71.1-13.3-15.3-22.3-29.7-23.7-31.1 14.9 34.2 49.4 61.7 56.9 65.2-14.4 3.2-26.1 3.8-44.9 0.9 9.3 4.4 34.6 5.7 50 3.5v18.6c-28.5 5.9-46-3.3-61.7 0.4-3.1-6.7 4.5-12.6 10.2-15.8-23.3 9.7-39.6-4.5-41-5.6 6.9-10.2 23.6-9.8 31.8-8.5-16.6-4.9-31-20.1-30.7-20.6 12.5-7.3 16.4-7.3 25.2-0.5 20 15.7 28.6 24.9 39.5 20-21.4-7.3-37.4-22.3-44.7-25.9-14.3-8.2-12.2-19.5-14.1-21.3 10-2.5 20.9 6.3 25.3 8.3-30.4-17.4-19.6-41.5-21.1-48.3 16.4-0.4 24.4 21.7 27.4 24.6-18.2-32.8 5.5-60.6 9.2-58.8z"/>
				<path id="&lt;Compound Path&gt;" fill-rule="evenodd" class="s0" d="m1157.2 496.6c-1.6 7.9 7.9 30.9-8.5 42.2-16 11-13.4 31.3 5.6 36.3 14 3.7 25.2 0.4 27.8 0.2-9.5-0.2-30.4-1.9-26.7-29.3 22.9-0.2 29.6 20.4 44.6 19.9v11.1c-6.1 4.6-12.9 11.5-14.7 19.9 0 0-8.7 19.1-17.8 26.1-3.8 1.1-19.9-20.9 2.1-38.6-15.9 0.3-30.6-5.8-39-19.9-13.3-22.4-12.6-54.7 26.6-67.9zm28.3-160.4c-4.7 28.7-44.5 57.1-45.9 58 1.6-0.3 43.1-6.7 60.4-45.7v42.4c-6.7 3.5-14.8 6.4-24.5 9.4 3.9-1 12.5-2.8 24.5-0.3v10.9c-6.4-2.7-13.1-4-20.2-3.5 10.2 2.9 15.8 7.8 20.2 11.9v44.8c-2 1.8-4.5 3.4-7.6 4.7 1.3 0 4.4-0.9 7.6-3.2v14.5c-9.1 4.8-21.3 4.6-33.5-9 13.8-4.5 36.7-17.7 17.8-45.7-16.1-23.9-65.6-19.5-71.9-2.7 0.3 5 28.4-24.6 60.8 12.8-4.8 2-21.2 12.7-34.5 16.2 8 2.3 15.2 6.9 18.4 13.7-28.4 28.4-46.1 24-55.3 119-4.7-10.4-6.2-35.5-6.8-59.9 0.9-40.5 32.9-58.7 36.5-60.2-22.2 5.6-31.8 22.4-35.9 37.3 2.5-32.6 13-63.3 38.5-69.6-13.8 3.2-45.8 5.3-44.6 102.6 0 0-45.6-102.3 57.4-156.7 35.2-28 18.8-55.5 24.9-68.4 10.9-6.8 21.8 4.2 24.3 21.4-1-8.3-1.2-18.9 3.9-31v41.5c-6.7 14.8-20.1 33.7-48.9 47 6.8-3.4 37.5-28.4 34.4-52.2zm1.5 245.6c-2 0.6-20.7 5.9-19.3 30.6 0-7.8 12.7-24.9 19.3-30.6zm10.6-14.2c-25.9 0.8-31.6-10.3-36.8-13.7 7.5 24.7 36.8 13.7 36.8 13.7zm-51.1-59.1c-24.4 19.5-13.9 50.3-13.2 52.2-4.6-19.6 12-48.2 13.2-52.2zm53.5 18.4v10.3c-4.7-1.1-9.2-1.9-12.7-1.7 3.1 3.6 7.8 5.6 12.7 6.5v6.5c-9.7-0.7-19.5-4.6-22.9-16.8 3-0.7 12.8-5.9 22.9-4.8z"/>
				<path id="&lt;Path&gt;" class="s0" d="m1200 70.1v24.3c-12.7 3.3-27.6 3.1-36.3-16.7 2.3 0 15.6-1.1 21.8-4.6 4.1-2.3 9.1-3.3 14.5-3z"/>
				<path id="&lt;Path&gt;" class="s0" d="m1200 55.1v11.6c-3.5-2.3-6.2-5.7-5.6-11.7 0.7 0.4 2.7 0.2 5.6 0.1z"/>
				<path id="&lt;Path&gt;" class="s0" d="m1200 487.2v21.3c-6.7 6.8-17.7 12.4-35.4 14.1-3.5-13 21.1-24.6 35.4-35.4z"/>
				<path id="&lt;Path&gt;" class="s0" d="m1073.2 236.8c0 0 42.7 4.5 22 48.4 23.9 16.8 51-61.4-22-48.4z"/>
				<path id="&lt;Compound Path&gt;" fill-rule="evenodd" class="s0" d="m1009.8 2.1c35.8-0.5 26.1 69.2 60.9 87.8-20.6-26.4-2.3-43.6-2.3-43.6 20.9 44.1 63.1-12.9 63.1-12.9-3.5 68.9-53.1 45.5-56.5 41.9 8.7 15.3 32.8 12.2 37.5 9.7-5.5 10.1-27.1 34.4-27 45.4 10.6-23.7 25.1-31.1 36.1-49.2-2.1 8.6-5.2 25.9 0.1 34.7-1.1-9 1.8-25 4.6-43.8 4.2-9.5 7.6-21.9 9.5-39.2 20.2 53-6.8 89.6-6.9 95.2-14.3 1.3-20.6-10.9-22.7-11.8 10.4 29.6 3.2 39.3 0.3 42.9-10.5-4-15-7.7-18.4-14.6 0.5 28.9-24.8 40.3-28.2 41.5-14.4-20 10.1-58.3 9.3-60.5-4.5 5.9-13.8 3.9-20.3 6.3-6.2-26 23.4-36.4 26.9-35.9-0.3-0.3-85.4-43-75.5-5 1 3.7 8.6 6.7 11.8 1.1 2.8 19.3-24.1 21.1-30.1 2.4-9.1-28.5 26.8-43.7 60-21.5-35.1-24.9-77.8-49.4-119.8-3.4-5 5.4-31.8 45.5-14.8 74.7-3.2 5.1-18.1 2-20.7-7.6-2.6 3.3-1.5 19.8 10.9 28.5-2.7 5.6-18 10.8-24.7-7-3.2 2.9 6.9 30.2 25.7 30.2 1.3 12.4-21.6 18.6-26.9-0.1-4.9 30.7 80.9 45.2 63.8-9.4 12-4 42.3 13.1 24.1 39-3.8 5.5-10.9 10.4-20.3 12.8q3.8-0.4 7.9-1.4c10.1-1 61.9-37.6 24.6-77.2 5.2-4 23-11.7 31-0.5-3.1-10.1-19.8-20.9-40.3-16.9-0.6-4.5-1-14.8 9.7-17.8-4.7-3.5-35.5-8.2-44.6 20.1-1.9 6 8.8 13.9 13.8 2.5 3.9-1 18.4 12.8 5.3 24.9-12.8 11.7-35-5.8-27.9-31.4 7.1-25.6 41.2-41.1 75.5-19.1 4.5 3 13 13.3 14.1 16.9 0.5-5 12.4-30.2 33.4-17.5-2.5 2.6-9.4 7.4-19.7 51.3q-0.1 0.7-0.4 1.8c7.4-10.7 22.3-14.1 24.8-13 2.8 56.1-25.5 65.6-29.3 66.8 15.3-0.8 15.5 21.1 11.1 24.9-5.1-12.9-35.9-6.6-35.9-6.6-87.2 34.6-143.8-15.9-140.4-91-2.5 12.9-7.3 45.1 1.2 62.2 5.4 1.9 10.1 4.1 14.3 10.2 4.1 6.1 7.6 16.2 10.4 34q1 6.5 2 14.6c11.4-7 32.9 1.6 38.9-3.7-15.8 23.8-32.9 18-40.3 16.5 7.4 8.5 25.9 7.4 29.1 7.1 14.9-21.9 36.5-11.4 42.7-13.4-23.3 31.4-37.8 17.7-43.8 17q-4 0.6-7.5 0.6c-27.4 0-38.9-24.8-43.3-38.7q-0.5-1.7-0.9-3.2c-6.5-8.3-10.6-20.5-7.6-40.6 0-7-4.5-21.1-4.7-22 5.4 28.6-18.3 42-29.9 47.5q0 0 0 0c1.3-5.5 1.5-13.6 2-22 0.5-7.6 1.3-15.5 3.6-22 3.4-10 10.3-16.6 24.7-13.4 1.2-9.3 4.8-27 5.6-30.4q0.2-0.7 0.4-1.3c-9.4 2.9-14-0.4-16.7-3.5-0.8-0.9-1.4-1.9-2-2.6 1-0.9 2.4-1.9 4.2-3.1 7.5-5.3 21.4-15.6 33.1-41.4 21.1-46.6 97.4-94.4 171.7-34.4 0 0-26.8-62.6-48.2-32.2-5.5-15.8 8.3-28.7 18.8-27.2zm-99.9 287.7c6.8 4.5 28.8-7.5 31.2-9.2-15 2-31.2 9.2-31.2 9.2zm-0.4-19.5c-9.3 5.4-23.7 7.6-29 8.6 14.4 4 29-8.6 29-8.6zm-45.5-10.8c4.8 10.8 8.6 15.9 9.8 17 1.1-3.3 2.8-5.7 5-7.3-4.3-3.1-9.7-5.9-14.8-9.7zm-13.5-47c3 23.3 17.6 39.2 18.1 39.8 0-6.3-18.1-39.8-18.1-39.8zm-8.9-29.7c0 0-23 4-20.7 34.5 0.6-9.2 9.2-29.9 20.7-34.5zm81.5 54.6c0 0 77.5 12.9 108.2-57.5-3.4 2.2-11.3 19.5-34.8 36.5 10.3-9 25.7-33.1 20.6-84.3-0.1 12.4 2.1 73.6-39 94.2 16.8-9.9 27.8-35.7 14.2-64.2 2.3 5.4 24.4 75.9-69.2 75.3zm45.8-199.1c-100.2 5.2-109.9 104.6-103 132.4-3-47.6 16.2-79.7 35.8-100.1-18.5 21.9-15.6 49.6-14.7 56.7 1.4-77.4 76.1-88.3 81.9-89z"/>
			</g>
			<g id="&lt;Group&gt;">
				<path id="&lt;Compound Path&gt;" class="s0" d="m1083.1 52.7c-4-18.8-8.2-36.4-13.3-52.7h-21.3c11.6 9.4 23.8 25.2 34.6 52.7zm3.7 3.5c0 0 11-14.3 3.2-56.2h-16.7c3.9 14.4 8.2 32.6 13.5 56.2z"/>
				<path id="&lt;Compound Path&gt;" fill-rule="evenodd" class="s0" d="m1131.6 0c0.7 3.4 1.5 5.7 1.7 6.1q-0.7-2.9-0.8-6.1h5.8c-1.1 8.8 4.4 17.6 16 20.6 14 3.7 25.2 0.4 27.8 0.2-8.4-0.2-25.8-1.6-27-20.8h5.9c7.8 23.8 36.6 13.1 36.6 13.1-24.4 0.7-30.9-9.1-35.9-13.1h17c7.3 5.5 13 11.7 21.3 11.4v11.1c-6.1 4.6-12.9 11.5-14.7 19.9 0 0-8.7 19.1-17.8 26.1-3.8 1.1-19.9-20.9 2.1-38.6-15.9 0.2-30.6-5.8-39-19.9-1.9-3.2-3.5-6.5-4.7-10zm55.4 27.3c-2 0.6-20.7 5.8-19.3 30.6 0-7.8 12.7-24.9 19.3-30.6zm-90.6-27.3h9.1c-1.4 8.7-2.6 18.6-3.7 29.9-2.7-6-4.4-17-5.4-29.9z"/>
			</g>
		</g>
	</g>
</svg>